<svg id="Calque_1" data-name="Calque 1" xmlns="http://www.w3.org/2000/svg" viewBox="0 0 576.21 1031.37"><defs><style>.cls-1,.cls-2{fill:#4e4e50;}.cls-2{opacity:0.5;}</style></defs><path d="M462.4,3.45H113.81A76.17,76.17,0,0,0,37.64,79.62V951.76a76.18,76.18,0,0,0,76.17,76.17H462.4a76.18,76.18,0,0,0,76.17-76.17V79.62A76.17,76.17,0,0,0,462.4,3.45Zm50.33,948.31a50.33,50.33,0,0,1-50.33,50.33H113.81a50.33,50.33,0,0,1-50.33-50.33V79.62a50.33,50.33,0,0,1,50.33-50.34h52.25a7.79,7.79,0,0,1,7.79,7.79,29.24,29.24,0,0,0,29.24,29.24h170a29.24,29.24,0,0,0,29.25-29.24,7.79,7.79,0,0,1,7.79-7.79H462.4a50.33,50.33,0,0,1,50.33,50.34Z"/><path class="cls-1" d="M315,42H261.2a4.07,4.07,0,1,0,0,8.14H315A4.07,4.07,0,0,0,315,42Z"/><path class="cls-1" d="M346.55,46a5.75,5.75,0,1,1-5.75-5.75A5.76,5.76,0,0,1,346.55,46Z"/><path class="cls-2" d="M510,27.66a72,72,0,0,0-26.48-14.2,71.1,71.1,0,0,0-14.72-2.59c-2.5-.14-4.95-.17-7.48-.1l-7.63.19q-30.49.66-61,1.1c-20.33.34-40.66.42-61,.63l-61,.21-61-.2c-20.33-.21-40.66-.28-61-.63l-30.49-.47-3.82-.08c-1.27,0-2.46,0-3.7.05a67.27,67.27,0,0,0-7.36.53c-1.22.14-2.43.42-3.64.62a29.91,29.91,0,0,0-3.62.78l-3.58.94L89,15.65l-1.75.61-1.7.74c-1.13.51-2.29,1-3.4,1.51a70.16,70.16,0,0,0-6.5,3.65,71.52,71.52,0,0,0-6.12,4.29c-1,.76-1.9,1.62-2.86,2.42l-1.43,1.22-1.33,1.32a72.56,72.56,0,0,0-16.69,25,76,76,0,0,1,6.09-14A70.62,70.62,0,0,1,62.42,30l1.29-1.44,1.39-1.35c.93-.89,1.84-1.82,2.82-2.66a79,79,0,0,1,12.71-8.94c1.14-.63,2.32-1.17,3.49-1.76l1.75-.87c.6-.26,1.21-.49,1.81-.74,1.21-.48,2.42-1,3.64-1.43L95.07,9.6a35.3,35.3,0,0,1,3.8-1c1.28-.26,2.55-.61,3.84-.81a75.55,75.55,0,0,1,7.81-.89c1.3-.06,2.64-.18,3.91-.2l3.82-.08,30.49-.47c20.33-.35,40.66-.42,61-.63l61-.2,61,.21c20.33.2,40.66.28,61,.63s40.66.66,61,1.09l7.63.2c2.55.06,5.18.21,7.74.5a70.22,70.22,0,0,1,29,10.19A73,73,0,0,1,510,27.66Z"/><path class="cls-1" d="M364.38,989.52H211.83a2.84,2.84,0,0,0,0,5.67H364.38a2.84,2.84,0,0,0,0-5.67Z"/><path d="M540.48,344.5a2.29,2.29,0,0,0,2.29-2.29V217.09a2.3,2.3,0,0,0-2.29-2.29h-1.91V344.5Z"/><path d="M35.73,130.28a2.29,2.29,0,0,0-2.29,2.29v34.92a2.28,2.28,0,0,0,2.29,2.28h1.91V130.28Z"/><path d="M35.73,198a2.28,2.28,0,0,0-2.29,2.28v60.86a2.28,2.28,0,0,0,2.29,2.28h1.91V198Z"/><path d="M35.73,284.34a2.28,2.28,0,0,0-2.29,2.29v60.85a2.29,2.29,0,0,0,2.29,2.29h1.91V284.34Z"/></svg>