<svg id="Calque_1" data-name="Calque 1" xmlns="http://www.w3.org/2000/svg" xmlns:xlink="http://www.w3.org/1999/xlink" viewBox="0 0 2017 4367.48"><defs><style>.cls-1{fill:none;}.cls-2{clip-path:url(#clip-path);}</style><clipPath id="clip-path" transform="translate(-176 -152)"><path class="cls-1" d="M1967.37,151.7H1732.68a35,35,0,0,0-35,35h0A131.37,131.37,0,0,1,1566.34,318H802.66A131.37,131.37,0,0,1,671.29,186.67a35,35,0,0,0-35-35H401.63c-124.87,0-226.1,101.23-226.1,226.1V4295.2c0,124.87,101.23,226.1,226.1,226.1H1967.37c124.87,0,226.1-101.23,226.1-226.1V377.8C2193.47,252.93,2092.24,151.7,1967.37,151.7Z"/></clipPath></defs><g class="cls-2"><image width="375" height="812" transform="translate(0 0) scale(5.38)" xlink:href="../../../../MOBILE-PILO-inscription-valid.png"/></g></svg>