<svg width="550" height="549" viewBox="0 0 550 549" fill="none" xmlns="http://www.w3.org/2000/svg">
<path d="M273.92 424.582C175.096 424.582 129.093 341.807 127.187 338.297C121.55 327.887 125.42 314.868 135.87 309.222C146.32 303.575 159.343 307.477 164.98 317.888C165.02 317.966 174.291 334.494 192.716 350.57C216.386 371.215 243.709 381.704 273.92 381.704C347.423 381.704 382.505 318.535 382.859 317.888C388.516 307.477 401.539 303.595 411.989 309.222C422.439 314.849 426.309 327.867 420.671 338.278C418.766 341.807 372.782 424.563 273.939 424.563L273.92 424.582ZM417.293 509.397C427.448 503.26 430.689 490.085 424.541 479.949C418.393 469.813 405.173 466.578 395.037 472.714C358.831 494.574 317.315 506.115 275 506.083C213.489 505.99 154.525 481.558 111.032 438.144C67.5397 394.73 43.0669 335.875 42.9786 274.48C43.0721 213.089 67.5472 154.24 111.039 110.83C154.532 67.4196 213.493 42.9907 275 42.8974C336.511 42.9855 395.477 67.4121 438.973 110.823C482.47 154.233 506.948 213.086 507.041 274.48C507.041 320.142 493.429 364.589 467.696 403.016C461.096 412.858 463.748 426.17 473.609 432.758C483.47 439.345 496.807 436.698 503.407 426.856C533.893 381.351 550 328.651 550 274.48C550 201.175 521.4 132.241 469.464 80.3836C417.529 28.5264 348.464 0 275 0C201.536 0 132.491 28.546 80.5357 80.3836C28.5804 132.221 0 201.175 0 274.48C0 347.786 28.6 416.72 80.5357 468.577C132.471 520.435 201.555 548.961 275 548.961C325.286 548.961 374.491 535.276 417.293 509.397ZM424.325 223.015C424.294 208.809 418.626 195.193 408.561 185.147C398.497 175.102 384.855 169.444 370.621 169.413C356.388 169.444 342.746 175.102 332.682 185.147C322.617 195.193 316.949 208.809 316.918 223.015C316.918 234.857 326.543 244.464 338.407 244.464C350.271 244.464 359.896 234.857 359.896 223.015C359.912 220.176 361.049 217.457 363.061 215.449C365.072 213.441 367.796 212.306 370.641 212.291C373.486 212.306 376.21 213.441 378.222 215.449C380.233 217.457 381.37 220.176 381.386 223.015C381.386 234.857 391.011 244.464 402.875 244.464C414.739 244.464 424.364 234.857 424.364 223.015H424.325ZM234.182 223.015C234.151 208.809 228.483 195.193 218.418 185.147C208.354 175.102 194.712 169.444 180.479 169.413C166.245 169.444 152.603 175.102 142.539 185.147C132.474 195.193 126.806 208.809 126.775 223.015C126.775 234.857 136.4 244.464 148.264 244.464C160.129 244.464 169.754 234.857 169.754 223.015C169.769 220.176 170.906 217.457 172.918 215.449C174.929 213.441 177.653 212.306 180.498 212.291C183.343 212.306 186.067 213.441 188.079 215.449C190.09 217.457 191.227 220.176 191.243 223.015C191.243 234.857 200.868 244.464 212.732 244.464C224.596 244.464 234.221 234.857 234.221 223.015H234.182Z" fill="url(#paint0_linear_785_242)"/>
<defs>
<linearGradient id="paint0_linear_785_242" x1="101.103" y1="3.22253e-05" x2="719.055" y2="445.12" gradientUnits="userSpaceOnUse">
<stop stop-color="#BF2F2F"/>
<stop offset="0.0001" stop-color="#BF2F2F"/>
<stop offset="1" stop-color="#DB00FF"/>
</linearGradient>
</defs>
</svg>
