<svg xmlns="http://www.w3.org/2000/svg" xmlns:xlink="http://www.w3.org/1999/xlink" viewBox="0 0 338 200"><defs><style>.cls-1{fill:url(#Dégradé_sans_nom_6);}.cls-2{fill:url(#Dégradé_sans_nom_6-2);}.cls-3{fill:url(#Dégradé_sans_nom_41);}</style><linearGradient id="Dégradé_sans_nom_6" x1="148.92" y1="37.03" x2="134.78" y2="58.31" gradientUnits="userSpaceOnUse"><stop offset="0" stop-color="#bf2f2f"/><stop offset="1" stop-color="#db00ff"/></linearGradient><linearGradient id="Dégradé_sans_nom_6-2" x1="108.99" y1="94.05" x2="122.96" y2="71.34" xlink:href="#Dégradé_sans_nom_6"/><linearGradient id="Dégradé_sans_nom_41" x1="178.48" y1="113.03" x2="157.41" y2="149.69" gradientUnits="userSpaceOnUse"><stop offset="0" stop-color="#db00ff"/><stop offset="0.12" stop-color="#da01fa"/><stop offset="0.26" stop-color="#d804ec"/><stop offset="0.41" stop-color="#d50ad4"/><stop offset="0.56" stop-color="#d111b2"/><stop offset="0.73" stop-color="#cb1b87"/><stop offset="0.9" stop-color="#c42753"/><stop offset="1" stop-color="#bf2f2f"/></linearGradient></defs><g id="Calque_5" data-name="Calque 5"><path d="M57.63,100.32H53.84l-17-40.39q-3.54-8.35-7.08-18.15h-.4q.7,14.1.7,25.83v32.71H21.78V32.68H33.66L49.59,71q2.73,6.57,6,15.82h.25q3.64-10.26,6-15.82L77.8,32.68H89.68v67.64H81.44V67.61q0-11.47.71-25.83h-.41Q78,52.13,74.67,59.93Z"/><path d="M133.72,66l24,34.33h-9.25l-25-34.53L100.75,32.68h9Z"/><path d="M28.65,160.86H22.47V115.7H5.52v-5.57H45.6v5.57h-17Z"/><path d="M59.74,139.86v21H53.56V110.13H66.7a53.49,53.49,0,0,1,5.67.25,26.79,26.79,0,0,1,4.26.77,15.23,15.23,0,0,1,8.1,4.91,13.37,13.37,0,0,1,2.81,8.67,14.46,14.46,0,0,1-1,5.5,12.69,12.69,0,0,1-2.77,4.21,14.77,14.77,0,0,1-4.26,2.92A22.83,22.83,0,0,1,74,139v.15l15,21.69H82.83l-15.62-21Zm0-24.16v18.58h6.11c1.89,0,3.51-.06,4.85-.19a17.33,17.33,0,0,0,3.6-.68,9.84,9.84,0,0,0,5-3.15A8.72,8.72,0,0,0,81,124.61a8.2,8.2,0,0,0-1.66-5.25,9.1,9.1,0,0,0-4.52-2.86,17.11,17.11,0,0,0-3.26-.61c-1.26-.12-2.87-.19-4.81-.19Z"/><path d="M94.4,160.86l20.66-50.73h5.35l20.67,50.73h-6.71l-6.06-15.28H107.09l-6,15.28ZM117.68,118q-3.39,9.47-6.48,17.21L109.3,140h16.82l-1.93-4.77q-3.12-7.89-6.36-17.22Z"/><path d="M223.66,142.13q4.67,6.7,9.21,13.8h.23q-.49-7.4-.49-15.09v-27h6.21v50.74h-6.18l-19.9-28.29q-5.16-7.39-9.22-13.8h-.23q.5,6.93.5,16.19v25.9h-6.18V113.84h6.14Z"/><path d="M257.86,159h26v5.58H251.68V113.84h30.79v5.58H257.86V135.8h21.88v5.57H257.86Z"/><path d="M300.67,143.57v21h-6.18V113.84h13.14a53.28,53.28,0,0,1,5.66.25,25.3,25.3,0,0,1,4.26.78,15.11,15.11,0,0,1,8.11,4.91,13.32,13.32,0,0,1,2.8,8.66,14.65,14.65,0,0,1-1,5.5,12.59,12.59,0,0,1-2.77,4.21,14.49,14.49,0,0,1-4.27,2.92,22.62,22.62,0,0,1-5.51,1.67v.15l15,21.69h-6.18l-15.62-21Zm0-24.15V138h6.1c1.9,0,3.52-.07,4.86-.19a18,18,0,0,0,3.6-.69,9.87,9.87,0,0,0,5-3.14,8.74,8.74,0,0,0,1.74-5.65,8.11,8.11,0,0,0-1.67-5.25,9,9,0,0,0-4.51-2.87,16.55,16.55,0,0,0-3.26-.6c-1.27-.13-2.87-.19-4.82-.19Z"/><path class="cls-1" d="M130,58.35l17-24.88a1.82,1.82,0,0,1,1.5-.8h4.69a1.83,1.83,0,0,1,1.5,2.87L134.52,64.33Z"/><path class="cls-2" d="M127.22,73.45,109.28,99.39a2.15,2.15,0,0,1-1.77.93h-4.07a2.16,2.16,0,0,1-1.77-3.4l21-29.9Z"/><path class="cls-3" d="M155.59,165.19a6.12,6.12,0,0,1-2-.34,3.89,3.89,0,0,1-2.32-2.12,4.24,4.24,0,0,1,.07-3.4q1.31-3,2.63-6l2.88-6.51h-4.35c-1.09,0-2.19,0-3.28,0a5,5,0,0,1-4.9-2.88,5,5,0,0,1,1-5.66q4.33-5,8.66-10l15.28-17.68a6.25,6.25,0,0,1,6.8-1.85,3.85,3.85,0,0,1,2.34,2.14,4.2,4.2,0,0,1-.09,3.4q-1,2.27-2.09,4.52l-3.67,7.93H173c2.48,0,5,0,7.44,0h.07a5,5,0,0,1,3.83,8.54q-5.88,6.78-11.74,13.57l-6.19,7.16c-2,2.31-4,4.63-6,6.95A6.37,6.37,0,0,1,155.59,165.19ZM155.21,143h3.86a2.36,2.36,0,0,1,2.2,1,2.42,2.42,0,0,1,0,2.45L157.46,155q-1.32,3-2.62,5.94a.48.48,0,0,0-.06.28,2.54,2.54,0,0,0,2.7-.72l6-7,6.19-7.16,11.74-13.57c.7-.8.53-1.16.4-1.45s-.37-.6-1.36-.66c-2.5,0-5,0-7.49,0h-2.69a2.23,2.23,0,0,1-2.19-3.52l4.6-9.94q1-2.23,2.07-4.48a.69.69,0,0,0,.06-.26,2.53,2.53,0,0,0-2.71.73l-15.28,17.68-8.66,10c-.69.79-.52,1.15-.39,1.44s.42.72,1.35.66c1.12,0,2.24,0,3.37,0Z"/></g></svg>