<svg xmlns="http://www.w3.org/2000/svg" xmlns:xlink="http://www.w3.org/1999/xlink" viewBox="0 0 626 255"><defs><style>.cls-1{fill:url(#Dégradé_sans_nom_6);}.cls-2{fill:url(#Dégradé_sans_nom_6-2);}.cls-3{fill:url(#Dégradé_sans_nom_41);}</style><linearGradient id="Dégradé_sans_nom_6" x1="417.71" y1="12.95" x2="390.81" y2="53.43" gradientUnits="userSpaceOnUse"><stop offset="0" stop-color="#bf2f2f"/><stop offset="1" stop-color="#db00ff"/></linearGradient><linearGradient id="Dégradé_sans_nom_6-2" x1="341.77" y1="121.41" x2="368.33" y2="78.22" xlink:href="#Dégradé_sans_nom_6"/><linearGradient id="Dégradé_sans_nom_41" x1="333.17" y1="149.92" x2="293.1" y2="219.64" gradientUnits="userSpaceOnUse"><stop offset="0" stop-color="#db00ff"/><stop offset="0.12" stop-color="#da01fa"/><stop offset="0.26" stop-color="#d804ec"/><stop offset="0.41" stop-color="#d50ad4"/><stop offset="0.56" stop-color="#d111b2"/><stop offset="0.73" stop-color="#cb1b87"/><stop offset="0.9" stop-color="#c42753"/><stop offset="1" stop-color="#bf2f2f"/></linearGradient></defs><g id="Calque_5" data-name="Calque 5"><path d="M244.06,133.35h-7.21L204.44,56.51Q197.72,40.64,191,22h-.77q1.35,26.82,1.35,49.14v62.22H175.88V4.68h22.6l30.29,72.79Q234,90,240.22,107.57h.48q6.92-19.51,11.44-30.1L282.43,4.68H305V133.35H289.36V71.13q0-21.84,1.35-49.14h-.77q-7.12,19.71-13.47,34.52Z"/><path d="M388.8,68.05l45.67,65.3H416.88L369.37,67.66l-43.28-63h17.22Z"/><path d="M48.18,240.9H36.43V155H4.19v-10.6H80.42V155H48.18Z"/><path d="M107.33,200.94v40H95.57V144.39h25a105.37,105.37,0,0,1,10.77.47,51,51,0,0,1,8.11,1.48q10.08,2.74,15.41,9.34t5.33,16.48a27.62,27.62,0,0,1-1.87,10.46,23.77,23.77,0,0,1-5.27,8,27.53,27.53,0,0,1-8.11,5.56,42.87,42.87,0,0,1-10.49,3.17v.29L163,240.9H151.25l-29.71-40Zm0-45.95v35.35h11.61q5.4,0,9.23-.36a34.33,34.33,0,0,0,6.85-1.3,18.8,18.8,0,0,0,9.45-6q3.32-4.11,3.32-10.75-.07-6.19-3.17-10a17.18,17.18,0,0,0-8.59-5.45,32.45,32.45,0,0,0-6.2-1.15c-2.41-.24-5.46-.37-9.16-.37Z"/><path d="M173.25,240.9l39.31-96.51h10.17L262,240.9H249.27l-11.53-29.07H197.4L185.87,240.9Zm44.28-81.51q-6.45,18-12.33,32.75l-3.61,9.09h32l-3.66-9.08q-5.94-15-12.1-32.76Z"/><path d="M419.12,205.26Q428,218,436.64,231.51h.44q-.94-14.06-.94-28.7V151.45H448V248H436.21l-37.87-53.81q-9.81-14.06-17.52-26.25h-.44q.94,13.2.94,30.8V248H369.57V151.45h11.68Z"/><path d="M484.17,237.35h49.48V248H472.42V151.45H531v10.61H484.17v31.15h41.62v10.61H484.17Z"/><path d="M565.6,208v40H553.85V151.45h25a105.58,105.58,0,0,1,10.78.47,52.06,52.06,0,0,1,8.1,1.48q10.08,2.74,15.42,9.34t5.33,16.48a27.59,27.59,0,0,1-1.88,10.46,23.89,23.89,0,0,1-5.26,8,27.56,27.56,0,0,1-8.12,5.55,42.61,42.61,0,0,1-10.49,3.17v.29L621.28,248H609.53l-29.72-40Zm0-45.94V197.4h11.61q5.41,0,9.24-.36a34.47,34.47,0,0,0,6.85-1.3,18.89,18.89,0,0,0,9.45-6q3.32-4.11,3.31-10.74-.06-6.21-3.17-10a17.19,17.19,0,0,0-8.58-5.45,32.41,32.41,0,0,0-6.21-1.15q-3.6-.36-9.16-.36Z"/><path class="cls-1" d="M381.71,53.51,414,6.19a3.44,3.44,0,0,1,2.86-1.51h8.93a3.45,3.45,0,0,1,2.83,5.44L390.32,64.89Z"/><path class="cls-2" d="M376.44,82.23l-34.12,49.34a4.12,4.12,0,0,1-3.38,1.78H331.2a4.11,4.11,0,0,1-3.36-6.47L367.72,70Z"/><path class="cls-3" d="M289.65,249.12a11.54,11.54,0,0,1-3.84-.63,7.4,7.4,0,0,1-4.42-4,8.09,8.09,0,0,1,.13-6.48q2.49-5.66,5-11.31L292,214.27h-8.28c-2.08,0-4.16,0-6.23,0-4.35,0-7.63-1.87-9.33-5.49-1.19-2.56-1.84-6.5,1.85-10.75q8.24-9.5,16.46-19l29.06-33.63a11.93,11.93,0,0,1,12.95-3.53,7.34,7.34,0,0,1,4.44,4.07,7.91,7.91,0,0,1-.17,6.47c-1.29,2.88-2.63,5.74-4,8.61l-7,15.07h.92c4.72,0,9.44,0,14.16,0H337c5.45,0,8,3,9.16,5.51s1.82,6.49-1.87,10.75q-11.18,12.89-22.33,25.8l-11.78,13.62q-5.71,6.6-11.41,13.21A12.07,12.07,0,0,1,289.65,249.12Zm-.72-42.23h7.34a4.5,4.5,0,0,1,4.18,1.85,4.61,4.61,0,0,1-.05,4.67l-7.2,16.27c-1.67,3.76-3.33,7.51-5,11.28a1,1,0,0,0-.11.54,4.8,4.8,0,0,0,5.14-1.37l11.43-13.23,11.78-13.62,22.33-25.8c1.32-1.53,1-2.21.75-2.76s-.7-1.14-2.59-1.26c-4.74,0-9.48,0-14.24,0h-5.12a4.63,4.63,0,0,1-4.31-1.9c-1.2-1.9-.36-3.71.14-4.8l8.76-18.89c1.33-2.84,2.65-5.68,3.93-8.53a.93.93,0,0,0,.12-.49,4.83,4.83,0,0,0-5.16,1.38L292,183.89q-8.22,9.51-16.47,19c-1.31,1.51-1,2.19-.73,2.74.33.71.79,1.36,2.56,1.25,2.14,0,4.27,0,6.41,0Z"/></g></svg>