<svg xmlns="http://www.w3.org/2000/svg" xmlns:xlink="http://www.w3.org/1999/xlink" viewBox="0 0 251 255"><defs><style>.cls-1{fill:url(#Dégradé_sans_nom_41);}</style><linearGradient id="Dégradé_sans_nom_41" x1="181.93" y1="29.35" x2="95.02" y2="180.55" gradientUnits="userSpaceOnUse"><stop offset="0" stop-color="#db00ff"/><stop offset="0.12" stop-color="#da01fa"/><stop offset="0.26" stop-color="#d804ec"/><stop offset="0.41" stop-color="#d50ad4"/><stop offset="0.56" stop-color="#d111b2"/><stop offset="0.73" stop-color="#cb1b87"/><stop offset="0.9" stop-color="#c42753"/><stop offset="1" stop-color="#bf2f2f"/></linearGradient></defs><g id="Calque_5" data-name="Calque 5"><path class="cls-1" d="M87.53,244.5a25.36,25.36,0,0,1-8.33-1.38,16,16,0,0,1-9.57-8.77,17.37,17.37,0,0,1,.28-14Q75.3,208,80.74,195.79l11.9-26.88h-18c-4.51,0-9-.05-13.52,0-9.42,0-16.55-4-20.22-11.89-2.6-5.55-4-14.11,4-23.33q17.88-20.59,35.71-41.23l63-72.93a25.87,25.87,0,0,1,28.07-7.66,15.93,15.93,0,0,1,9.64,8.84,17.27,17.27,0,0,1-.36,14c-2.82,6.24-5.71,12.46-8.6,18.67L157.27,86.13h2c10.23,0,20.48,0,30.71,0h.27c11.81,0,17.31,6.49,19.86,12s3.94,14.07-4.05,23.3q-24.22,27.94-48.43,55.95l-25.55,29.55q-12.39,14.31-24.75,28.65A26.17,26.17,0,0,1,87.53,244.5ZM86,152.9h15.92c2.27,0,6.5,0,9.08,4s.9,7.84-.11,10.13L95.23,202.32q-5.43,12.23-10.81,24.47a2.14,2.14,0,0,0-.25,1.17,10.44,10.44,0,0,0,11.16-3q12.36-14.37,24.77-28.69l25.56-29.54q24.19-28,48.43-56c2.86-3.31,2.17-4.78,1.62-6s-1.51-2.47-5.62-2.73c-10.28.09-20.57.07-30.87,0l-11.08,0h0c-2.38,0-6.78,0-9.36-4.11S138,90,139.07,87.6l19-41c2.87-6.15,5.73-12.31,8.52-18.5a1.79,1.79,0,0,0,.24-1.05,10.43,10.43,0,0,0-11.17,3L92.62,103q-17.87,20.63-35.73,41.25c-2.84,3.27-2.14,4.76-1.59,5.94.72,1.54,1.72,2.94,5.55,2.72,4.64-.09,9.28-.08,13.91,0Z"/></g></svg>