<svg width="800" height="800" viewBox="0 0 800 800" fill="none" xmlns="http://www.w3.org/2000/svg">
<path d="M768 0H32C14.3 0 0 14.3 0 32V768C0 785.7 14.3 800 32 800H768C785.7 800 800 785.7 800 768V32C800 14.3 785.7 0 768 0ZM675.6 233.5H611.7C561.6 233.5 551.9 257.3 551.9 292.3V349.4C551.9 360.446 560.854 369.4 571.9 369.4H648.749C660.812 369.4 670.13 380 668.584 391.964L658.154 472.664C656.865 482.635 648.373 490.1 638.319 490.1H571.9C560.854 490.1 551.9 499.054 551.9 510.1V780C551.9 791.046 542.946 800 531.9 800H447.2C436.154 800 427.2 791.046 427.2 780V510.2C427.2 499.154 418.246 490.2 407.2 490.2H342.9C331.854 490.2 322.9 481.246 322.9 470.2V389.4C322.9 378.354 331.854 369.4 342.9 369.4H407.2C418.246 369.4 427.2 360.446 427.2 349.4V280.4C427.2 177.1 490.3 120.8 582.5 120.8C613.03 120.8 640.554 122.374 658.317 123.843C668.293 124.667 675.7 133.068 675.7 143.079V233.4C675.7 233.455 675.655 233.5 675.6 233.5Z" fill="url(#paint0_linear_516_27)"/>
<defs>
<linearGradient id="paint0_linear_516_27" x1="147.059" y1="4.69619e-05" x2="1047.06" y2="647.059" gradientUnits="userSpaceOnUse">
<stop stop-color="#BF2F2F"/>
<stop offset="0.0001" stop-color="#BF2F2F"/>
<stop offset="1" stop-color="#DB00FF"/>
</linearGradient>
</defs>
</svg>
