<svg width="808" height="808" viewBox="0 0 808 808" fill="none" xmlns="http://www.w3.org/2000/svg">
<path d="M234.175 0H573.325C702.525 0 807.5 104.975 807.5 234.175V573.325C807.5 635.432 782.828 694.995 738.912 738.912C694.995 782.828 635.432 807.5 573.325 807.5H234.175C104.975 807.5 0 702.525 0 573.325V234.175C0 172.068 24.6719 112.505 68.5883 68.5883C112.505 24.6719 172.068 0 234.175 0ZM226.1 80.75C187.551 80.75 150.58 96.0636 123.322 123.322C96.0636 150.58 80.75 187.551 80.75 226.1V581.4C80.75 661.746 145.754 726.75 226.1 726.75H581.4C619.949 726.75 656.92 711.436 684.178 684.178C711.436 656.92 726.75 619.949 726.75 581.4V226.1C726.75 145.754 661.746 80.75 581.4 80.75H226.1ZM615.719 141.312C629.104 141.312 641.941 146.63 651.406 156.094C660.87 165.559 666.188 178.396 666.188 191.781C666.188 205.166 660.87 218.003 651.406 227.468C641.941 236.933 629.104 242.25 615.719 242.25C602.334 242.25 589.497 236.933 580.032 227.468C570.567 218.003 565.25 205.166 565.25 191.781C565.25 178.396 570.567 165.559 580.032 156.094C589.497 146.63 602.334 141.312 615.719 141.312ZM403.75 201.875C457.291 201.875 508.638 223.144 546.497 261.003C584.356 298.862 605.625 350.209 605.625 403.75C605.625 457.291 584.356 508.638 546.497 546.497C508.638 584.356 457.291 605.625 403.75 605.625C350.209 605.625 298.862 584.356 261.003 546.497C223.144 508.638 201.875 457.291 201.875 403.75C201.875 350.209 223.144 298.862 261.003 261.003C298.862 223.144 350.209 201.875 403.75 201.875ZM403.75 282.625C371.626 282.625 340.817 295.386 318.102 318.102C295.386 340.817 282.625 371.626 282.625 403.75C282.625 435.874 295.386 466.683 318.102 489.398C340.817 512.114 371.626 524.875 403.75 524.875C435.874 524.875 466.683 512.114 489.398 489.398C512.114 466.683 524.875 435.874 524.875 403.75C524.875 371.626 512.114 340.817 489.398 318.102C466.683 295.386 435.874 282.625 403.75 282.625Z" fill="url(#paint0_linear_516_25)"/>
<defs>
<linearGradient id="paint0_linear_516_25" x1="148.437" y1="4.74021e-05" x2="1056.88" y2="653.125" gradientUnits="userSpaceOnUse">
<stop stop-color="#BF2F2F"/>
<stop offset="0.0001" stop-color="#BF2F2F"/>
<stop offset="1" stop-color="#DB00FF"/>
</linearGradient>
</defs>
</svg>
