<svg width="550" height="589" viewBox="0 0 550 589" fill="none" xmlns="http://www.w3.org/2000/svg">
<path d="M405.653 384.292C475.391 346.001 528.258 316.824 532.814 314.555C547.392 306.804 562.446 286.287 532.814 270.35C523.247 265.338 471.739 237.069 405.653 200.613L314.039 293.134L405.653 384.29V384.292Z" fill="#FFD900"/>
<path d="M314.039 293.135L22.3301 587.126C29.1771 588.033 36.9072 586.218 46.0209 581.208C65.1549 570.734 267.993 459.966 405.652 384.314L314.039 293.135Z" fill="#F43249"/>
<path d="M314.039 293.134L405.652 201.069C405.652 201.069 66.5387 16.0052 46.0211 5.08065C38.291 0.502441 29.6285 -0.857488 21.877 0.502441L314.039 293.134Z" fill="#00EE76"/>
<path d="M314.039 293.134L21.8775 0.501953C10.0203 3.2433 0 13.7188 0 35.1426V552.485C0 572.093 7.75371 586.217 22.3309 587.579L314.039 293.134Z" fill="#00D3FF"/>
</svg>
