<svg width="550" height="550" viewBox="0 0 550 550" fill="none" xmlns="http://www.w3.org/2000/svg">
<g clip-path="url(#clip0_516_30)">
<path d="M120.45 0H429.55C496.074 0 550 53.8966 550 120.385V429.317C550 495.806 496.074 549.702 429.55 549.702H120.45C53.9258 549.702 0 495.806 0 429.317V120.385C0 53.8966 53.9258 0 120.45 0Z" fill="url(#paint0_linear_516_30)"/>
<path d="M176.262 398.985L176.313 399.002L157.508 431.555C150.644 443.438 135.441 447.509 123.552 440.648C111.665 433.788 107.589 418.594 114.453 406.711L128.306 382.73L129.636 380.428C132.01 377.018 137.869 371.13 149.589 372.238C149.589 372.238 177.168 375.229 179.164 389.556C179.164 389.556 179.435 394.269 176.262 398.985ZM442.975 315.842H384.336C380.342 315.574 378.599 314.148 377.912 313.319L377.869 313.244L315.098 204.579L315.016 204.633L311.252 199.239C305.082 189.808 295.285 213.926 295.285 213.926C283.587 240.801 296.946 271.355 301.602 280.59L388.789 431.522C395.652 443.403 410.854 447.477 422.745 440.614C434.633 433.753 438.708 418.559 431.842 406.676L410.042 368.936C409.619 368.021 408.884 365.539 413.355 365.528H442.975C456.704 365.528 467.833 354.405 467.833 340.684C467.833 326.963 456.704 315.842 442.975 315.842ZM329.078 349.615C329.078 349.615 332.208 365.528 320.097 365.528H103.322C89.5937 365.528 78.4648 354.405 78.4648 340.684C78.4648 326.963 89.5937 315.84 103.322 315.84H159.053C168.05 315.32 170.182 310.128 170.182 310.128L170.233 310.154L242.979 184.221L242.958 184.216C244.283 181.784 243.179 179.484 242.988 179.121L218.962 137.53C212.098 125.65 216.171 110.453 228.061 103.595C239.95 96.7344 255.152 100.803 262.017 112.686L273.158 131.975L284.281 112.721C291.145 100.84 306.347 96.7666 318.237 103.629C330.126 110.49 334.2 125.682 327.336 137.565L226.105 312.804C225.663 313.871 225.528 315.546 228.821 315.84H289.33L289.343 316.431C289.343 316.431 324.315 316.974 329.078 349.615Z" fill="white"/>
</g>
<defs>
<linearGradient id="paint0_linear_516_30" x1="27500" y1="0" x2="27500" y2="54970.2" gradientUnits="userSpaceOnUse">
<stop stop-color="#17C9FB"/>
<stop offset="1" stop-color="#1A74E8"/>
</linearGradient>
<clipPath id="clip0_516_30">
<rect width="550" height="549.702" fill="white"/>
</clipPath>
</defs>
</svg>
