<svg xmlns="http://www.w3.org/2000/svg" xmlns:xlink="http://www.w3.org/1999/xlink" viewBox="0 0 532 185"><defs><style>.cls-1{fill:url(#Dégradé_sans_nom_41);}.cls-2{fill:url(#Dégradé_sans_nom_6);}.cls-3{fill:url(#Dégradé_sans_nom_6-2);}</style><linearGradient id="Dégradé_sans_nom_41" x1="508.12" y1="14.82" x2="439.32" y2="134.53" gradientUnits="userSpaceOnUse"><stop offset="0" stop-color="#db00ff"/><stop offset="0.12" stop-color="#da01fa"/><stop offset="0.26" stop-color="#d804ec"/><stop offset="0.41" stop-color="#d50ad4"/><stop offset="0.56" stop-color="#d111b2"/><stop offset="0.73" stop-color="#cb1b87"/><stop offset="0.9" stop-color="#c42753"/><stop offset="1" stop-color="#bf2f2f"/></linearGradient><linearGradient id="Dégradé_sans_nom_6" x1="348.22" y1="12.59" x2="309.94" y2="70.22" gradientUnits="userSpaceOnUse"><stop offset="0" stop-color="#bf2f2f"/><stop offset="1" stop-color="#db00ff"/></linearGradient><linearGradient id="Dégradé_sans_nom_6-2" x1="237.08" y1="171.16" x2="277.14" y2="106" xlink:href="#Dégradé_sans_nom_6"/></defs><g id="Calque_9" data-name="Calque 9"><path class="cls-1" d="M433.38,185.16a20,20,0,0,1-6.59-1.1,12.62,12.62,0,0,1-7.58-6.93,13.82,13.82,0,0,1,.22-11.12q4.27-9.72,8.58-19.42l9.42-21.28H423.22c-3.57,0-7.14,0-10.7,0-7.46,0-13.1-3.2-16-9.42-2.05-4.39-3.17-11.16,3.17-18.47Q413.84,81.16,428,64.81l49.9-57.73A20.49,20.49,0,0,1,500.08,1a12.62,12.62,0,0,1,7.63,7,13.66,13.66,0,0,1-.29,11.1c-2.23,4.95-4.52,9.87-6.81,14.79l-12,25.88h1.57c8.1,0,16.21,0,24.31,0h.21c9.36,0,13.71,5.14,15.73,9.46s3.12,11.14-3.21,18.45Q508,109.78,488.87,132l-20.23,23.39q-9.79,11.34-19.59,22.69A20.73,20.73,0,0,1,433.38,185.16Zm-1.23-72.52h12.6c1.79,0,5.15,0,7.19,3.17s.71,6.2-.09,8l-12.37,27.93q-4.29,9.69-8.56,19.38a1.67,1.67,0,0,0-.19.92,8.25,8.25,0,0,0,8.83-2.34q9.79-11.37,19.62-22.71l20.23-23.39q19.15-22.17,38.34-44.31c2.27-2.62,1.72-3.79,1.29-4.74s-1.2-1.95-4.45-2.16c-8.14.07-16.29,0-24.45,0h-8.79c-1.88,0-5.36,0-7.41-3.26s-.61-6.38.25-8.24l15.05-32.43c2.27-4.87,4.54-9.75,6.74-14.65a1.49,1.49,0,0,0,.19-.84,8.31,8.31,0,0,0-8.85,2.37L437.41,73.14q-14.13,16.35-28.28,32.67c-2.25,2.58-1.7,3.76-1.26,4.7.57,1.22,1.36,2.33,4.4,2.16,3.67-.08,7.34-.07,11,0Z"/><path d="M98.76,185.16H88.38L41.71,74.53Q32,51.68,22.33,24.82H21.22q2,38.64,1.94,70.76v89.58H.59V-.1H33.13L76.75,104.71q7.47,18,16.47,43.34h.69q10-28.11,16.48-43.34L154-.1h32.53V185.16H164V95.58q0-31.44,1.94-70.76h-1.1q-10.26,28.4-19.39,49.71Z"/><path d="M307.14,91.14l65.77,94H347.57l-68.4-94.57L216.87-.1h24.78Z"/><path class="cls-2" d="M296.94,70.21,343.07,2.64A6.26,6.26,0,0,1,348.25-.1H358a6.27,6.27,0,0,1,5.14,9.87L309.34,86.59Z"/><path class="cls-3" d="M289.35,111.56l-50.88,73.6H212.85L276.8,94Z"/></g></svg>