<svg width="550" height="643" viewBox="0 0 550 643" fill="none" xmlns="http://www.w3.org/2000/svg">
<path d="M488.889 458.954V299.85C473.611 302.91 458.333 305.969 443.056 305.969H427.778V489.551H122.222V275.372C122.222 189.701 189.444 122.388 275 122.388C278.056 82.6117 296.389 48.9551 320.833 21.4179C311.667 9.17908 293.333 0 275 0C241.389 0 213.889 27.5372 213.889 61.1939V70.3729C122.222 97.9102 61.1111 180.522 61.1111 275.372V458.954L0 520.148V550.745H550V520.148L488.889 458.954ZM213.889 581.342C213.889 614.998 241.389 642.536 275 642.536C308.611 642.536 336.111 614.998 336.111 581.342H213.889ZM550 137.686C550 195.82 501.111 244.775 443.056 244.775C385 244.775 336.111 195.82 336.111 137.686C336.111 79.552 385 30.5969 443.056 30.5969C501.111 30.5969 550 79.552 550 137.686Z" fill="url(#paint0_linear_785_228)"/>
<defs>
<linearGradient id="paint0_linear_785_228" x1="101.103" y1="3.77183e-05" x2="781.857" y2="418.945" gradientUnits="userSpaceOnUse">
<stop stop-color="#BF2F2F"/>
<stop offset="0.0001" stop-color="#BF2F2F"/>
<stop offset="1" stop-color="#DB00FF"/>
</linearGradient>
</defs>
</svg>
