<svg width="550" height="404" viewBox="0 0 550 404" fill="none" xmlns="http://www.w3.org/2000/svg">
<path d="M442.573 249.346C454.438 249.346 464.063 258.971 464.063 270.836V296.627C464.063 308.491 454.438 318.116 442.573 318.116H393.152C381.288 318.116 371.663 308.491 371.663 296.627V270.855C371.663 258.991 381.288 249.366 393.152 249.366L442.573 249.346ZM507.021 210.67V146.221H42.9786V317.959C42.989 329.354 47.5204 340.28 55.5782 348.338C63.636 356.396 74.5617 360.927 85.9571 360.937H464.082C475.478 360.927 486.403 356.396 494.461 348.338C502.519 340.28 507.05 329.354 507.061 317.959C507.061 306.095 516.686 296.47 528.55 296.47C540.414 296.47 550 306.095 550 317.959C549.974 340.743 540.912 362.586 524.801 378.697C508.69 394.808 486.847 403.87 464.063 403.896H85.9375C63.1534 403.87 41.31 394.808 25.1992 378.697C9.08845 362.586 0.0259944 340.743 0 317.959L0 85.9375C0.0259944 63.1534 9.08845 41.31 25.1992 25.1992C41.31 9.08845 63.1534 0.0259944 85.9375 0H464.063C486.847 0.0259944 508.69 9.08845 524.801 25.1992C540.912 41.31 549.974 63.1534 550 85.9375V210.67C550 222.534 540.375 232.159 528.511 232.159C516.646 232.159 507.021 222.534 507.021 210.67ZM507.021 103.243V85.9179C507.006 74.5292 502.475 63.6115 494.422 55.5585C486.369 47.5055 475.451 42.9745 464.063 42.9589H85.9375C74.5455 42.9745 63.6248 47.5083 55.5712 55.5655C47.5177 63.6227 42.989 74.5455 42.9786 85.9375V103.262H507.041L507.021 103.243ZM107.427 189.18C95.5625 189.18 85.9375 198.805 85.9375 210.67C85.9375 222.534 95.5625 232.159 107.427 232.159H284.664C296.529 232.159 306.154 222.534 306.154 210.67C306.154 198.805 296.529 189.18 284.664 189.18H107.427Z" fill="url(#paint0_linear_785_231)"/>
<defs>
<linearGradient id="paint0_linear_785_231" x1="101.103" y1="2.37097e-05" x2="580.339" y2="469.184" gradientUnits="userSpaceOnUse">
<stop stop-color="#BF2F2F"/>
<stop offset="0.0001" stop-color="#BF2F2F"/>
<stop offset="1" stop-color="#DB00FF"/>
</linearGradient>
</defs>
</svg>
