<svg id="Calque_1" data-name="Calque 1" xmlns="http://www.w3.org/2000/svg" xmlns:xlink="http://www.w3.org/1999/xlink" viewBox="0 0 819 472"><defs><style>.cls-1{fill:#b8c3c4;}.cls-2{fill:#f2f2f2;}.cls-3{fill:#ced7d8;}.cls-4{fill:url(#Dégradé_sans_nom_32);}.cls-5{fill:#333;}.cls-6{fill:#fff;}.cls-7{fill:#4d4d4d;}.cls-8{fill:#004e7a;}.cls-9{fill:#0071bc;}.cls-10{fill:#1a1a1a;}.cls-11{fill:#00a99d;}</style><linearGradient id="Dégradé_sans_nom_32" x1="136.46" y1="287.87" x2="682.54" y2="287.87" gradientUnits="userSpaceOnUse"><stop offset="0.27" stop-color="#bf2f2f"/><stop offset="0.36" stop-color="#c42751"/><stop offset="0.52" stop-color="#cc1a8d"/><stop offset="0.68" stop-color="#d20fbd"/><stop offset="0.82" stop-color="#d707df"/><stop offset="0.93" stop-color="#da03f4"/><stop offset="1" stop-color="#db01fc"/></linearGradient></defs><rect class="cls-1" x="166.14" y="65.36" width="101.58" height="14.31"/><rect class="cls-2" x="163.49" y="60.64" width="106.86" height="8.24"/><polygon class="cls-2" points="239.35 46.6 194.5 46.6 163.49 60.64 270.36 60.64 239.35 46.6"/><polygon class="cls-1" points="224.2 40.95 209.65 40.95 199.58 46.6 234.26 46.6 224.2 40.95"/><path class="cls-3" d="M227.42,46.6s-4.52,12-17.42,14h28.5s1.49,8.24-35.44,8.24h67.3V60.64l-31-14Z"/><rect class="cls-3" x="168.71" y="61.72" width="0.88" height="6.07"/><rect class="cls-3" x="174.68" y="61.72" width="0.88" height="6.07"/><rect class="cls-3" x="180.65" y="61.72" width="0.88" height="6.07"/><rect class="cls-3" x="186.62" y="61.72" width="0.88" height="6.07"/><rect class="cls-3" x="192.6" y="61.72" width="0.88" height="6.07"/><rect class="cls-3" x="198.57" y="61.72" width="0.88" height="6.07"/><rect class="cls-3" x="204.54" y="61.72" width="0.88" height="6.07"/><rect class="cls-3" x="210.51" y="61.72" width="0.88" height="6.07"/><rect class="cls-3" x="216.48" y="61.72" width="0.88" height="6.07"/><rect class="cls-3" x="222.46" y="61.72" width="0.88" height="6.07"/><rect class="cls-3" x="228.43" y="61.72" width="0.88" height="6.07"/><rect class="cls-3" x="234.4" y="61.72" width="0.88" height="6.07"/><rect class="cls-1" x="240.37" y="61.72" width="0.88" height="6.07"/><rect class="cls-1" x="246.34" y="61.72" width="0.88" height="6.07"/><rect class="cls-1" x="252.32" y="61.72" width="0.88" height="6.07"/><rect class="cls-1" x="258.29" y="61.72" width="0.88" height="6.07"/><rect class="cls-1" x="264.26" y="61.72" width="0.88" height="6.07"/><rect class="cls-3" x="561.76" y="49.34" width="77.34" height="26.58"/><rect class="cls-2" x="561.76" y="49.34" width="77.34" height="15.94"/><rect class="cls-3" x="563.27" y="51.85" width="1.62" height="13.44"/><rect class="cls-3" x="568.12" y="51.85" width="1.62" height="13.44"/><rect class="cls-3" x="572.97" y="51.85" width="1.62" height="13.44"/><rect class="cls-3" x="577.81" y="51.85" width="1.62" height="13.44"/><rect class="cls-3" x="582.66" y="51.85" width="1.62" height="13.44"/><rect class="cls-3" x="587.51" y="51.85" width="1.62" height="13.44"/><rect class="cls-3" x="592.35" y="51.85" width="1.62" height="13.44"/><rect class="cls-3" x="597.2" y="51.85" width="1.62" height="13.44"/><rect class="cls-3" x="602.05" y="51.85" width="1.62" height="13.44"/><rect class="cls-3" x="606.89" y="51.85" width="1.62" height="13.44"/><rect class="cls-3" x="611.74" y="51.85" width="1.62" height="13.44"/><rect class="cls-3" x="616.58" y="51.85" width="1.62" height="13.44"/><rect class="cls-3" x="621.43" y="51.85" width="1.62" height="13.44"/><rect class="cls-3" x="626.28" y="51.85" width="1.62" height="13.44"/><rect class="cls-3" x="631.12" y="51.85" width="1.62" height="13.44"/><rect class="cls-3" x="635.97" y="51.85" width="1.62" height="13.44"/><polygon class="cls-1" points="561.76 65.28 561.76 67.21 639.11 71.88 639.11 65.28 561.76 65.28"/><rect class="cls-3" x="276.82" y="54.88" width="29.53" height="18.67"/><polygon class="cls-1" points="276.82 67.88 306.35 70.28 306.35 64.22 276.82 64.22 276.82 67.88"/><rect class="cls-2" x="273.46" y="54.88" width="36.25" height="11.2"/><rect class="cls-3" x="274.09" y="56.64" width="0.93" height="9.44"/><rect class="cls-3" x="276.36" y="56.64" width="0.93" height="9.44"/><rect class="cls-3" x="278.63" y="56.64" width="0.93" height="9.44"/><rect class="cls-3" x="280.9" y="56.64" width="0.93" height="9.44"/><rect class="cls-3" x="283.17" y="56.64" width="0.93" height="9.44"/><rect class="cls-3" x="285.44" y="56.64" width="0.93" height="9.44"/><rect class="cls-3" x="287.72" y="56.64" width="0.93" height="9.44"/><rect class="cls-3" x="289.99" y="56.64" width="0.93" height="9.44"/><rect class="cls-3" x="292.26" y="56.64" width="0.93" height="9.44"/><rect class="cls-3" x="294.53" y="56.64" width="0.93" height="9.44"/><rect class="cls-3" x="296.8" y="56.64" width="0.93" height="9.44"/><rect class="cls-3" x="299.07" y="56.64" width="0.93" height="9.44"/><rect class="cls-3" x="301.34" y="56.64" width="0.93" height="9.44"/><rect class="cls-3" x="303.62" y="56.64" width="0.93" height="9.44"/><rect class="cls-3" x="305.89" y="56.64" width="0.93" height="9.44"/><rect class="cls-3" x="308.16" y="56.64" width="0.93" height="9.44"/><rect class="cls-4" x="136.46" y="173.62" width="546.08" height="228.5"/><path class="cls-5" d="M199.09,244h0Z"/><path class="cls-5" d="M376.55,383.88H163.19v-192h43.22a10.65,10.65,0,0,1,10.64,10.64v10.27a15.86,15.86,0,0,0,10.37,15,14.15,14.15,0,0,0,3.93.8,15.28,15.28,0,0,0,16.29-15.26V202.52a10.65,10.65,0,0,1,10.65-10.64h87.57a8.51,8.51,0,0,1,7.42,12.66,133.35,133.35,0,0,0,28.88,164.25A8.59,8.59,0,0,1,376.55,383.88Z"/><path class="cls-5" d="M682.54,191.88v192H563.78a8.59,8.59,0,0,1-5.62-15.09,133.33,133.33,0,0,0,28.89-164.25,8.51,8.51,0,0,1,7.42-12.66Z"/><path class="cls-2" d="M682.54,92.89v80.73H136.46V92.89A21.53,21.53,0,0,1,158,71.36H661A21.53,21.53,0,0,1,682.54,92.89Z"/><rect class="cls-2" x="136.46" y="402.12" width="546.09" height="17.35"/><path class="cls-3" d="M189.92,71.36V173.62H136.46V92.89A21.53,21.53,0,0,1,158,71.36Z"/><rect class="cls-3" x="136.46" y="402.12" width="53.46" height="17.35"/><rect class="cls-6" x="163.19" y="71.36" width="64.23" height="102.26"/><path class="cls-7" d="M227.42,227.76V383.88H163.19v-192h43.22a10.65,10.65,0,0,1,10.64,10.64v10.27A15.86,15.86,0,0,0,227.42,227.76Z"/><rect class="cls-6" x="163.19" y="402.12" width="64.23" height="17.35"/><rect class="cls-2" x="148.63" y="419.47" width="521.75" height="11.59"/><circle class="cls-3" cx="470.17" cy="268.67" r="120.64" transform="translate(-52.27 411.15) rotate(-45)"/><circle class="cls-2" cx="470.17" cy="268.67" r="115.2"/><circle class="cls-7" cx="230.87" cy="300.41" r="26.18" transform="translate(-113.83 457.64) rotate(-76.98)"/><circle class="cls-3" cx="393.8" cy="133.57" r="23.69" transform="translate(174.78 487.04) rotate(-76.95)"/><circle class="cls-6" cx="389.29" cy="124.96" r="23.69" transform="translate(195.81 485.13) rotate(-79.55)"/><circle cx="235.16" cy="307.02" r="24.85" transform="translate(-148.22 256.2) rotate(-45)"/><rect x="522.48" y="101.26" width="56.82" height="34.01"/><path class="cls-2" d="M259.22,375.68l-8.69-68.08a15.38,15.38,0,1,0-28.65,7.74L239,378.18a10.29,10.29,0,1,0,20.25-2.5Z"/><circle class="cls-7" cx="470.17" cy="268.67" r="109.13"/><path class="cls-5" d="M571.29,268.66a101.13,101.13,0,1,1-147.3-90H424a100.74,100.74,0,0,1,46.13-11.11l2.53,0A101.11,101.11,0,0,1,571.29,268.66Z"/><path d="M547,334.38a101.13,101.13,0,1,1-123-155.7H424s40.4,22.8,15.36,71.48c-19.43,37.77,43.94,51.91,43.94,51.91s-4.15,65.39,62.61,32.83Z"/><path class="cls-7" d="M571.29,268.66c-35.29-53.07-68-13.86-68-13.86-47.68,23.92-33.12-22-33.12-22-9.93-21.65-5.57-45.34,2.53-65.18A101.11,101.11,0,0,1,571.29,268.66Z"/><path class="cls-5" d="M528.88,268.66a58.73,58.73,0,1,1-15.67-39.92A58.63,58.63,0,0,1,528.88,268.66Z"/><path d="M513.21,228.74C483.86,219.11,471,244,471,244l-13.07,7.1c7.07-28.84-28.73-24.48-40.41-8.43a58.73,58.73,0,0,1,95.72-13.95Z"/><path class="cls-7" d="M525.47,288.44a58.76,58.76,0,0,1-71,36.82c32.93-9.35,20.56-46.38,20.56-46.38l6.26-19.53S503.65,295.44,525.47,288.44Z"/><path d="M509.34,268.66a39.17,39.17,0,0,1-39.18,39.17c-.62,0-1.22,0-1.82-.05a39.15,39.15,0,1,1,41-39.12Z"/><path class="cls-8" d="M506.08,268.66a35.92,35.92,0,0,1-35.91,35.92c-.57,0-1.12,0-1.68-.05a35.9,35.9,0,1,1,35.23-48.66A35.48,35.48,0,0,1,506.08,268.66Z"/><path d="M470.17,316.75a48.08,48.08,0,1,1,48.08-48.08A48.13,48.13,0,0,1,470.17,316.75Zm0-94.44a46.36,46.36,0,1,0,46.36,46.36A46.41,46.41,0,0,0,470.17,222.31Z"/><path class="cls-9" d="M506.08,268.66a35.92,35.92,0,0,1-35.91,35.92c-.57,0-1.12,0-1.68-.05a32.34,32.34,0,1,1,35.23-48.66A35.48,35.48,0,0,1,506.08,268.66Z"/><path class="cls-2" d="M484.39,252a33.27,33.27,0,0,1,4.55,11.21,3.09,3.09,0,0,0,3,2.41h5.16a3.07,3.07,0,0,0,3-3.93c-1.32-4.42-4.53-11.37-12-14.28A3.08,3.08,0,0,0,484.39,252Z"/><path class="cls-2" d="M492.17,268.65H497a3.07,3.07,0,0,1,3,4,17.72,17.72,0,0,1-3.77,7,3,3,0,0,1-2.17.88h-4a3.07,3.07,0,0,1-2.74-4.5,19.1,19.1,0,0,0,1.87-4.88A3.11,3.11,0,0,1,492.17,268.65Z"/><path class="cls-3" d="M629,71.36V173.62h53.46V92.89a21.53,21.53,0,0,0-21.53-21.53Z"/><rect class="cls-3" x="628.99" y="402.12" width="53.46" height="17.35"/><rect class="cls-6" x="622.49" y="71.36" width="33.23" height="102.26"/><rect class="cls-7" x="622.49" y="191.87" width="33.23" height="192"/><rect class="cls-6" x="622.49" y="402.12" width="33.23" height="17.35"/><rect class="cls-10" x="655.72" y="191.88" width="26.73" height="192"/><circle class="cls-3" cx="224.2" cy="151.82" r="15.37" transform="translate(25.42 335.68) rotate(-76.87)"/><circle class="cls-6" cx="222.06" cy="148.65" r="15.37"/><circle class="cls-2" cx="222.06" cy="148.65" r="12.2"/><circle class="cls-7" cx="222.06" cy="148.65" r="7.82" transform="translate(-40.07 200.56) rotate(-45)"/><path d="M224.84,148.65a2.78,2.78,0,1,1-2.78-2.77A2.77,2.77,0,0,1,224.84,148.65Z"/><circle class="cls-11" cx="539.37" cy="122.49" r="7.66"/><circle class="cls-2" cx="389.29" cy="124.96" r="15.84" transform="translate(179.2 475.7) rotate(-76.88)"/><circle cx="389.29" cy="124.96" r="11.67" transform="translate(195.68 485.06) rotate(-79.53)"/><circle class="cls-2" cx="232.35" cy="211.76" r="10.29" transform="translate(-81.68 226.32) rotate(-45)"/><circle class="cls-3" cx="233.84" cy="213.83" r="5.5"/><circle class="cls-6" cx="232.17" cy="211.52" r="5.5"/><circle class="cls-2" cx="267.19" cy="215.85" r="5.25" transform="translate(-4.08 426.55) rotate(-76.77)"/><path class="cls-3" d="M270.75,216.91a2.81,2.81,0,1,1-2.8-2.81A2.8,2.8,0,0,1,270.75,216.91Z"/><circle class="cls-6" cx="267.1" cy="215.73" r="2.81"/><circle class="cls-2" cx="267.19" cy="359.9" r="5.25"/><path class="cls-3" d="M270.75,361a2.81,2.81,0,1,1-2.8-2.8A2.8,2.8,0,0,1,270.75,361Z"/><path class="cls-6" d="M269.9,359.77a2.81,2.81,0,1,1-2.8-2.81A2.8,2.8,0,0,1,269.9,359.77Z"/><circle class="cls-2" cx="606.65" cy="215.85" r="5.25" transform="translate(25.05 492.19) rotate(-45)"/><path class="cls-3" d="M610.22,216.91a2.81,2.81,0,1,1-2.81-2.81A2.8,2.8,0,0,1,610.22,216.91Z"/><circle class="cls-6" cx="606.56" cy="215.73" r="2.81"/><circle class="cls-3" cx="507.5" cy="128.43" r="7.85" transform="translate(28.9 340.55) rotate(-38.1)"/><circle class="cls-2" cx="506.36" cy="126.85" r="7.85"/><circle class="cls-3" cx="507.5" cy="128.43" r="4.19"/><path class="cls-6" d="M510.42,126.66a4.2,4.2,0,1,1-4.19-4.19A4.2,4.2,0,0,1,510.42,126.66Z"/><circle class="cls-3" cx="195.87" cy="161.64" r="7.85" transform="translate(-1.56 321.37) rotate(-78.51)"/><circle class="cls-2" cx="194.73" cy="160.06" r="7.85"/><circle class="cls-3" cx="195.87" cy="161.64" r="4.19"/><circle class="cls-6" cx="194.6" cy="159.88" r="4.19"/><circle class="cls-3" cx="236.75" cy="310.16" r="12.39" transform="translate(-99.61 112.39) rotate(-22.19)"/><circle class="cls-2" cx="234.96" cy="307.66" r="12.39"/><circle class="cls-3" cx="236.75" cy="310.16" r="6.62" transform="translate(-100.1 113.24) rotate(-22.33)"/><circle class="cls-6" cx="234.74" cy="307.37" r="6.62"/><circle class="cls-3" cx="250.28" cy="378.79" r="7.79"/><circle class="cls-2" cx="249.15" cy="377.22" r="7.79"/><path class="cls-3" d="M254.44,378.79a4.16,4.16,0,1,1-4.16-4.16A4.16,4.16,0,0,1,254.44,378.79Z"/><circle class="cls-6" cx="249.01" cy="377.04" r="4.16" transform="translate(-144.15 154.36) rotate(-27.03)"/><circle class="cls-3" cx="607.22" cy="160.33" r="7.85"/><circle class="cls-2" cx="606.08" cy="158.75" r="7.85" transform="translate(312.33 712.14) rotate(-76.72)"/><circle class="cls-3" cx="607.22" cy="160.33" r="4.19"/><circle class="cls-6" cx="605.95" cy="158.56" r="4.19"/><circle class="cls-2" cx="606.65" cy="359.9" r="5.25"/><path class="cls-3" d="M610.22,361a2.81,2.81,0,1,1-2.81-2.8A2.81,2.81,0,0,1,610.22,361Z"/><path class="cls-6" d="M609.37,359.77a2.81,2.81,0,1,1-2.81-2.81A2.81,2.81,0,0,1,609.37,359.77Z"/><polygon class="cls-3" points="148.63 419.47 670.38 428.14 670.38 419.47 148.63 419.47"/><rect class="cls-3" x="148.63" y="419.47" width="31.94" height="11.59"/><rect class="cls-6" x="172.58" y="419.47" width="64.23" height="11.58"/><rect class="cls-3" x="616.71" y="419.47" width="53.46" height="11.58"/><rect class="cls-6" x="610.22" y="419.46" width="33.23" height="11.58"/><circle class="cls-5" cx="389.29" cy="124.96" r="9.88" transform="translate(178.84 475.48) rotate(-76.82)"/><path d="M392.71,125a3.43,3.43,0,1,1-3.42-3.43A3.42,3.42,0,0,1,392.71,125Z"/><rect x="378.4" y="124.12" width="21.8" height="1.76"/><path class="cls-3" d="M460.84,200.86l-7.93,1.55-.23-1.18,2.55-3.81a25.44,25.44,0,0,0,1.51-2.47,5.84,5.84,0,0,0,.45-1.36,3.51,3.51,0,0,0,0-1.33,2,2,0,0,0-.88-1.41,2.33,2.33,0,0,0-1.74-.25,4.35,4.35,0,0,0-1.38.53,6,6,0,0,0-1.32,1.19l-.91-.79a5.7,5.7,0,0,1,3.36-2.1,4,4,0,0,1,2.84.35,3,3,0,0,1,1.42,2.15,4.54,4.54,0,0,1-.2,2.4,14.82,14.82,0,0,1-1.85,3.31l-2.14,3.1,0,.06,6.2-1.21Z"/><path class="cls-3" d="M464.17,198.57l.15.18a20.37,20.37,0,0,1-.44,2c-.2.77-.42,1.48-.65,2.15l-1,.1c.09-.59.18-1.33.28-2.2s.16-1.57.18-2.09Z"/><path class="cls-3" d="M470.28,187.84a4.15,4.15,0,0,1,2.66.79,2.6,2.6,0,0,1,1,2.16,2.67,2.67,0,0,1-.57,1.66,5,5,0,0,1-1.8,1.36,6.14,6.14,0,0,1,2.13,1.5,2.84,2.84,0,0,1,.63,1.82,3,3,0,0,1-1.07,2.44,4.38,4.38,0,0,1-2.93.92,4.79,4.79,0,0,1-3-.87,3,3,0,0,1-1.06-2.45c0-1.4.86-2.5,2.58-3.28a4.84,4.84,0,0,1-1.67-1.42,3.05,3.05,0,0,1-.5-1.7,2.61,2.61,0,0,1,1-2.14A4.16,4.16,0,0,1,470.28,187.84Zm-2.67,9.37a1.89,1.89,0,0,0,.7,1.57,3.07,3.07,0,0,0,2,.57,3,3,0,0,0,1.95-.59,2,2,0,0,0,.7-1.61,2,2,0,0,0-.66-1.45,6.66,6.66,0,0,0-2.28-1.24,5,5,0,0,0-1.82,1.19A2.27,2.27,0,0,0,467.61,197.21Zm2.65-8.23a2.52,2.52,0,0,0-1.65.5,1.68,1.68,0,0,0-.6,1.35,2,2,0,0,0,.5,1.33,5.17,5.17,0,0,0,1.83,1.11,4.71,4.71,0,0,0,1.71-1.09,2,2,0,0,0,.5-1.35,1.66,1.66,0,0,0-.61-1.35A2.61,2.61,0,0,0,470.26,189Z"/><path class="cls-3" d="M482.38,188.89l-6,11.69-1.39-.16,6-11.69Z"/><path class="cls-3" d="M487.07,194.71a4.58,4.58,0,0,1,2.76,1.63,3.31,3.31,0,0,1,.49,2.82,3.86,3.86,0,0,1-1.86,2.65,4.83,4.83,0,0,1-3.51.29,6.11,6.11,0,0,1-2.94-1.36l.3-1.31a5.21,5.21,0,0,0,1.3.91,6.65,6.65,0,0,0,1.63.59,3.38,3.38,0,0,0,2.39-.15,2.52,2.52,0,0,0,1.26-1.78c.39-1.67-.44-2.75-2.49-3.22a11.32,11.32,0,0,0-2.14-.25l-.59-.62,1.75-5.49,5.95,1.38-.29,1.25-4.79-1.11-1.14,3.53A10.08,10.08,0,0,1,487.07,194.71Z"/><path class="cls-3" d="M498.35,206.28l-7.55-2.89.43-1.13,4.19-1.88a26.1,26.1,0,0,0,2.59-1.29,5.73,5.73,0,0,0,1.1-.91,3.5,3.5,0,0,0,.69-1.13,2,2,0,0,0,0-1.67,2.28,2.28,0,0,0-1.34-1.14A4.28,4.28,0,0,0,497,194a5.83,5.83,0,0,0-1.76.31l-.35-1.15a5.65,5.65,0,0,1,4,0,4,4,0,0,1,2.21,1.8,3.08,3.08,0,0,1,.07,2.58,4.65,4.65,0,0,1-1.44,1.93,15.11,15.11,0,0,1-3.33,1.82l-3.46,1.49,0,.06,5.9,2.27Z"/><path class="cls-3" d="M538.45,274.55l0-1.63,10.42-6.56v-.07c-1.21.07-2.32.1-3.33.08l-7-.1,0-1.32,12.3.18,0,1.62-10.37,6.54v.07l1.46-.05c.83,0,1.41,0,1.77,0l7,.11,0,1.34Z"/><path class="cls-3" d="M542,277.13l1.27.18-.61,4.09-1.26-.19Z"/><path class="cls-3" d="M542.41,283.35a8.69,8.69,0,0,1,4.89,2.73,5,5,0,0,1,.69,4.48,5.74,5.74,0,0,1-.53,1.41l-1.17-.3a4.7,4.7,0,0,0,.58-1.38,3.73,3.73,0,0,0-.43-3.23A6.32,6.32,0,0,0,543,285l0,.1a3.24,3.24,0,0,1,.67,3.2,3.46,3.46,0,0,1-1.63,2.27,3.76,3.76,0,0,1-2.87.24,4.15,4.15,0,0,1-2.65-1.77,3.74,3.74,0,0,1-.35-3,3.65,3.65,0,0,1,2.15-2.57A6.34,6.34,0,0,1,542.41,283.35Zm-5.14,2.92a2.36,2.36,0,0,0,.26,2,3.2,3.2,0,0,0,1.94,1.19,2.88,2.88,0,0,0,2-.11,2.36,2.36,0,0,0,1.14-1.6,3.27,3.27,0,0,0,0-1.42,2.61,2.61,0,0,0-.58-1.19,2,2,0,0,0-1-.65,3.81,3.81,0,0,0-1.64-.08,2.86,2.86,0,0,0-1.39.62A2.39,2.39,0,0,0,537.27,286.27Z"/><path class="cls-3" d="M532.94,295.73l.52-1.26,8.1,3.35c.67.27,1.3.56,1.88.85-.06-.16-.13-.32-.19-.51s-.31-1-.75-2.47l1.17-.32,1.08,4-.45,1.08Z"/><path class="cls-3" d="M430.51,330.8a8.76,8.76,0,0,1-4.3,3.59,5,5,0,0,1-4.43-1,5.63,5.63,0,0,1-1.13-1l.7-1a4.86,4.86,0,0,0,1.08,1,3.71,3.71,0,0,0,3.18.75,6.31,6.31,0,0,0,3.18-2.48l-.08-.06a3.22,3.22,0,0,1-3.22-.53,3.44,3.44,0,0,1-1.55-2.33,3.83,3.83,0,0,1,.81-2.77,4.17,4.17,0,0,1,2.6-1.84,3.71,3.71,0,0,1,2.95.76,3.63,3.63,0,0,1,1.62,2.92A6.37,6.37,0,0,1,430.51,330.8Zm-.89-5.85a2.37,2.37,0,0,0-1.95-.47,3.2,3.2,0,0,0-1.8,1.39,2.83,2.83,0,0,0-.62,1.91,2.35,2.35,0,0,0,1.09,1.64,3.07,3.07,0,0,0,1.31.55,2.51,2.51,0,0,0,1.31-.11,2,2,0,0,0,1-.7,3.9,3.9,0,0,0,.67-1.52,2.84,2.84,0,0,0-.09-1.51A2.41,2.41,0,0,0,429.62,325Z"/><path class="cls-3" d="M415.32,320.58q5-5.24,9-1.39a5.68,5.68,0,0,1,1,1.18l-.83.88a4.76,4.76,0,0,0-1-1.22,3.75,3.75,0,0,0-3.07-1.19,6.3,6.3,0,0,0-3.45,2l.07.07a3,3,0,0,1,1.62.07,4.08,4.08,0,0,1,1.51.92,3.49,3.49,0,0,1,1.21,2.49,3.76,3.76,0,0,1-1.18,2.64,4.16,4.16,0,0,1-2.86,1.46,4.1,4.1,0,0,1-4-3.11,4.08,4.08,0,0,1,.24-2.36A7.8,7.8,0,0,1,415.32,320.58Zm.09,5.92a2.3,2.3,0,0,0,1.89.71,3.18,3.18,0,0,0,1.95-1.11,2.79,2.79,0,0,0,.88-1.8,2.37,2.37,0,0,0-.86-1.77,3.18,3.18,0,0,0-1.24-.74,2.59,2.59,0,0,0-1.32-.08,2,2,0,0,0-1,.56,3.87,3.87,0,0,0-.88,1.42,3,3,0,0,0-.11,1.52A2.47,2.47,0,0,0,415.41,326.5Z"/><path class="cls-3" d="M411.65,309.47l1.14,1.43,2.2-1.76.84,1L413.62,312l3.73,4.67-1,.76-10.15.63-.92-1.16,6.46-5.16-1.13-1.42Zm1,3.27-3.2,2.55c-.62.5-1.35,1-2.17,1.63l0,.05a10.63,10.63,0,0,1,1.52-.24l6.67-.41Z"/><path class="cls-3" d="M410.81,302.61l.7,1.17L404,308.25c-.63.37-1.24.7-1.82,1l.52.15,2.43.89-.44,1.13-3.83-1.52-.6-1Z"/><path class="cls-3" d="M395.64,300a4.17,4.17,0,0,1-.31-2.76,2.64,2.64,0,0,1,1.62-1.74,2.72,2.72,0,0,1,1.74-.12,5,5,0,0,1,1.95,1.14,6.21,6.21,0,0,1,.57-2.55,2.84,2.84,0,0,1,1.43-1.28,3,3,0,0,1,2.67,0,4.36,4.36,0,0,1,2,2.35,4.73,4.73,0,0,1,.38,3.13,3,3,0,0,1-1.85,1.92q-1.95.81-4-1.11a4.64,4.64,0,0,1-.66,2.08,3.07,3.07,0,0,1-1.38,1.13,2.62,2.62,0,0,1-2.35-.09A4.12,4.12,0,0,1,395.64,300Zm1.05-.42a2.47,2.47,0,0,0,1.11,1.33,1.65,1.65,0,0,0,1.47,0,1.92,1.92,0,0,0,1-1,5.13,5.13,0,0,0,.32-2.12,4.75,4.75,0,0,0-1.66-1.16,2,2,0,0,0-1.44.07,1.66,1.66,0,0,0-1,1.08A2.59,2.59,0,0,0,396.69,299.53Zm8.62-.74a1.92,1.92,0,0,0,1.18-1.25,3.16,3.16,0,0,0-.24-2,3,3,0,0,0-1.3-1.58,2,2,0,0,0-1.76,0,2,2,0,0,0-1.08,1.17,6.58,6.58,0,0,0-.26,2.59,5.1,5.1,0,0,0,1.8,1.21A2.33,2.33,0,0,0,405.31,298.79Z"/><path class="cls-3" d="M394.12,285.15a2.79,2.79,0,0,1,2,.16,3.29,3.29,0,0,1,1.44,1.56l.06,0a3.56,3.56,0,0,1,.37-2.36,2.79,2.79,0,0,1,1.74-1.19,3.22,3.22,0,0,1,2.92.51,5.56,5.56,0,0,1,1.79,3.11,10.57,10.57,0,0,1,.3,1.77,6.21,6.21,0,0,1-.1,1.66l-1.29.33a8.38,8.38,0,0,0-.07-3.51q-.81-3.07-3.22-2.46-2.16.57-1.29,4l.31,1.17-1.17.3-.31-1.19a3.71,3.71,0,0,0-1.18-2,2.1,2.1,0,0,0-1.92-.37,1.75,1.75,0,0,0-1.21.95,2.59,2.59,0,0,0-.08,1.76,5.58,5.58,0,0,0,.59,1.41A6.76,6.76,0,0,0,395,292l-.74.92a5.83,5.83,0,0,1-1.34-1.45,6.21,6.21,0,0,1-.85-1.93,4.27,4.27,0,0,1,.09-2.9A2.79,2.79,0,0,1,394.12,285.15Z"/><path class="cls-3" d="M397.59,281.56a8.73,8.73,0,0,1-5.56-.74,5,5,0,0,1-2.29-3.91,5.57,5.57,0,0,1,0-1.51l1.2-.14a4.58,4.58,0,0,0,0,1.49,3.72,3.72,0,0,0,1.6,2.85,6.29,6.29,0,0,0,4,.65v-.09a3.24,3.24,0,0,1-1.8-2.73,3.49,3.49,0,0,1,.67-2.72,3.81,3.81,0,0,1,2.58-1.28,4.18,4.18,0,0,1,3.12.67,3.74,3.74,0,0,1,1.44,2.67,3.63,3.63,0,0,1-1,3.19A6.39,6.39,0,0,1,397.59,281.56Zm3.7-4.62a2.35,2.35,0,0,0-1-1.75,3.16,3.16,0,0,0-2.24-.39,2.8,2.8,0,0,0-1.83.85,2.3,2.3,0,0,0-.46,1.9,3,3,0,0,0,.48,1.34,2.51,2.51,0,0,0,1,.89,2,2,0,0,0,1.17.23,3.8,3.8,0,0,0,1.57-.53,2.91,2.91,0,0,0,1.06-1.09A2.48,2.48,0,0,0,401.29,276.94Z"/></svg>