<svg id="Calque_1" data-name="Calque 1" xmlns="http://www.w3.org/2000/svg" xmlns:xlink="http://www.w3.org/1999/xlink" viewBox="0 0 819 472"><defs><style>.cls-1{fill:#22113d;}.cls-2{fill:#fff;}.cls-3{fill:url(#Dégradé_sans_nom_32);}.cls-4{fill:url(#Dégradé_sans_nom_32-2);}.cls-5{fill:url(#Dégradé_sans_nom_32-3);}.cls-6{fill:url(#Dégradé_sans_nom_32-4);}.cls-7{fill:url(#Dégradé_sans_nom_32-5);}.cls-8{fill:url(#Dégradé_sans_nom_32-6);}.cls-9{fill:url(#Dégradé_sans_nom_32-7);}.cls-10{fill:url(#Dégradé_sans_nom_32-8);}.cls-11{fill:url(#Dégradé_sans_nom_32-9);}.cls-12{fill:url(#Dégradé_sans_nom_32-10);}.cls-13{fill:url(#Dégradé_sans_nom_32-11);}.cls-14{fill:url(#Dégradé_sans_nom_32-12);}.cls-15{fill:url(#Dégradé_sans_nom_32-13);}.cls-16{fill:url(#Dégradé_sans_nom_32-15);}.cls-17{fill:url(#Dégradé_sans_nom_32-16);}.cls-18{fill:url(#Dégradé_sans_nom_32-17);}.cls-19{fill:url(#Dégradé_sans_nom_32-18);}.cls-20{fill:url(#Dégradé_sans_nom_32-19);}.cls-21{fill:url(#Dégradé_sans_nom_32-20);}.cls-22{fill:url(#Dégradé_sans_nom_32-21);}.cls-23{fill:url(#Dégradé_sans_nom_32-22);}.cls-24{fill:url(#Dégradé_sans_nom_32-23);}.cls-25{fill:url(#Dégradé_sans_nom_32-24);}.cls-26{fill:url(#Dégradé_sans_nom_32-25);}.cls-27{fill:url(#Dégradé_sans_nom_32-26);}.cls-28{fill:url(#Dégradé_sans_nom_32-27);}.cls-29{fill:url(#Dégradé_sans_nom_32-28);}.cls-30{fill:url(#Dégradé_sans_nom_32-29);}.cls-31{fill:url(#Dégradé_sans_nom_32-30);}.cls-32{fill:url(#Dégradé_sans_nom_32-31);}.cls-33{fill:url(#Dégradé_sans_nom_32-32);}.cls-34{fill:url(#Dégradé_sans_nom_32-33);}.cls-35{fill:url(#Dégradé_sans_nom_32-34);}.cls-36{fill:none;stroke:#fff;stroke-linecap:round;stroke-linejoin:round;stroke-width:0;}</style><linearGradient id="Dégradé_sans_nom_32" x1="467.53" y1="91.96" x2="531.51" y2="27.97" gradientUnits="userSpaceOnUse"><stop offset="0.27" stop-color="#bf2f2f"/><stop offset="0.36" stop-color="#c42751"/><stop offset="0.52" stop-color="#cc1a8d"/><stop offset="0.68" stop-color="#d20fbd"/><stop offset="0.82" stop-color="#d707df"/><stop offset="0.93" stop-color="#da03f4"/><stop offset="1" stop-color="#db01fc"/></linearGradient><linearGradient id="Dégradé_sans_nom_32-2" x1="378.76" y1="97.05" x2="458.12" y2="17.69" xlink:href="#Dégradé_sans_nom_32"/><linearGradient id="Dégradé_sans_nom_32-3" x1="236.97" y1="113.78" x2="314.67" y2="36.08" xlink:href="#Dégradé_sans_nom_32"/><linearGradient id="Dégradé_sans_nom_32-4" x1="526.92" y1="124.11" x2="578.14" y2="72.89" xlink:href="#Dégradé_sans_nom_32"/><linearGradient id="Dégradé_sans_nom_32-5" x1="431.37" y1="142.28" x2="496" y2="77.65" xlink:href="#Dégradé_sans_nom_32"/><linearGradient id="Dégradé_sans_nom_32-6" x1="294.36" y1="107.35" x2="324.73" y2="76.97" xlink:href="#Dégradé_sans_nom_32"/><linearGradient id="Dégradé_sans_nom_32-7" x1="344.19" y1="408.22" x2="622.07" y2="130.35" xlink:href="#Dégradé_sans_nom_32"/><linearGradient id="Dégradé_sans_nom_32-8" x1="575.26" y1="316.55" x2="614.55" y2="277.26" xlink:href="#Dégradé_sans_nom_32"/><linearGradient id="Dégradé_sans_nom_32-9" x1="347.42" y1="350.48" x2="488.94" y2="208.95" xlink:href="#Dégradé_sans_nom_32"/><linearGradient id="Dégradé_sans_nom_32-10" x1="348.41" y1="411.25" x2="486.04" y2="273.63" xlink:href="#Dégradé_sans_nom_32"/><linearGradient id="Dégradé_sans_nom_32-11" x1="283.46" y1="312.95" x2="308.16" y2="288.26" xlink:href="#Dégradé_sans_nom_32"/><linearGradient id="Dégradé_sans_nom_32-12" x1="279.96" y1="320.43" x2="293.43" y2="306.96" xlink:href="#Dégradé_sans_nom_32"/><linearGradient id="Dégradé_sans_nom_32-13" x1="308.12" y1="85.09" x2="387.51" y2="5.7" xlink:href="#Dégradé_sans_nom_32"/><linearGradient id="Dégradé_sans_nom_32-15" x1="467.95" y1="74.33" x2="509.18" y2="33.09" xlink:href="#Dégradé_sans_nom_32"/><linearGradient id="Dégradé_sans_nom_32-16" x1="371.34" y1="81.35" x2="415.91" y2="36.78" xlink:href="#Dégradé_sans_nom_32"/><linearGradient id="Dégradé_sans_nom_32-17" x1="425.32" y1="83.51" x2="458.48" y2="50.35" xlink:href="#Dégradé_sans_nom_32"/><linearGradient id="Dégradé_sans_nom_32-18" x1="486.29" y1="104.36" x2="546.56" y2="44.08" xlink:href="#Dégradé_sans_nom_32"/><linearGradient id="Dégradé_sans_nom_32-19" x1="541.5" y1="111.53" x2="576.41" y2="76.61" xlink:href="#Dégradé_sans_nom_32"/><linearGradient id="Dégradé_sans_nom_32-20" x1="420.36" y1="119.96" x2="470.02" y2="70.3" xlink:href="#Dégradé_sans_nom_32"/><linearGradient id="Dégradé_sans_nom_32-21" x1="496.49" y1="104.66" x2="536.27" y2="64.87" xlink:href="#Dégradé_sans_nom_32"/><linearGradient id="Dégradé_sans_nom_32-22" x1="562.09" y1="135.78" x2="593.28" y2="104.59" xlink:href="#Dégradé_sans_nom_32"/><linearGradient id="Dégradé_sans_nom_32-23" x1="510.05" y1="136.2" x2="515.15" y2="131.09" xlink:href="#Dégradé_sans_nom_32"/><linearGradient id="Dégradé_sans_nom_32-24" x1="584.05" y1="150.58" x2="602.96" y2="131.67" xlink:href="#Dégradé_sans_nom_32"/><linearGradient id="Dégradé_sans_nom_32-25" x1="541.38" y1="157.66" x2="550.75" y2="148.28" xlink:href="#Dégradé_sans_nom_32"/><linearGradient id="Dégradé_sans_nom_32-26" x1="553.62" y1="219.07" x2="606.45" y2="166.24" xlink:href="#Dégradé_sans_nom_32"/><linearGradient id="Dégradé_sans_nom_32-27" x1="512.34" y1="282.99" x2="613.36" y2="181.97" xlink:href="#Dégradé_sans_nom_32"/><linearGradient id="Dégradé_sans_nom_32-28" x1="525.78" y1="327.6" x2="623.94" y2="229.44" xlink:href="#Dégradé_sans_nom_32"/><linearGradient id="Dégradé_sans_nom_32-29" x1="377.37" y1="343.79" x2="500.57" y2="220.59" xlink:href="#Dégradé_sans_nom_32"/><linearGradient id="Dégradé_sans_nom_32-30" x1="285.29" y1="311.58" x2="308.39" y2="288.48" xlink:href="#Dégradé_sans_nom_32"/><linearGradient id="Dégradé_sans_nom_32-31" x1="314.13" y1="313.33" x2="327.54" y2="299.92" xlink:href="#Dégradé_sans_nom_32"/><linearGradient id="Dégradé_sans_nom_32-32" x1="330.5" y1="314.87" x2="339.81" y2="305.56" xlink:href="#Dégradé_sans_nom_32"/><linearGradient id="Dégradé_sans_nom_32-33" x1="280.14" y1="316.74" x2="287.8" y2="309.08" xlink:href="#Dégradé_sans_nom_32"/><linearGradient id="Dégradé_sans_nom_32-34" x1="323.09" y1="343.71" x2="370.52" y2="296.28" xlink:href="#Dégradé_sans_nom_32"/></defs><path class="cls-1" d="M632.54,221.13c-1.67-6.76-4.55-13.27-5.9-20.11-.55-4.53-.73-9.13-.92-13.69-.76-12.37-2.38-24.69-4.3-36.92-2-13.46-4.51-27.48-9.17-40.29-1.46-4.17-3.18-8.68-5.89-12.21-1.16-1.6-2.79-2.4-4.35-3.51-2.92-5.57-5.82-11.19-9.09-16.57-4.21-6.36-8.38-13.24-13.55-18.85a21.5,21.5,0,0,0-7.58-5.42c-9.35-4-18.43-4.66-28.13-7.22-5.3-1.43-10.72-2.2-16-3.69-6.55-1.73-13-3.74-19.51-5.62-3.54-1-7.1-1.87-10.6-3-6.15-2.1-12.75-4.11-19.25-4.59-4.44-.44-9.13,0-13.63.11-4.61.34-9.19,1.19-13.75,2-5.49,1.08-11,1.15-16.38,2.45-1.23.23-2.43.7-3.67.21-3-1-5.93-2.07-8.94-3a79.32,79.32,0,0,0-19.21-2.55c-8.74.06-17.4,1-26.13,1.34-7.49.24-15,.87-22.45,1.07-11.84.73-23.7.93-35.54,1.83-5.11.28-10.22.59-15.34.81-8.88.71-17.35,1.08-25.89,3.89a58.88,58.88,0,0,1-7.55,2.35c-2.95.54-5.62,1.91-8.52,2.56-6.48.81-13,1.56-19.42,2.74a153.44,153.44,0,0,0-18.3,5c-7.5,2.44-15.49,5.28-22,9.91A23.54,23.54,0,0,0,195,67.26c-1.46,2.72-.91,6.22-1,9.24.22,4.7,3.56,9.37,6.71,12.68,9.14,9.06,18.92,17,28.86,25.14,6.22,4.78,12.32,9.69,18.75,14.19,5.89,4.44,12.23,8.17,18.09,12.63,5.78,3.88,11.9,7.72,17.92,11.21-.93,4.21.61,8.94,2.43,12.74,2.71,5.24,5.13,10.52,8.29,15.54a66.64,66.64,0,0,0,6.16,7.56c1.15,1.23,1,2.68,1.13,4.25.12,4.27.35,8.53.74,12.78.8,6.48,2.47,12.87,3.36,19.33.46,3.51,1.12,7,1.39,10.51.24,3.37.91,6.36.7,9.67a55.58,55.58,0,0,1-3.18,5.55q-5,8.53-10.57,16.71c-2,2.91-4.26,5.67-6.21,8.65s-4.32,5.45-6.5,8.21a51.54,51.54,0,0,1-4.29,4.8c-1,1.22-3.2,1-4.63,1.64-2.45,1-3.52,3.11-4.34,5.47-2.58,7.5-3.2,16.11-4,24a188.73,188.73,0,0,0-.91,23.3c.07,7.53-.12,15.26.86,22.74s5.76,13.59,8.93,20.4c4.23,8.91,8.14,18.22,10.36,27.85a15.58,15.58,0,0,0-2.14,6.87c-.23,3.83,2.31,7.11,5.34,9.16a61.09,61.09,0,0,0,23.05,9.2,83.57,83.57,0,0,0,27.59-1.37c6.6-1.94,12.88-3.79,17.77-8.92a10,10,0,0,0,2.57-5.35c7.1-.93,14.17-1.83,21.19-3.3,6.69-1.28,13.18-3.27,19.83-4.7,13.1-3.26,26.2-6.57,39.22-10.17q23-6.91,45.37-15.46c8-3,15.87-6.21,23.69-9.65,13.89-5.7,27.44-12.38,41.07-18.69,4-1.76,8-3.67,11.83-5.78,7.51-4.13,15-8.33,22.19-13a92.65,92.65,0,0,0,9.82-7.89c2.5-2.2,4.11-4.77,6.28-7.33,2.23-2.77,4.73-5.14,6.7-8.11,1.37-2.07,2.78-4.15,3.94-6.35,2.58-5.14,3.36-11.05,4.72-16.8a210.87,210.87,0,0,1,4.89-21.5c.56-1.9.57-4,1.37-5.83a136.34,136.34,0,0,0,10.33-25.26C632.89,236.62,634.14,228.59,632.54,221.13Z"/><path class="cls-2" d="M523.65,139.93c2.34-1,4.51-2.37,6.83-3.42,0-1,0-1.95,0-2.93l-.05-.63c-1.86-1.38-4-2.58-5.63-4.28.11-.72.5-1,1.17-.8,1.85.42,3.57,1.65,5.24,2.49a12,12,0,0,1,2.95-2.74c-.81-1.75-1.62-3.5-2.5-5.21a10,10,0,0,0-7.48,5,15.37,15.37,0,0,0-1,12.63Z"/><path class="cls-2" d="M540.59,129.59a9,9,0,0,1,1.91,6.48l3,1.58A17.09,17.09,0,0,0,542,126.84a25.64,25.64,0,0,0-5.27-3.61l-.79-.47-1.74-.47c.91,1.64,1.79,3.29,2.53,5A7.92,7.92,0,0,1,540.59,129.59Z"/><path class="cls-2" d="M541.11,139.18l-.12.12a6.79,6.79,0,0,1-3.89,2.4c-.5,2.5-.94,5-1.33,7.54a10.84,10.84,0,0,0,8.86-7.3l.36-1.18a21.21,21.21,0,0,0-3.12-2.21Z"/><path class="cls-2" d="M435.12,179.7c1.52,1,3.9.28,5.64.63l.59.23c4.08,1,8.37,1.23,12.51,2.08,3.43.58,6.82,1.44,10.24,2.05,3.61-.15,7.19.32,10.8.13,6.19-.08,12.92-1.94,18.93-3.48-2.26.26-4.46.92-6.72,1.25-8.31,1.21-16.64,1.31-24.8-.93-9.71-2.81-19.38-3.16-29.38-4-4-.35-8-.32-12-.61-5.57-.24-11,0-16.51.25-.82.12-1.69-.14-2.2.65-1,0-2.07.06-3.1.06-3.52.13-7.08,1.18-10.61,1.22-3.57.73-7.24,1-10.81,1.84s-6.83,1.81-10.23,2.85a29.58,29.58,0,0,0-7,2.87c2.06-.29,3.85-1.18,5.86-1.67,5.34-1.28,10.27-3.3,15.78-3.91,1.53-.48,3.09-.33,4.64-.62,2.16-.59,4.36-.18,6.54-.78,1.5-.42,3.59.28,4.84-.65,8.56-.12,17.14-.19,25.69,0C427.6,179.85,431.33,179.51,435.12,179.7Z"/><path class="cls-2" d="M324.09,271.79,324,272l-.11.22a5.68,5.68,0,0,0,2.24-.41Q325.11,271.77,324.09,271.79Z"/><path class="cls-2" d="M289.66,334.83l.79-.78C289.67,332.67,288.29,334.05,289.66,334.83Z"/><path class="cls-2" d="M285.08,338.88c.58-.41.71-.87.42-1.38C284.47,336.9,284.13,338.54,285.08,338.88Z"/><path class="cls-2" d="M287.55,338.42c.82.51,1.45-.89.4-1C287.4,337.6,287.27,337.94,287.55,338.42Z"/><path class="cls-2" d="M286.68,340.83a1,1,0,0,0,1.69-.15C288.22,339.79,287,340.31,286.68,340.83Z"/><path class="cls-2" d="M287.92,343.5c-.89-1-2.38,0-1.22,1.05A2.41,2.41,0,0,0,287.92,343.5Z"/><path class="cls-2" d="M296.5,382.24c1.22-2.54,3.23-4.18,5.31-6a153.34,153.34,0,0,1,13-9.74,65.19,65.19,0,0,1,5.8-4c-1.39,8.19-2.86,16.66-5.76,24.47-1.86,4.79-3,9.64-5.82,14,1.06-.34,2.51-.29,3-1.45,1.48-2.52,2.79-5.15,4.18-7.73,4.38-8.25,6.71-17.2,9-26.2a71,71,0,0,0,1.61-8.92.94.94,0,0,1,.57-.85c5.48-2.94,11.15-5.6,16.62-8.53-.06-.79-.84-.75-1.42-1.07-3-1.12-6.1-2.11-9.15-3.14a174.47,174.47,0,0,1-27.36-12,116,116,0,0,1-12.54-7.33,6.23,6.23,0,0,0-2.11-1.15c-1.8,1.26-3.4,2.78-5.13,4.12l-.06.05c-.27.27-.53.55-.79.83,5.12,3.6,10,7.59,14.84,11.54a6.69,6.69,0,0,1,2.05,2.65c-5.62,4.62-11,9.2-15.54,15-2.47,0-5.74.51-8-.69-3.44-2.3-4.91-7.48-5.45-11.38-.13,2-.63,4.24-.05,6.13.74,2.49,1.44,4.83,3.15,6.86,2.38,3.47,5.74,5.18,7.66,9a49.18,49.18,0,0,1,3.54,10.5c-1.17,1.52-2.47-.09-3.63-.73-1.49-1.15-3.65-2.31-4.44-4.08a152.6,152.6,0,0,1-6.36-15.76c-.08,5.5,2.29,9.91,4.47,14.79,1,2,1.86,4.16,3,6.1,1.46,1.21,3.21,2,4.65,3.31a14.41,14.41,0,0,1,3.88,5.19c2.37,5,3.56,10.09,5.15,15.33l2.9.4,1.93.28a66.18,66.18,0,0,1-1.81-7C296.64,390.73,295.48,386.61,296.5,382.24Zm24.76-24.07c-4.47,2.53-8.41,6.09-12.68,8.94-4.66,3.12-9.28,6.36-14.1,9.23a6.55,6.55,0,0,1-2.55.83,18.94,18.94,0,0,1-1.82-7.17c-.34-3.64-.51-7,1.35-10.32,2.31-3.92,5.51-7.43,8.48-10.87a24.25,24.25,0,0,1,6.11-5,5.43,5.43,0,0,1,3.11,1.34c4.07,3.11,7.81,6.58,11.78,9.79A2.16,2.16,0,0,1,321.26,358.17Z"/><path class="cls-2" d="M325.42,128.7c8.33,0,16.67-.33,25-.61,3.33-.08,6.6-.56,9.91-.92a13.12,13.12,0,0,0,.83,4.48c-4.72.88-9.39.57-14.15.74.24,1.13,1.36.8,2.26,1.06,4.83.53,10.11.79,14.82-.58,2.82-.68,4.91-2.22,7.91-2.22,6.83-.05,13.68.5,20.48,1,9.11.66,18.21,1.56,27.27,2.76,3.11.49,6,.84,8.59,2.78,3,2,4.5,4.82,6.59,7.65s3.58,6.35,6.12,8.65a9,9,0,0,0,4.28,1.81c6.28,1.48,12.39,3.87,18.62,5.5,5.58,1.39,10.89,3.68,16.48,5.1a64.34,64.34,0,0,0,17.19,2.19c4.63,0,9.06-.9,13.64-1.36a50.09,50.09,0,0,0,8-1.22c-12-2.84-23.47-7.22-34.77-12.22-3.78-1.83-7.81-3-11.55-5-4.16-2.1-9.27-4-12.46-7.43a27.13,27.13,0,0,0-11.23-6.22c-6.82-1.77-13.3-3.62-20.36-4.36-3.41-.2-6.57-1.3-9.93-1.85-13.42-2.78-27.57-3.63-41.24-4-4.14-.26-7.78-1.26-11.93-.7-2.6.37-5.22.52-7.81.93-9.64,1.17-18.94.8-28.56,1-6.25-.05-12.82.45-18.77,2.46-4.89,1.94-9.75,5.24-12.64,9.72,3.54-3.24,7.77-4.91,12.1-6.76A78.67,78.67,0,0,1,325.42,128.7Z"/><path class="cls-2" d="M427.06,141.94c-1.4-1.76-1.92-3.76-4.43-4.14-4.74-.82-9.56-1.16-14.33-1.83-2.45-.37-4.78-1.11-7.28-1.24-8.31-.6-16.68-1.75-25-1.86-2.29-.05-4.9-.4-7.13.16-2.48.83-4.81,2.58-7.36,3.25a39.38,39.38,0,0,1-9.94.26c-6.55-.19-12.74-1.12-19.33-.68-6.07.46-11.78.59-17.71,1.87-3,.57-5.73,1.64-8.89,1.46a19.89,19.89,0,0,0-4.27,4.37c6.4,4.34,13.94,7.47,21.08,10.39a148.55,148.55,0,0,0,19.51,7c2.71-1.91,5.24-4,7.9-6,.69-.61,1.8-1.29,2-2.24a1.68,1.68,0,0,0-1.44-1.84c-6.36-1.67-12.61-3.88-18.82-6-3.2-1.4-6.68-2.19-9.77-3.79,3.07-.48,6.15-.59,9.26-.91a38.74,38.74,0,0,1,7.38-.14,82.08,82.08,0,0,1,13.86,3.94c2.49.81,4.77,2,7.33,2.62,3,1.35,5.81,2.94,8.78,4.28a14.22,14.22,0,0,0,6.31,3.7c5.25.77,10.69.86,16,1.22,3,.08,6.25.55,9.24.09-6.35-.73-13-2.14-18.74-5a59.17,59.17,0,0,1-7.24-3.55c-3.66-2.35-7.43-4.52-11.22-6.65a20.16,20.16,0,0,1,2.68-1.21c2.25-.79,4-2,6.54-1.84,8.53.16,17.08,1,25.56,2a64.23,64.23,0,0,1,6.65.82c1.85,1.11,3.08,3.07,4.42,4.65a3.64,3.64,0,0,0,2,1c7.57,1.77,15.22,3,22.81,4.65,1.06-.42.07-1.22-.35-1.69A68.67,68.67,0,0,1,427.06,141.94Z"/><path class="cls-2" d="M531.7,138.9c-2.56,1-5,2.28-7.52,3.49a13.33,13.33,0,0,0,8.75,6.9c.53-2.66,1.18-5.31,1.57-8A13.72,13.72,0,0,0,531.7,138.9Z"/><path class="cls-2" d="M469.78,178c4.37.17,8.27,1.2,12.65.61a16.37,16.37,0,0,0,4.41.45c-1.12-1.28-2.4-1.53-4-1.92-6.48-2.09-12.92-2.77-19.09-5.93-3-1.56-6.09-3-9.24-4.33-2.28-1.75-5.2-2.39-7.94-3.53a55.38,55.38,0,0,0-12.42-3.53c-3.8-.57-7.85-1.57-11.65-1.26,6.69,1.86,13.59,4.12,19.66,7.53,6.73,3.73,12.09,8.25,19.56,10.64A26.76,26.76,0,0,0,469.78,178Z"/><path class="cls-2" d="M373.49,172.85c4-1.49,6.4-4.82,10.35-6.15a27.07,27.07,0,0,1,9.21-1.17c6.48.22,12.88.95,19.32,1.67a173.84,173.84,0,0,1,24.71,4.44c5.31,1.05,10.51,2.63,15.8,3.66-6.4-3-13.36-5-20.05-7.27-6.92-2.09-13.92-4.38-21-5.69-8.33-1.39-16.56-2.91-25-3.28a149.64,149.64,0,0,0-23.29.17c-7.39.72-14.22,4.58-20.76,7.91a63.89,63.89,0,0,0-6.23,3.46,2.47,2.47,0,0,0-.65,3.44,24.25,24.25,0,0,0,4.35,3.58c2.33,1.64,4.5,3.48,6.79,5.18,1.86,1.4,3.93,2.43,5.73,3.9A6,6,0,0,0,355,188a8,8,0,0,0-2-3.23c-4.26-3.88-8.42-7.85-12.72-11.67,2-1.18,4.09-2.31,6.15-3.42a7,7,0,0,0,2.94,2.76C357.15,175.48,365.68,176.17,373.49,172.85Z"/><path class="cls-2" d="M498.08,248.6c3.11-5.54,4.15-11.27,5.44-17.4.91-4.55,1.78-9,2.24-13.65a171.28,171.28,0,0,0-.51-24.29,36.87,36.87,0,0,0-3.24-10.5,34.77,34.77,0,0,0-4.08,4.06,24.12,24.12,0,0,1,2.2,7.58c.34,4.38.74,8.76,1.27,13.12.5,5.26-.3,10.94-.87,16.18-.79,7-2.51,13.61-3.89,20.46-.5,2.63-1.36,5.16-1.73,7.82A12.45,12.45,0,0,0,498.08,248.6Z"/><path class="cls-2" d="M486.79,186.8c.74.79,1.49,1.55,2.25,2.29a16.49,16.49,0,0,0,1.95-2.94C489.34,186.05,488.06,185.4,486.79,186.8Z"/><path class="cls-2" d="M482.28,186.75c-1.36.21-2,.85-1.55,2.28C481.64,188.49,482.54,188,482.28,186.75Z"/><path class="cls-2" d="M473.77,190.5a8.41,8.41,0,0,0,2.41-2.63,12.4,12.4,0,0,0-3.6,1.24Z"/><path class="cls-2" d="M490.75,191.39l1.13,1.28A23,23,0,0,0,494,190c.62-.75-.16-1.64-.42-2.37A25.7,25.7,0,0,0,490.75,191.39Z"/><path class="cls-2" d="M367.52,189.66c-1.31.84-2.65,1.41-3.27,2.94a67.68,67.68,0,0,0-3.85,12,111.35,111.35,0,0,0-2.22,36.12c.26,1.87.24,3.65,1.17,5.3,0-2.91-.41-5.8-.46-8.71a132.16,132.16,0,0,1,2.75-30.41A75.24,75.24,0,0,1,367.52,189.66Z"/><path class="cls-2" d="M484.64,189.38c-.58.6-1.16,1.2-1.72,1.81.59.81,1.17,1.62,1.77,2.42.72-.63,1.43-1.26,2.14-1.91A9.46,9.46,0,0,0,484.64,189.38Z"/><path class="cls-2" d="M342.73,191.74c.72.25,2.44-.17,2.69-1C345.39,189.77,342.52,191.15,342.73,191.74Z"/><path class="cls-2" d="M475.62,192.83c.87,1.62,2.52-.78,3.1-1.52-.16-.37-.32-.73-.5-1.08C477.33,190.94,476,191.73,475.62,192.83Z"/><path class="cls-2" d="M466.58,192.91l2.09,1.94a33.67,33.67,0,0,0,2.93-2.4c-.46-.58-.92-1.16-1.4-1.72A13.48,13.48,0,0,0,466.58,192.91Z"/><path class="cls-2" d="M509.33,192.8a47.43,47.43,0,0,0-.71,8.5c.48.07,1,.13,1.46.18,1.25-1.59,1.28-4.18,2-6.06,3.18-1.86,6.9-2.82,10.14-4.61C517.88,191,513.69,192.45,509.33,192.8Z"/><path class="cls-2" d="M361,191.25c-.79.19-1.58.4-2.37.64l-.16.05,1.11,1.09a40.33,40.33,0,0,0-4,1.13c.18.32.37.63.56.94a13.23,13.23,0,0,0,3.6-1.18A18.1,18.1,0,0,0,361,191.25Z"/><path class="cls-2" d="M338.4,193.54c1.26-.38,2.52-.35,3.11-1.72A4.82,4.82,0,0,0,338.4,193.54Z"/><path class="cls-2" d="M347.75,192.62c0,.48-.09,1-.14,1.44,1.12-.41,2.18-.58,2.93-1.61A18.66,18.66,0,0,0,347.75,192.62Z"/><path class="cls-2" d="M315.31,194.78c.72-.32,1.43-.66,2.14-1-.69-.26-1.37-.51-2.08-.73C315.34,193.64,315.32,194.21,315.31,194.78Z"/><path class="cls-2" d="M334.5,194.15c0,.57,0,1.13,0,1.69a20.15,20.15,0,0,0,2.7-1.66C336.62,193.23,335.35,194,334.5,194.15Z"/><path class="cls-2" d="M343.31,194.29q0,.74,0,1.47c.85-.32,2.62-.54,2.85-1.57C346.05,192.9,344,194.09,343.31,194.29Z"/><path class="cls-2" d="M478.14,195.84l1.44,2.22c.94-.72,1.86-1.46,2.77-2.22-.39-.59-.76-1.18-1.2-1.73-.43-.79-1-.12-1.47.23S478.65,195.32,478.14,195.84Z"/><path class="cls-2" d="M493.59,195.29c.54.71.48,1.81,1.61,1.54,1.05-1.1.44-2.11.22-3.39C494.79,194.05,494.19,194.66,493.59,195.29Z"/><path class="cls-2" d="M319.23,196.3a14.29,14.29,0,0,0,2.25-1.85c-.72-.08-1.46-.14-2.18-.17C319.26,195,319.23,195.63,319.23,196.3Z"/><path class="cls-2" d="M489.34,195.54c.27-.74-.42-1-.79-1.55-.77.63-1.49,1.29-2.22,2l.81,1.56A6.63,6.63,0,0,0,489.34,195.54Z"/><path class="cls-2" d="M326.38,196.25c0-.5,0-1,0-1.49a13.38,13.38,0,0,0-2,.62c-.84.25-.47,1.64-.58,2.3A17.39,17.39,0,0,0,326.38,196.25Z"/><path class="cls-2" d="M352.73,196.32c1.16-.47,1.66-.33,1.76-1.81l-2.26.38C352.39,195.37,352.55,195.85,352.73,196.32Z"/><path class="cls-2" d="M471.45,198c.72-.74,2.41-1.59,2.51-2.66l-.8-.63a13.57,13.57,0,0,0-2.84,2.16Z"/><path class="cls-2" d="M315.47,199.31a11.45,11.45,0,0,0,2.38-2q0-1,.06-2c-.87.56-1.69,1.17-2.5,1.8Z"/><path class="cls-2" d="M328.49,197.37l.33,1.9a28.47,28.47,0,0,0,3.84-2.46,4.61,4.61,0,0,0,.23-1.76A19.5,19.5,0,0,0,328.49,197.37Z"/><path class="cls-2" d="M339.19,197.55a5.73,5.73,0,0,0,2.52-.79A9.41,9.41,0,0,0,342,195a16.28,16.28,0,0,0-2.79,1C339.22,196.52,339.2,197,339.19,197.55Z"/><path class="cls-2" d="M464.88,195.38a23.27,23.27,0,0,0-.9,2.83c.81-.46,1.62-.94,2.44-1.42C465.93,196.13,465.83,195.42,464.88,195.38Z"/><path class="cls-2" d="M348.2,196.53c.19.48.39,1,.59,1.45.72-.35,1.43-.69,2.12-1.1l-.33-1.37Z"/><path class="cls-2" d="M319.34,198.57c.15,1,.29,1.91.44,2.86.83-.71,1.66-1.43,2.48-2.16-.06-.81-.13-1.62-.2-2.43C321.14,197.39,320.23,198,319.34,198.57Z"/><path class="cls-2" d="M334.73,198.31c0,.68.09,1.36.14,2a14,14,0,0,0,2.78-1.54l-.39-1.79Z"/><path class="cls-2" d="M344.24,198.15c0,.56.06,1.12.1,1.68a19,19,0,0,0,2.7-1.17c-.12-.5-.25-1-.38-1.49A16.34,16.34,0,0,0,344.24,198.15Z"/><path class="cls-2" d="M357.82,199.67c1-.74.94-1.67,1.16-2.76l-2.38.6C356.94,198.26,357,199.31,357.82,199.67Z"/><path class="cls-2" d="M353.25,198.63c.18.64.36,1.29.55,1.94l1.68-.29-.15-2.13A12.31,12.31,0,0,0,353.25,198.63Z"/><path class="cls-2" d="M473,199.93c.41.63.82,1.27,1.24,1.9,1-.64,1.91-1.3,2.85-2-.51-.64-1-1.27-1.58-1.87C474.69,198.61,473.87,199.27,473,199.93Z"/><path class="cls-2" d="M482.28,202.25a20.87,20.87,0,0,0,2.7-2.35c-.35-.57-.72-1.13-1.1-1.68-1,.66-1.87,1.41-2.77,2.16C481.51,201,481.89,201.63,482.28,202.25Z"/><path class="cls-2" d="M492.33,199.68a13.81,13.81,0,0,0-1-1.72,14.1,14.1,0,0,0-2.39,2.37c.31.6.61,1.2.91,1.8A7.09,7.09,0,0,0,492.33,199.68Z"/><path class="cls-2" d="M324.28,200.37l.18,2.18,2.55-1.8c-.13-.7-.25-1.39-.39-2.09C325.82,199.21,325.05,199.79,324.28,200.37Z"/><path class="cls-2" d="M466.53,201.45c.84-.54,1.67-1.1,2.48-1.69a8.35,8.35,0,0,0-1-1.16,5.56,5.56,0,0,0-2.5,1.63Z"/><path class="cls-2" d="M340.34,202.1c.86-.4,1.72-.83,2.58-1.25,0-.52-.07-1-.1-1.56a4.85,4.85,0,0,0-2.79,1.05C340.13,200.93,340.23,201.52,340.34,202.1Z"/><path class="cls-2" d="M349.42,200.09c.12.7.26,1.38.41,2.07l2.3-.76c-.18-.69-.37-1.39-.58-2.07C350.84,199.56,350.12,199.81,349.42,200.09Z"/><path class="cls-2" d="M315.76,201.62c.14,1,.3,2,.45,3a10.71,10.71,0,0,0,2-1.7,12,12,0,0,0-.22-3.11C317.24,200.38,316.5,201,315.76,201.62Z"/><path class="cls-2" d="M329.36,201.66c.18.73.35,1.47.53,2.2,1.2-.74,2.35-1.54,3.48-2.38-.06-.53-.12-1.06-.19-1.59C331.79,199.71,330.5,201,329.36,201.66Z"/><path class="cls-2" d="M345.78,204.1l2.41-1c-.18-.69-.36-1.37-.55-2.05-.8.35-1.58.73-2.35,1.14C345.44,202.82,345.61,203.46,345.78,204.1Z"/><path class="cls-2" d="M335.76,202.81a6.61,6.61,0,0,0,0,2.08,22.56,22.56,0,0,0,2.11-1.15c.75-.29.37-1.6.46-2.22A6.39,6.39,0,0,0,335.76,202.81Z"/><path class="cls-2" d="M462.41,204.42c.69-.52,1.36-1.07,2-1.66a5.38,5.38,0,0,0-1.51-1.32A20.15,20.15,0,0,0,462.41,204.42Z"/><path class="cls-2" d="M320.09,203.77c.13.77.25,1.54.38,2.31.84-.7,1.64-1.42,2.44-2.17-.15-.67-.29-1.34-.43-2C321.66,202.5,320.87,203.12,320.09,203.77Z"/><path class="cls-2" d="M468,203.35l1.18,1.73,2.41-1.4a11.65,11.65,0,0,0-1.19-1.85C469.62,202.32,468.82,202.83,468,203.35Z"/><path class="cls-2" d="M479.84,204.41c-.4-.72-.79-1.43-1.22-2.14a11,11,0,0,0-2.86,1.95l1.47,2.07C478.12,205.69,479,205.06,479.84,204.41Z"/><path class="cls-2" d="M508.71,205.84c-.31,1.89-.83,4.13-.32,6,.88,1.1,1.48-.52,1.74-1.22.31-.86.54-1.74.79-2.62,3.6-2.11,7.52-3.7,11.13-5.83C517.55,203.14,513.17,204.71,508.71,205.84Z"/><path class="cls-2" d="M356.58,202.69c-.94-.89-2.25.4-1.55,1.66C355.77,204.18,357.62,203.76,356.58,202.69Z"/><path class="cls-2" d="M483.81,205,485,206.8c.77-.72,1.93-1.43,2.35-2.41a15.26,15.26,0,0,0-.69-1.76A10.61,10.61,0,0,0,483.81,205Z"/><path class="cls-2" d="M495,204.93c-.32-.73-.65-1.47-1-2.2-.89.76-1.71,1.56-2.54,2.38l1.08,2.28A25.85,25.85,0,0,0,495,204.93Z"/><path class="cls-2" d="M325,205l.51,2.25c.87-.63,1.72-1.27,2.56-1.93l-.54-2.22A23.53,23.53,0,0,0,325,205Z"/><path class="cls-2" d="M341.36,205.46c0,1.13,1.73.29,2.22,0,.95-.33.2-1.69.07-2.34C342.82,203.7,340.68,204.07,341.36,205.46Z"/><path class="cls-2" d="M351.19,206l1.95-.64.06-1.54a15.9,15.9,0,0,0-2.37.52C350.94,204.86,351.06,205.41,351.19,206Z"/><path class="cls-2" d="M330.61,206.25l.63,2a12.45,12.45,0,0,0,3-2.32,13.94,13.94,0,0,0-.31-1.69A18.12,18.12,0,0,0,330.61,206.25Z"/><path class="cls-2" d="M463.53,208.71a21.43,21.43,0,0,0,3.35-2.15c-.4-.53-.8-1.05-1.22-1.57a22.67,22.67,0,0,0-3.51,2.16Z"/><path class="cls-2" d="M316.66,207.17c.13.79.27,1.58.42,2.36a12.66,12.66,0,0,0,2-1.91,7.52,7.52,0,0,0-.36-2.3A9.37,9.37,0,0,0,316.66,207.17Z"/><path class="cls-2" d="M346.63,206.26c.17.53.34,1.07.5,1.6a7.79,7.79,0,0,0,2.52-1.15,5.47,5.47,0,0,0-.8-1.53C348.1,205.53,347.37,205.9,346.63,206.26Z"/><path class="cls-2" d="M336.93,209a4.73,4.73,0,0,0,2.32-1c.84-.42,0-1.7-.06-2.36-.8.53-1.61,1.05-2.37,1.62C336.85,207.83,336.89,208.4,336.93,209Z"/><path class="cls-2" d="M356.86,208.08c.73.11.84-2,0-1.86S356.35,207.67,356.86,208.08Z"/><path class="cls-2" d="M472.45,209.81c.72-.52,1.44-1,2.16-1.52-.45-.85-.91-1.7-1.43-2.5a13.28,13.28,0,0,0-2.4,1.44A9.29,9.29,0,0,0,472.45,209.81Z"/><path class="cls-2" d="M321.06,208.51l.51,2.25a23.63,23.63,0,0,0,2.19-1.81c-.11-.77-.21-1.54-.33-2.32A10.5,10.5,0,0,0,321.06,208.51Z"/><path class="cls-2" d="M342.56,208.46q.21.93.45,1.86c.89-.41,1.74-.85,2.58-1.33-.15-.6-.31-1.2-.46-1.79A20.38,20.38,0,0,0,342.56,208.46Z"/><path class="cls-2" d="M354.94,208.84a7.8,7.8,0,0,0-.55-1.58,17.12,17.12,0,0,0-1.92,1c-.11.54.26,1.19.37,1.73C353.49,209.61,354.53,209.45,354.94,208.84Z"/><path class="cls-2" d="M481.21,207c-.87.59-1.71,1.24-2.53,1.9l1.26,2c.83-.65,1.65-1.3,2.46-2C482,208.28,481.61,207.64,481.21,207Z"/><path class="cls-2" d="M326.75,211.78q1.32-.94,2.61-1.92c-.18-.7-.35-1.41-.54-2.12a29.46,29.46,0,0,0-2.65,2.07C326.37,210.46,326.56,211.12,326.75,211.78Z"/><path class="cls-2" d="M490.16,209.91c-.36-.76-.71-1.53-1.09-2.28a14.27,14.27,0,0,0-2.75,2,25.19,25.19,0,0,0,1.45,2.46Z"/><path class="cls-2" d="M332.24,210.64c.15.63.33,1.25.53,1.86.94-.63,1.85-1.3,2.75-2-.2-.66-.4-1.33-.61-2A11,11,0,0,0,332.24,210.64Z"/><path class="cls-2" d="M496.58,211.18a9.27,9.27,0,0,0-.08-3,25.14,25.14,0,0,0-2.54,2.41c.35.75.69,1.52,1,2.27A12.76,12.76,0,0,0,496.58,211.18Z"/><path class="cls-2" d="M468.1,208.83a30.65,30.65,0,0,0-3,1.75c.6.8,1.2,1.58,1.82,2.36l2.81-1.44A10.6,10.6,0,0,0,468.1,208.83Z"/><path class="cls-2" d="M348.22,210.2c.18.57.37,1.15.56,1.71a24.8,24.8,0,0,0,2.56-1.2c-.27-.56-.54-1.11-.8-1.68Z"/><path class="cls-2" d="M318.25,211.42c-.74.58-.1,1.93,0,2.71a9.76,9.76,0,0,0,2.09-1.81c-.23-.77-.45-1.54-.69-2.3C319.15,210.47,318.68,210.92,318.25,211.42Z"/><path class="cls-2" d="M338,211.39c.23.68.48,1.35.73,2l2.48-1.8-.59-1.64A7,7,0,0,0,338,211.39Z"/><path class="cls-2" d="M477.29,212.85c-.4-.73-.82-1.46-1.28-2.16-.68.45-1.88.86-2.2,1.62a21.86,21.86,0,0,0,1.21,2.17Z"/><path class="cls-2" d="M344.31,212.49c-.21.62.34,1.4.51,2,.83-.52,1.65-1.05,2.48-1.59-.29-.56-.58-1.12-.88-1.67A14,14,0,0,0,344.31,212.49Z"/><path class="cls-2" d="M356.48,211.2a21.93,21.93,0,0,0-2.51.63c.21.5.41,1,.62,1.52l1.85-.69C356.45,212.18,356.47,211.69,356.48,211.2Z"/><path class="cls-2" d="M322.35,213.4c.22.34.44,2.15,1.13,1.5a16.3,16.3,0,0,0,1.65-1.45c-.25-.69-.5-1.39-.76-2.09A16.92,16.92,0,0,0,322.35,213.4Z"/><path class="cls-2" d="M460.7,215.29a5.16,5.16,0,0,0,3.14-1c-.59-.8-1.19-1.6-1.77-2.4C460.33,212.49,461,213.79,460.7,215.29Z"/><path class="cls-2" d="M485,214.39c-.35-.88-.72-1.76-1.12-2.62-.89.58-1.75,1.21-2.6,1.85.47.84.95,1.68,1.43,2.51Z"/><path class="cls-2" d="M516.66,212.08c-2.7.86-5.42,1.7-8.09,2.65a35.11,35.11,0,0,0-1.2,8.46,2.33,2.33,0,0,0,1-.7c.9-1.8,1.25-4,2.29-5.69,2.33-2,5.32-3,7.68-5Z"/><path class="cls-2" d="M327.66,214.11c.23.75.47,1.49.71,2.23.95-.75,1.85-1.54,2.74-2.36-.34-.63-.67-1.25-1-1.87C329.26,212.76,328.46,213.44,327.66,214.11Z"/><path class="cls-2" d="M333.67,214.59l.87,1.85a8.61,8.61,0,0,0,2.28-1.87,8.28,8.28,0,0,0-.57-1.79A25.44,25.44,0,0,0,333.67,214.59Z"/><path class="cls-2" d="M352.55,213A3.35,3.35,0,0,0,350,214.1c.11.41.24.81.37,1.22C351.52,214.65,353.1,214.84,352.55,213Z"/><path class="cls-2" d="M492.42,215.49c-.31-.85-.63-1.68-1-2.52-.75.67-1.87,1.3-2.32,2.21a23,23,0,0,0,.72,2.22C490.72,216.78,491.57,216.14,492.42,215.49Z"/><path class="cls-2" d="M340.3,217.5a30.91,30.91,0,0,0,2.59-1.82l-.63-1.66a9.52,9.52,0,0,0-2.42,1.39A7,7,0,0,0,340.3,217.5Z"/><path class="cls-2" d="M472.48,216.17,471,213.66l-2.64,1.47,1.5,2.44C470.76,217.14,471.62,216.68,472.48,216.17Z"/><path class="cls-2" d="M320.07,215.49c-1.42,1-.6,1.89-.3,3.2.61-.59,1.21-1.19,1.79-1.82C321.3,215.93,321.42,214.61,320.07,215.49Z"/><path class="cls-2" d="M348.6,215.24a4,4,0,0,0-2.66,1.15C345.38,218.58,349.39,216.68,348.6,215.24Z"/><path class="cls-2" d="M323.85,217.58c.23.67.45,1.33.73,2,.78.13,1-.36,1.51-.88.91-.81,0-2-.2-2.92C325.19,216.35,324.53,217,323.85,217.58Z"/><path class="cls-2" d="M480,218c-.43-.79-.85-1.59-1.28-2.39-.77.41-1.53.83-2.27,1.29a10.8,10.8,0,0,0,1.32,2.71Z"/><path class="cls-2" d="M329.26,218.54c.27.59.54,1.19.82,1.79.92-.74,1.79-1.52,2.64-2.35-.23-.57-.46-1.14-.68-1.72A8.08,8.08,0,0,0,329.26,218.54Z"/><path class="cls-2" d="M354.46,216.32c-1.33.24-2.37.34-3,1.71A2.45,2.45,0,0,0,354.46,216.32Z"/><path class="cls-2" d="M335.52,218.67c.38.63.77,1.25,1.16,1.87.69-.61,1.37-1.23,2-1.9-.27-.59-.54-1.16-.84-1.73C337.06,217.48,336.29,218.08,335.52,218.67Z"/><path class="cls-2" d="M467.11,219.22c-.58-.93-1.17-1.86-1.77-2.78l-2.51,1a18.61,18.61,0,0,0,1.93,2.86C465.52,220.56,466.47,219.57,467.11,219.22Z"/><path class="cls-2" d="M485.18,220.9a12.88,12.88,0,0,0,2.23-1.33c-.34-.76-.7-1.51-1.1-2.25q-1.12.72-2.19,1.5C484.34,219.5,484.5,220.57,485.18,220.9Z"/><path class="cls-2" d="M341.54,219.31c.14.49.3,1,.45,1.45.95-.79,2.57-1.17,2.1-2.7C343.16,218,342.27,218.81,341.54,219.31Z"/><path class="cls-2" d="M349.82,218.52c-1,.41-2.7.86-2.09,2.24,1.18.18,1.82-.62,2.75-1.2C350.27,219.21,350.05,218.86,349.82,218.52Z"/><path class="cls-2" d="M493.6,218.55c-.78.58-1.53,1.18-2.28,1.79l.9,2.8a21.75,21.75,0,0,0,2.32-1.72C494.24,220.46,493.94,219.5,493.6,218.55Z"/><path class="cls-2" d="M316.5,222.53l1.44-1.3c-.19-.7-.38-1.4-.59-2.1C315.65,219.05,316.56,221.51,316.5,222.53Z"/><path class="cls-2" d="M320.76,220.89a5.79,5.79,0,0,0,.75,2.42c.67-.59,1.38-1,1.66-1.89a16.23,16.23,0,0,0-.73-2.27A13.82,13.82,0,0,0,320.76,220.89Z"/><path class="cls-2" d="M355.65,219a12.63,12.63,0,0,0-2.12,1c-.43.94.34,1.13.79,1.84C355.44,220.83,355.75,220.58,355.65,219Z"/><path class="cls-2" d="M460,219.22c-.21,1.26-.3,2.53-.39,3.81L462,222A9.12,9.12,0,0,0,460,219.22Z"/><path class="cls-2" d="M475,221.35c-.39-.86-.8-1.72-1.21-2.57a21.76,21.76,0,0,0-2.1,1.19c-.21.78.74,1.88,1,2.63Z"/><path class="cls-2" d="M325.66,221.92c.19.59.4,1.18.61,1.77a5,5,0,0,0,2-1.68c-.22-.6-.45-1.21-.69-1.8A13,13,0,0,0,325.66,221.92Z"/><path class="cls-2" d="M332.15,224.43a20.4,20.4,0,0,0,2.21-2.05c.29-.61-.36-1.51-.52-2.12a18.06,18.06,0,0,0-2.84,2.33C331.39,223.2,331.77,223.82,332.15,224.43Z"/><path class="cls-2" d="M337.53,222.42c.15.41.31.81.49,1.21,1.34-.25,2.75-1.37,1.61-2.79C338.91,221.34,338.21,221.87,337.53,222.42Z"/><path class="cls-2" d="M482.34,223.1c-.28-.75-.56-1.48-.83-2.23a13,13,0,0,0-2.49,1.55c.34.67.68,1.33,1,2Z"/><path class="cls-2" d="M343.23,222.71c.21.51.42,1,.64,1.53,1.09-.63,2.85-1.19,1.84-2.74C344.74,221.5,344,222.22,343.23,222.71Z"/><path class="cls-2" d="M349.25,223.16a3.75,3.75,0,0,0,1,1.51,25.78,25.78,0,0,0,2-2c-.27-.42-.55-.83-.84-1.24A6.1,6.1,0,0,0,349.25,223.16Z"/><path class="cls-2" d="M469.85,224.15c-.38-.76-.76-1.52-1.19-2.25-.78.25-1.55.53-2.32.81a23.55,23.55,0,0,0,1.43,2.54Z"/><path class="cls-2" d="M489.46,225.71c.21-1-.57-2.27-.93-3.2a25.6,25.6,0,0,0-2.1,1.63c.37,1,.78,1.92,1.19,2.87C488.24,226.59,488.88,226.18,489.46,225.71Z"/><path class="cls-2" d="M317.54,224.87a21.76,21.76,0,0,0,.66,2.36c.61-.39,1.16-.61,1.44-1.33a6.19,6.19,0,0,0-1-2.53A6.84,6.84,0,0,0,317.54,224.87Z"/><path class="cls-2" d="M322.55,225.45c.17.63.37,1.25.59,1.86a10.23,10.23,0,0,0,1.82-1.9c-.23-.6-.48-1.2-.74-1.79A9.07,9.07,0,0,0,322.55,225.45Z"/><path class="cls-2" d="M327.59,226c.25.63.5,1.25.77,1.88a4.09,4.09,0,0,0,1.92-1.78c-.33-.61-.67-1.2-1-1.79A15.58,15.58,0,0,0,327.59,226Z"/><path class="cls-2" d="M333,226.51l1,1.38c.87-.94,2.95-1.95,2-3.47C334.85,224.16,333.83,225.88,333,226.51Z"/><path class="cls-2" d="M340.34,227.55l1.93-1.72c-.22-.48-.44-1-.67-1.44a12,12,0,0,0-2.13,1.54Z"/><path class="cls-2" d="M462.3,227.48l2.37-1-1.23-2.25c-1,.36-1.93.73-2.87,1.17C461.12,226.12,461.71,226.8,462.3,227.48Z"/><path class="cls-2" d="M477.15,226.35a6.61,6.61,0,0,0-.65-2c-.68-.24-1.52.37-2.17.59.16.74.36,1.49.55,2.22C475.64,226.9,476.4,226.62,477.15,226.35Z"/><path class="cls-2" d="M347.09,224.56c-.61.47-1.22.94-1.8,1.44.21.57.42,1.12.65,1.68l2.11-1.38Q347.59,225.43,347.09,224.56Z"/><path class="cls-2" d="M353.67,224.83a10.69,10.69,0,0,0-2.52,1.39c.3.62.62,1.22.93,1.83l2.37-1.64C354.2,225.88,353.94,225.35,353.67,224.83Z"/><path class="cls-2" d="M495.35,224.78a16.61,16.61,0,0,0-1.53,1.37c-.33,1,.38,2.41.84,3.34A20.22,20.22,0,0,0,495.35,224.78Z"/><path class="cls-2" d="M509.65,227.78a34.8,34.8,0,0,1,4-3,14.15,14.15,0,0,0-6,1.59,10.39,10.39,0,0,0-.7,5.5l.85.52A45.64,45.64,0,0,1,509.65,227.78Z"/><path class="cls-2" d="M484.87,228.89c-.36-1-.73-1.94-1.1-2.91q-1.26.6-2.49,1.23a26.85,26.85,0,0,0,1.42,3.2Z"/><path class="cls-2" d="M472.12,228.73c-.33-.68-.68-1.35-1.05-2l-2,1c.23.6.46,1.2.68,1.79Z"/><path class="cls-2" d="M324.29,229.4c.25.74.54,1.47.81,2.21.67-.6,1.32-1.2,2-1.82-.26-.68-.52-1.36-.8-2C325.31,228,324.88,228.69,324.29,229.4Z"/><path class="cls-2" d="M335.86,231.62a16.64,16.64,0,0,0,2.58-2.3c-.21-.54-.45-1.07-.69-1.59a33.48,33.48,0,0,0-2.58,2.33Z"/><path class="cls-2" d="M343.5,227.66c-.7.45-1.38.93-2,1.42a14.54,14.54,0,0,0,1,1.73c.6-.49,1.21-1,1.8-1.47C344,228.78,343.75,228.21,343.5,227.66Z"/><path class="cls-2" d="M320.38,228a12.09,12.09,0,0,0-1.09,1.49,14.94,14.94,0,0,0,.48,1.83c.59-.59,1.89-1.19,1.41-2.2A4.11,4.11,0,0,0,320.38,228Z"/><path class="cls-2" d="M329.64,230.09c.29.52.65,1,1,1.51l1.55-1.65-.75-1.71C330.82,228.67,329.68,229.29,329.64,230.09Z"/><path class="cls-2" d="M348.88,228c-.53.47-1.05.95-1.56,1.43.34.51.67,1,1,1.55.6-.53,1.21-1,1.8-1.6A11.79,11.79,0,0,0,348.88,228Z"/><path class="cls-2" d="M353.17,229.52a12.83,12.83,0,0,0,1.69,2.18,22.89,22.89,0,0,0,.28-3.08C354.48,228.91,353.83,229.21,353.17,229.52Z"/><path class="cls-2" d="M466,229c-.65.14-1.28.31-1.91.5.24.56.26,1.85,1.1,1.75.55-.1,1.11-.22,1.66-.35C466.56,230.28,466.28,229.65,466,229Z"/><path class="cls-2" d="M479.78,231.83l-1.22-2.93c-.72.34-1.44.7-2.15,1.07A10.59,10.59,0,0,0,477.7,233Z"/><path class="cls-2" d="M490.78,228.71c-.65.38-1.28.79-1.91,1.21a36.87,36.87,0,0,0,1.36,3.68c.58-.31,1.16-.6,1.74-.9A24.08,24.08,0,0,0,490.78,228.71Z"/><path class="cls-2" d="M459,232.83l2.55-.53c-.31-.57-.63-1.15-1-1.71q-1.26.19-2.52.48C458.41,231.66,458.73,232.24,459,232.83Z"/><path class="cls-2" d="M340.38,232.25c-.25-.42-.52-.84-.79-1.24a26.86,26.86,0,0,0-2.43,2.34c.32.52.63,1.05.94,1.58C338.78,234.19,340.34,233.28,340.38,232.25Z"/><path class="cls-2" d="M346.45,232.58c-.32-.4-.56-1.43-1.15-1.38a9.49,9.49,0,0,0-1.69,1.21,7.49,7.49,0,0,0,1,1.66Z"/><path class="cls-2" d="M351.34,231.18a5.44,5.44,0,0,0-1.77,1.46l1,1.41a20.94,20.94,0,0,0,1.83-1.17C352.05,232.31,351.71,231.74,351.34,231.18Z"/><path class="cls-2" d="M317.87,231.73l-.77.65c0,.72,0,1.43,0,2.15C319,234.07,318.15,233.07,317.87,231.73Z"/><path class="cls-2" d="M320.86,233.39a17.93,17.93,0,0,0,.87,2.08c.8-.06,1.23-1,1.77-1.54-.37-.75-.73-1.51-1.11-2.25A19.06,19.06,0,0,0,320.86,233.39Z"/><path class="cls-2" d="M327.21,235.26a16.15,16.15,0,0,0,1.89-1.9q-.47-.9-1-1.77c-.67.55-1.3,1.15-1.92,1.76Z"/><path class="cls-2" d="M473.61,231.68a4.81,4.81,0,0,0-2.51.77c.34.89.72,1.77,1.09,2.65l2.23-.6C474.17,233.55,473.91,232.61,473.61,231.68Z"/><path class="cls-2" d="M331.83,233.56c.2.45.4.9.63,1.35,1,0,1.25-.91,1.85-1.54l-.65-.93C332.78,232,332.41,233.07,331.83,233.56Z"/><path class="cls-2" d="M487.4,235.57a13.51,13.51,0,0,0-1.55-3.72c-.7.47-1.39,1-2.06,1.47a26.12,26.12,0,0,0,1.31,3.52Z"/><path class="cls-2" d="M508.55,236.34c1.79-1.25,3.7-2.32,5.51-3.54a54.78,54.78,0,0,0-7.75,2.34,24.12,24.12,0,0,0-.64,5C507.59,240.47,507.23,237.18,508.55,236.34Z"/><path class="cls-2" d="M469.11,236.16c-.35-.89-.7-1.8-1.1-2.68l-1.7.5.87,2.65Z"/><path class="cls-2" d="M342.61,235.72c-.26-.44-.54-.88-.83-1.31a12,12,0,0,0-2.48,2.24l1.06,1.35A11.85,11.85,0,0,0,342.61,235.72Z"/><path class="cls-2" d="M347.59,234a17.51,17.51,0,0,0-1.72,1.61,4.32,4.32,0,0,0,1,1.49l1.85-1.57Z"/><path class="cls-2" d="M333.86,236.77c.36.51.73,1,1.1,1.52l1.34-1.52c-.28-.53-.57-1.05-.86-1.57C334.89,235.7,334.36,236.23,333.86,236.77Z"/><path class="cls-2" d="M353.92,235c-.56.27-1.11.56-1.66.86l1.07,1.47,1.58-.84A4.42,4.42,0,0,0,353.92,235Z"/><path class="cls-2" d="M464,237.28c-.33-.8-.66-1.6-1-2.38-.75.16-1.48.34-2.22.57a15.85,15.85,0,0,0,1.13,1.79C462.59,237.29,463.3,237.3,464,237.28Z"/><path class="cls-2" d="M482,238a21.79,21.79,0,0,0-1-2.95,4.33,4.33,0,0,0-2.33,1c.33,1,.68,2,1,3C480.31,238.85,482,238.87,482,238Z"/><path class="cls-2" d="M320.2,237.92a14.78,14.78,0,0,0-.73-2.22c-.86.24-1.15.91-1.6,1.61.27.83.56,1.65.86,2.46C319.38,239.26,320.13,238.83,320.2,237.92Z"/><path class="cls-2" d="M331.16,236.8c-.24-.44-.48-.87-.73-1.29a24.25,24.25,0,0,0-2,1.83l1,1.46C330,238.15,330.61,237.5,331.16,236.8Z"/><path class="cls-2" d="M457.38,235.8a.9.9,0,0,0,.43,1.72C458.78,237.33,458.16,235.7,457.38,235.8Z"/><path class="cls-2" d="M324,239.52a10.42,10.42,0,0,0,1.41-2.14,15,15,0,0,0-1-1.67,15.33,15.33,0,0,0-1.33,1.68C322.89,238.13,323.65,238.88,324,239.52Z"/><path class="cls-2" d="M493.14,235.91a7.22,7.22,0,0,0-1.79.87,6.42,6.42,0,0,0,1.21,3A10.28,10.28,0,0,0,493.14,235.91Z"/><path class="cls-2" d="M344,237.41a25.39,25.39,0,0,0-2.47,2.17c.34.41.68.82,1,1.24.75-.6,1.49-1.21,2.19-1.86C344.5,238.44,344.25,237.92,344,237.41Z"/><path class="cls-2" d="M350.24,237.46c-.67.46-1.32.94-2,1.44.32.52.67,1,1,1.5.74-.53,1.46-1.1,2.17-1.68Q350.87,238.09,350.24,237.46Z"/><path class="cls-2" d="M476.57,240.5c-.22-1-.47-2.08-.78-3.1a13,13,0,0,0-2.61.53c.32,1,.67,2.09,1,3.13Z"/><path class="cls-2" d="M332.53,238.5a5.9,5.9,0,0,0-1.9,1.82,13.68,13.68,0,0,0,.57,1.67,17.43,17.43,0,0,0,2.14-1.89Z"/><path class="cls-2" d="M338.41,240.08c-.19-.56-.39-1.11-.62-1.65a4.47,4.47,0,0,0-1.57,1.22,13.12,13.12,0,0,0,.69,1.74A4.41,4.41,0,0,0,338.41,240.08Z"/><path class="cls-2" d="M489.45,242a15.13,15.13,0,0,0-1.17-3.35,18.05,18.05,0,0,0-2.19,1.45c.32,1,.62,2,.92,3Z"/><path class="cls-2" d="M470.87,241.79c-.22-.9-.45-1.79-.7-2.68-.64,0-1.29.07-1.93.14a11.33,11.33,0,0,0,.82,2.92Z"/><path class="cls-2" d="M325,241.46c.23.47.48.93.73,1.38.8-.11,1.28-1.16,1.81-1.7l-.66-1.48A17.77,17.77,0,0,0,325,241.46Z"/><path class="cls-2" d="M456.22,241.16a11.88,11.88,0,0,0,3.88.7l-.74-1.88-3.28-.29A4,4,0,0,0,456.22,241.16Z"/><path class="cls-2" d="M319.9,241.87c.16.59.36,1.18.58,1.77.61-.64,1.63-1.29,1.48-2.29-.16-.45-.34-.9-.54-1.33C320.7,240.5,320,240.94,319.9,241.87Z"/><path class="cls-2" d="M465.53,242.43c-.2-.87-.42-1.72-.69-2.55l-2,.25c.2.74.4,1.47.64,2.2C464.17,242.37,464.85,242.41,465.53,242.43Z"/><path class="cls-2" d="M346.34,240.69a10.81,10.81,0,0,0-2.13,1.8c0,.64.79,1.14,1.16,1.63l2-1.9C347.05,241.71,346.7,241.19,346.34,240.69Z"/><path class="cls-2" d="M353.17,240.68c-.59.38-2,.94-2.06,1.73a12.21,12.21,0,0,0,1.51,1.63l2.19-1.62C354.27,241.83,353.73,241.25,353.17,240.68Z"/><path class="cls-2" d="M335.54,243a9.42,9.42,0,0,0-1-1.46,22.46,22.46,0,0,0-1.84,1.94c.32.56.64,1.12,1,1.66C334.25,244.53,335.22,243.88,335.54,243Z"/><path class="cls-2" d="M340.73,242.88c-.33-.51-.67-1-1-1.52-.38.4-.75.81-1.12,1.22l-.05.39c.22.4.44.79.67,1.18C339.72,243.74,340.23,243.31,340.73,242.88Z"/><path class="cls-2" d="M484,244.67a18.88,18.88,0,0,0-1-3.38l-2.38,1c.24,1,.49,2,.73,3C482.28,245.11,483.15,244.9,484,244.67Z"/><path class="cls-2" d="M328.17,245.86a18.18,18.18,0,0,0,1.51-1.76c-.55-.52-.8-1.65-1.65-.76S326.5,245.71,328.17,245.86Z"/><path class="cls-2" d="M322.23,246.81c1.06.47,1.39-.91,2-1.52-.27-.54-.53-1.07-.79-1.61C322.65,244.69,321.6,245.37,322.23,246.81Z"/><path class="cls-2" d="M478.37,246.5a25,25,0,0,0-.76-2.82c-.73-.42-1.92.29-2.71.43a25.47,25.47,0,0,0,.68,2.87C476.24,247.48,477.58,246.63,478.37,246.5Z"/><path class="cls-2" d="M348.8,244.08c-.59.47-1.17.95-1.72,1.45.28.75.64,1.56,1.59,1.44a14.9,14.9,0,0,0,1.75-1.52C349.88,245,349.35,244.53,348.8,244.08Z"/><path class="cls-2" d="M461,247.92a17.15,17.15,0,0,0-.34-2.59c-.83-.65-2.29-.71-3.33-.91a6,6,0,0,0,.85,2.82A17,17,0,0,0,461,247.92Z"/><path class="cls-2" d="M337.71,246.19c.08-.79-.51-1.06-.95-1.61-.64.58-1.24,1.21-1.83,1.84l1,1.62A12.72,12.72,0,0,0,337.71,246.19Z"/><path class="cls-2" d="M342.42,244.64c-.53.25-1,.52-1.54.8.37.67.77,1.32,1.17,2l1.48-1.2C343.17,245.68,342.8,245.16,342.42,244.64Z"/><path class="cls-2" d="M471.73,244.82l-2.2.34c.09,1,.21,2,.33,3,.84-.1,1.67-.24,2.5-.39Z"/><path class="cls-2" d="M466.67,248.39c-.15-1-.3-2-.46-3l-2.22,0c.09,1,.18,2,.28,3.06Z"/><path class="cls-2" d="M490.45,247.32c.06-.66.1-1.32.1-2a21.36,21.36,0,0,0-2.48.73c.08.8.21,1.6.35,2.39A5.27,5.27,0,0,0,490.45,247.32Z"/><path class="cls-2" d="M332,247c-.47-.45-.95-.87-1.44-1.3-.57.69-1.09,1.41-1.6,2.14l1.18,1.47A8,8,0,0,0,332,247Z"/><path class="cls-2" d="M325.3,246.94a6.65,6.65,0,0,0-1.51,1.83,9.7,9.7,0,0,0,.56,1.73,13,13,0,0,0,1.82-2.29C325.89,247.79,325.6,247.36,325.3,246.94Z"/><path class="cls-2" d="M351.93,247.19c-.71.5-1.39,1-2.07,1.55,1.19,1.34,2.43.95,4,.94A5.86,5.86,0,0,0,351.93,247.19Z"/><path class="cls-2" d="M340.84,249.28a19.77,19.77,0,0,0-1.64-1.66,26.75,26.75,0,0,0-1.8,2.16A30.65,30.65,0,0,0,340.84,249.28Z"/><path class="cls-2" d="M345,247.71c-.45.45-.88.94-1.31,1.42,1,0,1.94,0,2.91.05C346,248.68,345.52,248.16,345,247.71Z"/><path class="cls-2" d="M485.41,249.91c-.15-.76-.32-1.53-.48-2.29-.9.33-1.8.67-2.67,1.07.14.76.31,1.51.49,2.26Z"/><path class="cls-2" d="M320.82,248.21c-.81-.34-1.39.75-1.39,1.42.25.41.52.82.8,1.22C320.77,249.86,321.63,249.33,320.82,248.21Z"/><path class="cls-2" d="M454.83,248.86a16.69,16.69,0,0,0-1.54-.73,4.49,4.49,0,0,0-.46,1.48l2.25,1C455,250,454.92,249.43,454.83,248.86Z"/><path class="cls-2" d="M333,248.8a18.94,18.94,0,0,0-1.82,2.18,16.39,16.39,0,0,0,3.4-.61C334.06,249.89,333.59,249,333,248.8Z"/><path class="cls-2" d="M326,253.28a4.9,4.9,0,0,0,2.51-1.63c-.33-.55-.69-1.08-1.07-1.59A2.11,2.11,0,0,0,326,253.28Z"/><path class="cls-2" d="M479.39,252.05c0-.73-.09-1.45-.13-2.18a23.89,23.89,0,0,0-3.16.5l.12,2.23C477.28,252.43,478.33,252.24,479.39,252.05Z"/><path class="cls-2" d="M461,252.62c0-.49,0-1,0-1.49l-2.77-.71c0,.58,0,1.17,0,1.76Z"/><path class="cls-2" d="M323,252.5c-.18-.52-.37-1.05-.58-1.56a15.5,15.5,0,0,0-1.38,1.31c.31.51.64,1,1,1.49C322.34,253.33,322.68,252.92,323,252.5Z"/><path class="cls-2" d="M321.55,295.76a3.82,3.82,0,0,0,2.23-.37,59.66,59.66,0,0,0,25.9-19,41.74,41.74,0,0,0,8.23-16.85,21.1,21.1,0,0,0,.21-8.63c-.69,2-.38,3.81-.73,5.88-1,6.43-4.2,12.37-8.19,17.44a63,63,0,0,1-22.74,17.59c-1.67.84-3.52,1.37-5.12,2.31C320.76,294.26,321.06,295.61,321.55,295.76Z"/><path class="cls-2" d="M472.89,251.11c-.78.13-2.05-.11-2.64.45a16.44,16.44,0,0,0-.05,1.86q1.41-.1,2.82-.24C473,252.49,472.94,251.8,472.89,251.11Z"/><path class="cls-2" d="M318.94,252.3c-.27-.32-.55-.63-.85-.93-.66,1-1.24,2-1.82,3l.77,1.21A9,9,0,0,0,318.94,252.3Z"/><path class="cls-2" d="M466.85,251.52a12.91,12.91,0,0,0-2.56.09c-.06.54-.11,1.09-.15,1.64l2.77.19C466.89,252.79,466.88,252.16,466.85,251.52Z"/><path class="cls-2" d="M454.9,254a33.63,33.63,0,0,0-3.33-1.82,11.52,11.52,0,0,0-.41,2,13.54,13.54,0,0,0,3.57,1.88C454.79,255.37,454.85,254.66,454.9,254Z"/><path class="cls-2" d="M486.18,257.18c.57-1.22.12-2.66,0-4-1,.3-2,.65-3,1,.19,1.57.35,3.14.49,4.71C484.59,258.5,485.87,258.31,486.18,257.18Z"/><path class="cls-2" d="M319.77,254.23a9.16,9.16,0,0,0-1.83,3.08c1-.43,1.95-.92,2.9-1.45A4.21,4.21,0,0,0,319.77,254.23Z"/><path class="cls-2" d="M346.83,255.47c.12-.86-1.46-.66-1.93-.41A1.31,1.31,0,0,0,346.83,255.47Z"/><path class="cls-2" d="M460.53,255.81l-2.55-.65c-.09.73-.17,1.46-.26,2.19.92.18,1.85.32,2.79.43C460.52,257.12,460.53,256.47,460.53,255.81Z"/><path class="cls-2" d="M480.45,259.42a33.07,33.07,0,0,0-.51-4.22,11.12,11.12,0,0,0-3.37.89,25.86,25.86,0,0,0-.08,3.52C477.82,259.6,479.13,259.53,480.45,259.42Z"/><path class="cls-2" d="M336.77,255.74a35.41,35.41,0,0,0,5.88.82C341,255.64,338.66,255.66,336.77,255.74Z"/><path class="cls-2" d="M348.16,255.51c-.33.59-.17,1,.48,1.16A.66.66,0,1,0,348.16,255.51Z"/><path class="cls-2" d="M312.36,261.1c1.79-1,4.22-2.77,3.33-5.15C314.15,257.22,313.29,259.35,312.36,261.1Z"/><path class="cls-2" d="M345.88,257.61c.45-.75-1.08-1.44-1.61-.92C343.9,257.49,345.33,258,345.88,257.61Z"/><path class="cls-2" d="M353.17,257.92a23.88,23.88,0,0,0-2.18-1.55q-.63.18-.54,1.32c.72.48,1.47.93,2.22,1.38C352.83,258.68,353,258.3,353.17,257.92Z"/><path class="cls-2" d="M466.84,256.63a23,23,0,0,0-2.75-.12c-.52.52-.36,1.56-.5,2.25,1.06.1,2.12.18,3.17.22C466.79,258.19,466.81,257.42,466.84,256.63Z"/><path class="cls-2" d="M473.24,256.45l-3.07.13c-.06,1-.1,2-.13,3l3.16,0C473.21,258.52,473.23,257.49,473.24,256.45Z"/><path class="cls-2" d="M341,258.21a17.79,17.79,0,0,0-4.93-.57c1.06,1.26,3.86,1,5.39,1.28Z"/><path class="cls-2" d="M347.24,257.79c-.23.46,0,.78.56,1C349,258.63,348,257.3,347.24,257.79Z"/><path class="cls-2" d="M450.49,258.47a7.89,7.89,0,0,0,3,2.69l.3-2.12C452.88,258.79,451.09,257.1,450.49,258.47Z"/><path class="cls-2" d="M445.89,263.5c.37-1.49,1.77-3.55,1.17-5.06-1.29,1-2.53,2.06-3.83,3.05C444.11,262.18,445,262.84,445.89,263.5Z"/><path class="cls-2" d="M345.13,259.65a1.54,1.54,0,0,0-2.07-.67C342.48,260,344.94,260.82,345.13,259.65Z"/><path class="cls-2" d="M351.49,260.54c.34-.54-1-1.77-1.54-1.37C349.57,259.94,350.81,260.82,351.49,260.54Z"/><path class="cls-2" d="M330.3,259.66a2.81,2.81,0,0,0-3,.25C327.82,260.17,330.25,260.51,330.3,259.66Z"/><path class="cls-2" d="M333.7,259.63c-.51-.47-1.7-.45-1.92.31C332.17,260.21,333.85,260.44,333.7,259.63Z"/><path class="cls-2" d="M335.08,259.75a11.44,11.44,0,0,0,5.27,1.39C339.08,259.89,336.77,259.89,335.08,259.75Z"/><polygon class="cls-2" points="325.28 260.59 325.28 260.12 324.88 259.88 324.47 260.12 324.47 260.59 324.87 260.83 325.28 260.59"/><path class="cls-2" d="M347.49,261.21a.85.85,0,0,0-1.36-1C345.6,261.11,346.79,261.86,347.49,261.21Z"/><path class="cls-2" d="M459.51,260.91l-2.41-.62q-.44,1.26-.87,2.55l2.66,1.16A17.09,17.09,0,0,0,459.51,260.91Z"/><path class="cls-2" d="M344,261.92a9.92,9.92,0,0,0-2.74-.63,8.33,8.33,0,0,0,2.09,1.43C343.61,262.46,343.83,262.19,344,261.92Z"/><path class="cls-2" d="M329.09,261.81c-1.47.12-2.76-.29-3.84.93C326.44,262.59,328.68,263.37,329.09,261.81Z"/><path class="cls-2" d="M332.15,261.91a1.27,1.27,0,0,0-1.53.07C329.63,263.47,332.92,263.28,332.15,261.91Z"/><path class="cls-2" d="M348.77,261.76c0,1.24,1.36,1.6,2.2,2.25C351.66,262.83,349.65,261,348.77,261.76Z"/><path class="cls-2" d="M466.13,262.21c-1.05-.13-2.08-.3-3.15-.33a26.48,26.48,0,0,0-1.06,2.95,10.78,10.78,0,0,0,3.38.6C466.14,264.89,466,263.11,466.13,262.21Z"/><path class="cls-2" d="M324.43,262.47a9.89,9.89,0,0,0-4.22.87A9,9,0,0,0,324.43,262.47Z"/><path class="cls-2" d="M337.9,264.07c.25-.35.5-.71.74-1.07a42.7,42.7,0,0,0-4.21-.94c-.19.42-.39.84-.57,1.26A15.65,15.65,0,0,0,337.9,264.07Z"/><path class="cls-2" d="M452.16,264.09a13.94,13.94,0,0,0-2.36-2,7.51,7.51,0,0,0-1,3c.18.91,1.52,1.46,2.2,2A11.21,11.21,0,0,0,452.16,264.09Z"/><path class="cls-2" d="M346.37,263.86c.46-.8-.83-1.57-1.44-1C344.58,263.64,345.79,264.3,346.37,263.86Z"/><path class="cls-2" d="M473.12,263.5c-.54-1-2.49-.7-3.49-.88a24.8,24.8,0,0,0-.58,2.85C470.57,265.11,472.07,264.75,473.12,263.5Z"/><path class="cls-2" d="M342.39,264.64a14.24,14.24,0,0,0-1.87-1.05c-.31.45-.61.91-.9,1.37.77.28,1.53.56,2.31.83C342.09,265.41,342.24,265,342.39,264.64Z"/><path class="cls-2" d="M444.07,266.46a6.51,6.51,0,0,0-3.29-3c-.7.4-1.38.82-2.07,1.24a18.54,18.54,0,0,0,2.21,2.13C441.85,267.1,443.11,266.57,444.07,266.46Z"/><path class="cls-2" d="M327.26,264.71c-1.48.15-2.95-.59-3.71,1.06C325.05,265.69,326.36,266.25,327.26,264.71Z"/><path class="cls-2" d="M330.33,265.56c.51-1-.69-1.25-1.37-.86C327.41,265.75,329.56,266.46,330.33,265.56Z"/><path class="cls-2" d="M349.87,266.31c-.36-1.08-1.1-2-2.36-1.82A2.68,2.68,0,0,0,349.87,266.31Z"/><path class="cls-2" d="M322.26,265c-1.37.27-3.45-.24-4,1.46C319.68,266.17,321.63,266.65,322.26,265Z"/><path class="cls-2" d="M336.72,266.25a9.2,9.2,0,0,0-4.31-1l-.09.9C333.57,266.26,335.68,267.26,336.72,266.25Z"/><path class="cls-2" d="M345.21,265.94a16.13,16.13,0,0,0-1.49-.62c-.19.4-.38.83-.55,1.25l1.58.76C344.91,266.87,345.06,266.41,345.21,265.94Z"/><path class="cls-2" d="M316.36,265.91a8.25,8.25,0,0,0-3.49,2C314.24,267.51,316.11,267.7,316.36,265.91Z"/><path class="cls-2" d="M456.65,269.81a22.2,22.2,0,0,0,1.18-2.85,24.27,24.27,0,0,0-2.62-1.12,26.53,26.53,0,0,0-1.28,3.12C454.7,269.2,455.88,270.15,456.65,269.81Z"/><path class="cls-2" d="M434.38,268.07a18.73,18.73,0,0,0,3.09-.21,3.49,3.49,0,0,0-1.18-1.61A4.11,4.11,0,0,0,434.38,268.07Z"/><path class="cls-2" d="M340.08,268.44l.67-.92a4.57,4.57,0,0,0-2.84-.63C338.29,267.91,339.2,268,340.08,268.44Z"/><path class="cls-2" d="M347.91,268.92c.59-.75-.7-1.94-1.43-1.39C345.83,268.38,347.1,269.55,347.91,268.92Z"/><path class="cls-2" d="M449.86,269.82a25.2,25.2,0,0,0-2.57-2.29c-.52.88-1,1.79-1.41,2.7a10.88,10.88,0,0,0,2.84,1.25A8.72,8.72,0,0,0,449.86,269.82Z"/><path class="cls-2" d="M324.9,268.11c-1.65,0-2.92-.7-3.69,1.22C322.78,269.28,323.9,269.54,324.9,268.11Z"/><path class="cls-2" d="M328.13,268.12a1.21,1.21,0,0,0-1.41,0c-.48.31-.64.64-.49,1C326.87,269.7,328.66,269.13,328.13,268.12Z"/><path class="cls-2" d="M334.45,268.84a20.09,20.09,0,0,0-3.68-.56c-.27.41-.53.82-.77,1.24,1.26.26,2.52.5,3.79.68Z"/><path class="cls-2" d="M462.46,268.15c-.52,0-1,0-1.57.08-.24.48-.45,1-.65,1.46C461.17,269.28,462.06,269.21,462.46,268.15Z"/><path class="cls-2" d="M319.83,268.57c-1.75.08-3.55-.28-4.29,1.71C317.26,270.07,318.7,270.06,319.83,268.57Z"/><path class="cls-2" d="M343.44,269.7c.39-.74-.81-1.56-1.43-1.07C341.59,269.4,342.83,270.17,343.44,269.7Z"/><path class="cls-2" d="M438.45,272.29c.82,0,1.64-.08,2.45-.18a14.58,14.58,0,0,0-1.94-2.8c-.81.13-1.61.29-2.41.46C437,270.61,437.48,272,438.45,272.29Z"/><path class="cls-2" d="M313.69,269.73a14,14,0,0,0-3.68,1.06,16.48,16.48,0,0,0-1.16,1.78C310.59,271.86,313,271.74,313.69,269.73Z"/><path class="cls-2" d="M338.72,270.81c-.19-.77-1.41-1-2-1.36-.39.45-.78.9-1.16,1.36C336.83,271.1,337.79,272.35,338.72,270.81Z"/><path class="cls-2" d="M346.1,271.67c.64-.76-.37-1.88-1.16-1.21C344.35,271.24,345.31,272.31,346.1,271.67Z"/><path class="cls-2" d="M434.54,273a6.72,6.72,0,0,0-1.29-2.59l-2.13.45C432.21,272.27,432.44,273.23,434.54,273Z"/><path class="cls-2" d="M322.2,271.49c-1.46.07-2.66-.3-3.66,1C319.73,272.34,321.71,272.94,322.2,271.49Z"/><path class="cls-2" d="M332.15,272.17c-1.35-.09-3.13-1.22-4.06.24,1.13.24,2.27.44,3.4.61Z"/><path class="cls-2" d="M342,272c-.61-.32-1.22-.62-1.84-.92-.2.46-.38.92-.56,1.39.59.36,1.18.71,1.78,1.05C341.57,273,341.78,272.52,342,272Z"/><path class="cls-2" d="M428.13,271.42c-.63.31-1.25.65-1.86,1l1.12,1.74a14.17,14.17,0,0,0,2.37-.83C429.22,272.69,428.69,272,428.13,271.42Z"/><path class="cls-2" d="M452.33,273.43a16,16,0,0,0,2.17-1.24,6.3,6.3,0,0,0-2.06-.55C452.21,272.35,451.33,273,452.33,273.43Z"/><path class="cls-2" d="M317,272c-1.85.29-3.4.09-4.19,2.13C314.52,273.75,316,273.62,317,272Z"/><path class="cls-2" d="M334.32,272.79l-.89.77a14,14,0,0,0,2.92.78C336,273.23,335.28,273.16,334.32,272.79Z"/><path class="cls-2" d="M447.43,274.15c-.62-.38-1.31-1.26-2.08-1.14-1.8-.09-2.37,1.72-3.32,2.91,1.43,0,2.86,0,4.29-.08C446.68,275.27,447.05,274.71,447.43,274.15Z"/><path class="cls-2" d="M304.76,278.33c2.32-1.25,4.53-2.28,6-4.62a14.55,14.55,0,0,0-3.66,1.53A10.79,10.79,0,0,0,304.76,278.33Z"/><path class="cls-2" d="M423.8,273.74a3.32,3.32,0,0,0-1.16,1.53c.78-.13,1.55-.28,2.32-.44C424.79,274.07,424.4,273.7,423.8,273.74Z"/><path class="cls-2" d="M339.69,275.38a10.87,10.87,0,0,0-1.66-1c-.21.27-.42.55-.62.84.65.43,1.31.83,2,1.24C339.49,276.09,339.59,275.73,339.69,275.38Z"/><path class="cls-2" d="M436.88,276.54c-.3-.69-.59-1.38-.91-2.06-.62,0-1.24,0-1.85.08a5.45,5.45,0,0,0,.32,2.26Z"/><path class="cls-2" d="M319.7,274.91a9.57,9.57,0,0,0-3.2.67,12.85,12.85,0,0,0-1.5,2.26,14.17,14.17,0,0,0,2.95-.74A14.75,14.75,0,0,0,319.7,274.91Z"/><path class="cls-2" d="M323.86,274.67c-.61,0-1.23,0-1.84.06a8.63,8.63,0,0,0-1.37,2C322.7,276.85,322.88,276.18,323.86,274.67Z"/><path class="cls-2" d="M329.46,275.07a11.24,11.24,0,0,0-2.83-.18,20,20,0,0,0-1.29,1.6l3.16.41C328.83,276.3,329.14,275.68,329.46,275.07Z"/><path class="cls-2" d="M428.9,277.63a26.1,26.1,0,0,0,2.64-.22c-.2-.64-.39-1.29-.58-1.94-.85,0-1.7,0-2.54.16C428.35,276.24,428.26,277.29,428.9,277.63Z"/><path class="cls-2" d="M560.22,298.7a5.12,5.12,0,0,0,5.7.14c2.17-1.27,3.42-3.66,4.44-5.86a24,24,0,0,0,2-11.81,7.36,7.36,0,0,0-2.62-5.13,4.88,4.88,0,0,0-5-.47c-2.42,1.06-3.87,3.48-5,5.75a23.83,23.83,0,0,0-2.24,12.21A7.34,7.34,0,0,0,560.22,298.7Z"/><path class="cls-2" d="M334.06,276.54l-1.9-.83c-.53.48-1.05,1-1.56,1.46l2.26.9Z"/><path class="cls-2" d="M313.52,276.4c-1.23.32-2.87.54-3.81,1.45a37,37,0,0,0-3.7,4.3c1.57-.93,3.19-1.77,4.78-2.64C312,278.89,312.75,277.52,313.52,276.4Z"/><path class="cls-2" d="M426,278.56c-.15-.7-.3-1.39-.47-2.09a15,15,0,0,0-2.64.76c0,.66,0,1.33,0,2Z"/><path class="cls-2" d="M337.29,278.71c.32-.71-1-1.2-1.48-1.45-.45.44-.86.91-1.28,1.38l1.82,1.08C336.67,279.39,337,279.06,337.29,278.71Z"/><path class="cls-2" d="M420.27,278c-.67.17-1.33.36-2,.57-.17.68-.32,1.38-.43,2.08l2.41-.62C420.26,279.33,420.27,278.66,420.27,278Z"/><path class="cls-2" d="M326,279.08a21,21,0,0,0-2.63,0,15.1,15.1,0,0,0-1,1.6C324.06,280.67,325.31,281,326,279.08Z"/><path class="cls-2" d="M316.83,281.81c1.78-.23,2.29-1.14,3.15-2.55C318,279.31,317.73,280.34,316.83,281.81Z"/><path class="cls-2" d="M330.68,280a8.11,8.11,0,0,0-2.08-.25c-.3.42-.59.84-.87,1.27C329,280.87,330.22,281.6,330.68,280Z"/><path class="cls-2" d="M433.14,281.66a10.16,10.16,0,0,0-.78-2.49c-.92.17-1.86.31-2.77.54a5.85,5.85,0,0,0,.77,2.25C431.29,281.85,432.21,281.75,433.14,281.66Z"/><path class="cls-2" d="M312.44,281.17a22.45,22.45,0,0,0-2.87,3.36,12.65,12.65,0,0,0,3.63-1.47,16.42,16.42,0,0,0,2.53-3A11.67,11.67,0,0,0,312.44,281.17Z"/><path class="cls-2" d="M413,282.29a17.26,17.26,0,0,0,1.72-.56,5.45,5.45,0,0,0,.52-1.84C413.38,280.09,413.56,280.81,413,282.29Z"/><path class="cls-2" d="M427,280.58a10.26,10.26,0,0,0-3.68.6c0,.54-.06,1.07-.08,1.61,1.32-.16,2.63-.35,4-.58C427.09,281.66,427,281.12,427,280.58Z"/><path class="cls-2" d="M334.16,281.67c-.18-.83-1.83-1.16-2-.15C332.39,282.3,334,282.54,334.16,281.67Z"/><path class="cls-2" d="M407.91,284.46a6.08,6.08,0,0,0,2-.72,6.28,6.28,0,0,0,.55-1.86C408.59,282.25,408.49,282.92,407.91,284.46Z"/><path class="cls-2" d="M417.53,284.43c1.33-.5,3.46-.18,2.85-2.3a3.49,3.49,0,0,0-2.61.86C417.68,283.46,417.6,284,417.53,284.43Z"/><path class="cls-2" d="M307.81,283.34a20.13,20.13,0,0,0-3.38,1.84c0,.51.07,1,.11,1.52A22.59,22.59,0,0,0,307.81,283.34Z"/><path class="cls-2" d="M321.64,283.23c-2.15-.05-2.75.91-3.8,2.53C319.65,285.54,320.57,284.61,321.64,283.23Z"/><path class="cls-2" d="M327.35,283.28l-2-.16a18.79,18.79,0,0,0-2,2C325.73,285.23,326,285.12,327.35,283.28Z"/><path class="cls-2" d="M331.24,284c-1.13-.25-2.66,0-2.32,1.51C330.45,285.58,330.57,285.22,331.24,284Z"/><path class="cls-2" d="M414.78,283.79a12.68,12.68,0,0,0-1.92.63,10.25,10.25,0,0,0-.43,1.82,16,16,0,0,0,2.13-.69A7.38,7.38,0,0,0,414.78,283.79Z"/><path class="cls-2" d="M427.76,284.17c-1.33.15-2.64.37-3.95.6.15.4.29.81.44,1.21A19.43,19.43,0,0,0,427.76,284.17Z"/><path class="cls-2" d="M311.35,287.94a7.23,7.23,0,0,0,3.39-3A9.85,9.85,0,0,0,311.35,287.94Z"/><path class="cls-2" d="M407.63,286.62c-.11.64-.2,1.29-.29,1.95a14.93,14.93,0,0,0,2-.81,7.16,7.16,0,0,0,.3-2.19C409,285.9,408.3,286.24,407.63,286.62Z"/><path class="cls-2" d="M421.46,287.23c-.19-.55-.39-1.09-.58-1.63a18.52,18.52,0,0,0-3.12.79c0,.68.06,1.36.11,2.05A11.21,11.21,0,0,0,421.46,287.23Z"/><path class="cls-2" d="M309.49,286.86a18.37,18.37,0,0,0-3.93,1.8q.54.42,1.11.78A13,13,0,0,0,309.49,286.86Z"/><path class="cls-2" d="M322.06,287.59c-2.46,0-4.37,2.15-5.9,3.82A12.47,12.47,0,0,0,322.06,287.59Z"/><path class="cls-2" d="M325,288.5c.72.51,1.65-.91.57-1C325,287.67,324.81,288,325,288.5Z"/><path class="cls-2" d="M415.17,290.16l-.21-2.74c-.8.24-1.6.48-2.39.75,0,.87,0,1.73,0,2.6A20.43,20.43,0,0,0,415.17,290.16Z"/><path class="cls-2" d="M404.42,288a12.59,12.59,0,0,0-2.48,1.39,7,7,0,0,0-1.05,2.47,20.64,20.64,0,0,0,3.41-1.82A5.77,5.77,0,0,0,404.42,288Z"/><path class="cls-2" d="M410,292.42c-.16-1-.31-1.9-.46-2.86-.71.27-1.42.54-2.12.83,0,.88,0,1.76.05,2.64A13.72,13.72,0,0,0,410,292.42Z"/><path class="cls-2" d="M404.94,294.39c-.16-.86-.31-1.71-.47-2.57a20.69,20.69,0,0,0-3.93,1.91c-.43.77-.13,1.91-.18,2.77A19.81,19.81,0,0,0,404.94,294.39Z"/><path class="cls-2" d="M589,318.44c-25.92,14.8-53.1,27.71-80.54,39.42Q476.24,371.56,443.19,383c-25.8,8.9-51.78,16.87-78.27,23.49-6.34,1.63-12.76,2.95-19.05,4.76a17.74,17.74,0,0,0-2.37.89,21.59,21.59,0,0,1,4.82,2.37c1.16.88,2.69.05,3.91-.34a99,99,0,0,1,16.89-4.82c2.31-.5,4.63-.69,6.91-1.33,3.74-.95,7.53-1.68,11.27-2.64,11.78-2.95,23.66-5.52,35.4-8.65,11.76-3.39,23.38-6.65,34.86-10.74,14.82-5.05,29.57-10.31,44.1-16.18,16.62-6.47,32.91-14.74,49.09-22.45,3.15-1.26,6.08-3.06,9.11-4.58,4.83-2.37,8.86-5.91,13.52-8.67,6.59-3.86,13.5-8,18.82-13.57a30.91,30.91,0,0,0,5.45-7.07C594.68,315,591.87,316.82,589,318.44Z"/><path class="cls-2" d="M283.44,326.75c1.89-1.78,4.27-3.4,5.67-5.59a113.19,113.19,0,0,0-13.41-.07c-.33,1.55-.46,3.15-.67,4.72A31.79,31.79,0,0,1,283.44,326.75Z"/><path class="cls-2" d="M285.66,330.8c-.7.78.73,1.84,1.43,1.23C287.56,331.31,286.31,330.39,285.66,330.8Z"/><path class="cls-2" d="M284.69,332.4c-.31.57-.14,1,.49,1.15A.66.66,0,1,0,284.69,332.4Z"/><path class="cls-2" d="M288.1,332.37c-.56.19-.71.52-.44,1C288.51,333.86,289.23,332.52,288.1,332.37Z"/><polygon class="cls-2" points="287.15 334.42 287.14 333.95 286.73 333.73 286.33 333.98 286.34 334.45 286.76 334.67 287.15 334.42"/><path class="cls-2" d="M288.37,336.09a.72.72,0,0,0-.36-1.4A.72.72,0,1,0,288.37,336.09Z"/><path class="cls-2" d="M290.91,334.66c-1.19.57-.29,1.91.78,1.27C292.5,335.27,291.78,334.43,290.91,334.66Z"/><path class="cls-2" d="M292.66,335.86c-.58.19-.75.52-.53,1C292.92,337.36,293.75,336,292.66,335.86Z"/><path class="cls-2" d="M283.47,336.38c-.36.55-.25.85.32.91C284.81,337,284.51,335.68,283.47,336.38Z"/><path class="cls-2" d="M286.17,336.25c-.33.59-.17,1,.5,1.1C287.88,337.07,287.2,335.57,286.17,336.25Z"/><path class="cls-2" d="M290.32,336.67c-.16-.62-.56-.75-1.19-.4C288.39,337.31,290.06,337.75,290.32,336.67Z"/><path class="cls-2" d="M293.79,337a.84.84,0,0,0-.63.88c.32,1.06,1.76.47,1.7-.46C294.68,337,294.32,336.83,293.79,337Z"/><path class="cls-2" d="M290.81,337.28c-.48.32-.63.68-.42,1.07C291.46,338.94,292.45,336.94,290.81,337.28Z"/><path class="cls-2" d="M295.5,338.12c-.63.06-1.19,1.25-.33,1.37C295.91,339.43,296.5,338.25,295.5,338.12Z"/><path class="cls-2" d="M283.36,340.18c.89-.12,1.15-1.41.15-1.56C282.71,338.72,282.44,340.06,283.36,340.18Z"/><path class="cls-2" d="M288.74,339.67c.75.46,1.7-1,.56-1C288.71,338.89,288.51,339.23,288.74,339.67Z"/><path class="cls-2" d="M291.88,338.63c-.38.6-.25,1,.42,1.08C293.48,339.39,293,337.88,291.88,338.63Z"/><path class="cls-2" d="M296.6,339.31c-.86.35-.77,1.56.29,1.35S297.66,339.07,296.6,339.31Z"/><path class="cls-2" d="M289.87,341.06c.71.77,2.18-1,1-1.26C290.31,339.83,289.5,340.41,289.87,341.06Z"/><path class="cls-2" d="M293.74,339.7c-.58.23-.76.59-.56,1.05C293.91,341.21,294.82,339.76,293.74,339.7Z"/><path class="cls-2" d="M284.65,340.31c-.56.23-.75.59-.55,1.07C284.84,341.83,285.73,340.37,284.65,340.31Z"/><path class="cls-2" d="M295.82,341.31a.66.66,0,0,0-.95-.52,1,1,0,0,0-.64,1.08C294.7,342.76,295.86,342.22,295.82,341.31Z"/><path class="cls-2" d="M299.54,341.73c.23-.65-.78-1.05-1.29-.87a.88.88,0,0,0-.6,1C298,342.74,299.11,342.31,299.54,341.73Z"/><path class="cls-2" d="M285.51,342.91c.66-.07,1.38-1.33.36-1.4C285.28,341.59,284.59,342.85,285.51,342.91Z"/><path class="cls-2" d="M288.62,341.42c-.54.28-.72.64-.52,1.1C289.25,343.49,290.41,341.05,288.62,341.42Z"/><path class="cls-2" d="M292.34,341.33c-.69-.19-1,.17-1.08,1.05Q292.61,342.37,292.34,341.33Z"/><path class="cls-2" d="M292.82,343.93c.84-.08,2-1.81.36-1.46C292.69,342.65,291.92,343.83,292.82,343.93Z"/><path class="cls-2" d="M297.35,343.49c.53-1-.57-1.68-1.29-.87C295.49,343.6,296.64,344.28,297.35,343.49Z"/><path class="cls-2" d="M290,344c1-.31.81-1.67-.27-.91C289.33,343.68,289.43,344,290,344Z"/><path class="cls-2" d="M295.93,344.22c-.4-.46-.76-.62-1.07-.46a2.67,2.67,0,0,0-1.26,1.54C294.61,346.17,295.39,345,295.93,344.22Z"/><path class="cls-2" d="M290.87,344.38c-.41.64-.3,1,.34,1.08C292.39,345.12,292.06,343.58,290.87,344.38Z"/><path class="cls-2" d="M292.93,347.16c1-.46.91-1.93-.34-1.65C291.66,345.93,291.64,347.54,292.93,347.16Z"/><path class="cls-2" d="M286.39,346.07c-.54.21-.7.55-.45,1C286.77,347.62,287.46,346.17,286.39,346.07Z"/><path class="cls-2" d="M289.24,345.85c-.53.36-.71.75-.54,1.18C289.83,348,291,345.22,289.24,345.85Z"/><path class="cls-2" d="M292.09,347.53c-1.39-.64-1.62-.13-2.31,1C290.58,350,291.42,348.05,292.09,347.53Z"/><path class="cls-2" d="M288.18,348.52c.48-.9-.5-1.52-1.14-.76C286.55,348.67,287.52,349.36,288.18,348.52Z"/><path class="cls-2" d="M288.56,349.36a1,1,0,0,0-.06,1.35C289.75,351.23,290,348.5,288.56,349.36Z"/><path class="cls-2" d="M313.88,352.26c-.63-.29-1.9.68-1.46,1.37C313,354.06,314.18,352.86,313.88,352.26Z"/><path class="cls-2" d="M315.35,354.56c.84-.69-.23-1-.65-1.45l-1.23,1.21C314.26,354.67,314.54,355.34,315.35,354.56Z"/><path class="cls-2" d="M312.19,354.44c-.1-.4-.38-.57-.85-.48a.82.82,0,0,0-.6,1C311.17,355.79,312.2,355.31,312.19,354.44Z"/><path class="cls-2" d="M313,355.07a1,1,0,0,0-.62,1c.31,1,1.72.42,1.57-.49A.81.81,0,0,0,313,355.07Z"/><path class="cls-2" d="M315.89,355.07c-.63.79.5,1.9,1.28,1.29A.91.91,0,0,0,315.89,355.07Z"/><path class="cls-2" d="M309.64,355.62c-1,.39-.72,1.67.35,1.53C310.92,356.78,310.82,355.32,309.64,355.62Z"/><path class="cls-2" d="M314.78,356.26c-.32.32-.61.65-.91,1l1.13,1.1,1-1.16C315.61,356.86,315.2,356.56,314.78,356.26Z"/><path class="cls-2" d="M311.33,356.84c-.84.38-.79,1.85.33,1.56C312.59,358,312.48,356.61,311.33,356.84Z"/><polygon class="cls-2" points="317.74 356.78 317.74 357.26 318.14 357.48 318.53 357.22 318.53 356.73 318.13 356.52 317.74 356.78"/><path class="cls-2" d="M309.14,357.6a.93.93,0,0,0-1.2-.08.94.94,0,0,0-.17,1.36C308.49,359.38,309.79,358.38,309.14,357.6Z"/><path class="cls-2" d="M313,358a.89.89,0,0,0,.43,1.73A.89.89,0,0,0,313,358Z"/><path class="cls-2" d="M316.46,357.88c-.53.29-.72.64-.56,1C316.85,359.53,318.23,357.44,316.46,357.88Z"/><path class="cls-2" d="M309.61,359.09c-.35.58-.25.88.29.93C310.87,359.72,310.65,358.32,309.61,359.09Z"/><path class="cls-2" d="M306.78,359.47c-.45.33-.6.7-.43,1.11C307.38,361.22,308.35,359.06,306.78,359.47Z"/><path class="cls-2" d="M311.34,359.76a1,1,0,0,0-.48,1.44c.68.69,1.81-.18,1.51-1A.83.83,0,0,0,311.34,359.76Z"/><path class="cls-2" d="M308,360.8c-.41.63-.3,1,.32,1.07C309.49,361.55,309.21,360,308,360.8Z"/><path class="cls-2" d="M305.7,361.29a1.11,1.11,0,0,0-.59,1.46C305.85,363.12,306.82,361.29,305.7,361.29Z"/><path class="cls-2" d="M309.64,361.72c-.8.46-.71,1.63.37,1.34C310.85,362.63,310.72,361.37,309.64,361.72Z"/><path class="cls-2" d="M306.8,362.39c-.5.2-1.16,1.39-.3,1.52C307.33,363.83,308.3,362,306.8,362.39Z"/><path class="cls-2" d="M308,363.45c-.65.28-1.33,1.92,0,1.48C308.93,364.64,309.5,363.05,308,363.45Z"/><path class="cls-2" d="M305.12,364.11a22.86,22.86,0,0,0-1.31,2.62l1.27-.79,1.62.1A7.55,7.55,0,0,0,305.12,364.11Z"/><path class="cls-2" d="M313.94,380.71c.67-.14,1.27-1.63.29-1.7C313.56,379.15,312.94,380.63,313.94,380.71Z"/><path class="cls-2" d="M282.23,380.73c1.63,5.14,3.86,10.12,5.64,15.21.92,2,.73,4,3.23,4.57a60.55,60.55,0,0,0-4.5-14.66A16,16,0,0,0,282.23,380.73Z"/><path class="cls-2" d="M312.87,380.72c-.36.92-.71,1.84-1.05,2.77l-1.14-.95c.47.67.85,2.87,1.89,2.45C312.93,383.6,314.32,381.87,312.87,380.72Z"/><path class="cls-2" d="M309.33,385.34c.74.67,1.47-.68,1-1.27C309.63,383.67,308.71,384.67,309.33,385.34Z"/><path class="cls-2" d="M311.75,387.38c.88-1.26.21-1.94-1.09-2.27C310.68,386.28,310.65,386.78,311.75,387.38Z"/><path class="cls-2" d="M308.42,385.85c-.42.52.39,1.63,1,1.3C309.83,386.55,309.12,385.51,308.42,385.85Z"/><path class="cls-2" d="M307.42,387.39c-.33.68.7,1.77,1.38,1.45C309.19,388.26,308,386.93,307.42,387.39Z"/><path class="cls-2" d="M310.2,387.54c-.36.55.38,1.61,1,1.3C311.71,388.26,310.86,387.23,310.2,387.54Z"/><path class="cls-2" d="M308.14,390.73c.45-.63-.09-1.83-.93-1.46C306.72,389.78,307.41,391.36,308.14,390.73Z"/><path class="cls-2" d="M310.65,390.56c.4-.59-.55-1.56-1.17-1.28C309.09,389.86,310.05,390.82,310.65,390.56Z"/><path class="cls-2" d="M308.45,391.4c.39.49,1,1,1.67.79A.93.93,0,0,0,308.45,391.4Z"/><path class="cls-2" d="M300.18,400.07a33.2,33.2,0,0,0,5.37,0,2,2,0,0,0,1.78-1.26c.8-1.45,1.42-3,2.12-4.5-1-.53-1.95-1.06-2.93-1.56A77.11,77.11,0,0,0,300.18,400.07Z"/><path class="cls-2" d="M335.93,419.6c-3.77-1.47-6.8,0-10.51.74a97.16,97.16,0,0,1-25.86,3.7,25.78,25.78,0,0,0,5.71,1.66c4.48,1.37,9.23,1.07,13.82.54a136.53,136.53,0,0,0,20-4.29A7.1,7.1,0,0,0,335.93,419.6Z"/><path class="cls-3" d="M469.1,53c3.24-.23,6.57.06,9.77-.4a70.77,70.77,0,0,1,9.67-.31,32,32,0,0,1,13,2.64c.63.34,1.59.75,1.55,1.58-1.1,2.33-2.56,4.88-4.68,6.43-4.76,3.72-10.15,5.27-15.65,7.64-5.05,1.73-10.07,3.44-15,5.56a14.7,14.7,0,0,0-6.63,5.92,4.17,4.17,0,0,0,.91,4.39,17.66,17.66,0,0,0,8.76,5.45c6.25,1.63,12.19,4,18.38,5.88,3,.88,6,2.13,9,2.89,2.32-.54,4.49-1.76,6.77-2.5,6.28-2.15,12.35-4.82,18.51-7.28,8.1-3.55,16.17-7,23.86-11.4a114.25,114.25,0,0,0,20-13.6c.71-.54.88-1.7-.09-2-3.58-1.32-7.34-2.17-11-3.24-5.4-1.09-10.83-1.9-16.14-3.44-4.05-.94-8.09-1.88-12-3.21s-8.21-2.65-12.25-4.2c-4.85-1.94-10-3.11-14.81-5-6.74-2.33-13.85-4.27-21-4.36-8.3-.23-16.74.84-25,1.67-3.51.24-6.42,1.75-9.67,3-3.44,1.38-7.46,2.87-10.18,5.46a21.33,21.33,0,0,0,8.5,2A101.78,101.78,0,0,0,469.1,53Z"/><path class="cls-4" d="M397,51.75c-7.77.78-15.52,1.94-23.29,2.63-7,.65-14,1.19-21,1.9-4.56,0-9.07.53-13.63.61.3,1.3,1.16,1.37,2.24,1.64,10.33,2.15,20.58,4.63,30.73,7.53,13.26,3.56,26.53,7.12,39.85,10.46,10.19,2.89,20.45,5.58,30.72,8.17,1.58.41,3.18.69,4.79.94-1.88-2.13-4.52-4.24-5.48-6.94a7.46,7.46,0,0,1,0-5,9.24,9.24,0,0,1,4.7-3.34c13.77-4.36,27.75-7.18,41.87-10.11a83.56,83.56,0,0,0,9.6-2.63c-3.32-.48-6.72-1.06-10.08-1.21-2.85.17-5.67,1.07-8.52,1.4-3.37.45-6.75.09-10.1.56a74.9,74.9,0,0,1-18.32.36c-5.5-.3-11-.88-16.22-2.81a9.05,9.05,0,0,1-4.4-3.28,6,6,0,0,1,1.2-6.06,39.82,39.82,0,0,0-6.06.85c-5.67.81-11.38,1.38-17,2.36C404.64,50.32,400.93,51.37,397,51.75Z"/><path class="cls-5" d="M283.26,138.1c-8.45-6.81-17.39-12.92-25.81-19.78-4-3-7.94-6-11.94-9-5.35-3.94-10.3-8.32-15.5-12.44-5.25-4.65-10.74-9-16.19-13.43a56.93,56.93,0,0,1-6.45-6.26c.07-2.37.92-4.73,3.16-5.81,4.05-1.77,8.27-2.37,12.58-3a139.73,139.73,0,0,1,22.74-1.7c4.57-.12,9.08.45,13.64.5,2.31,0,4.53.55,6.82.68,4.18.22,8.32,1,12.51,1.24a121.58,121.58,0,0,0,13.64.45c6.18.12,12.64-.95,18.76-1.36,5-.77,10.3-.52,15.35-.45,7.7.32,15,2.19,22.69,3a78.14,78.14,0,0,0-10.68-5,169.08,169.08,0,0,0-31.91-9,195.62,195.62,0,0,0-20.87-2.59c-2.92,0-5.76-.65-8.68-.63-7.55-.11-15.22-.34-22.74.52a100.58,100.58,0,0,0-16.49,2.14A182.08,182.08,0,0,0,217.52,63c-3.66,1.7-7.77,3.48-10.86,6.12-1.88,1.85-3.76,4.64-3.63,7.38a11,11,0,0,0,3,6.28c4.56,4.89,9.87,8.19,14.86,12.39,11.45,9.62,23.43,18.36,35.76,26.82,3.23,2.4,6.42,4.91,9.79,7.14,6.1,3.78,12.09,8.51,18.63,11.52A4.78,4.78,0,0,0,283.26,138.1Z"/><path class="cls-6" d="M529.36,95.18c-5.07,2-10.18,3.89-15.35,5.62-2.69.93-5.29,1.25-7.8,2.61,6.05,1.85,12.6,3.45,18.47,6.1,1.63.74,3.67-.06,5.34-.35,8.84-1.74,17.86-2.64,26.75-4,3.64-.69,7.34-.64,11-1.4,8-1.11,16.12-2.1,24.17-3.18a17.56,17.56,0,0,0-2.59-4.4c-3.43-5.65-6.4-11.52-9.36-17.42a75.29,75.29,0,0,0-6-10,8.66,8.66,0,0,0-2.55,2,90.54,90.54,0,0,1-16.87,12.3C546.53,87.86,538,91.52,529.36,95.18Z"/><path class="cls-7" d="M493.65,114.55c2.84.31,5.69.17,8.53.36,3.59.42,7.2.74,10.8,1.1,5.74.83,11.06.72,16.57,2.92,2.22.95,4.81,1.94,6.38,3.83l.79.47a25.64,25.64,0,0,1,5.27,3.61,81,81,0,0,1,7.4,6.45c4.76,4.43,9.5,8.89,14.09,13.49-4.55-6.56-10.12-11.88-15.91-17.31-4.5-3.84-9.17-8.58-14.61-11a164,164,0,0,0-27.11-10.28c-6.33-1.85-12.53-4-19-5.3-16.29-4.25-32.56-8.77-49-12.5-13.81-3.61-27.55-7.48-41.38-11q-14.53-3.81-29-7.92c-3.07-.66-6.05-1.93-9.16-2.25,8,4.75,16.31,8.85,24.2,13.79,7,3.8,13.74,7.88,20.69,11.7,9.09,4.73,18.11,9.56,27.27,14.16,7.43,4.12,15.27,7.38,22.71,11.46,3,1.64,6.12,2.9,9.11,4.53,6.58,3.59,13.41,6.68,20,10.25,5.91,3.39,12,6.46,18.08,9.53,9,5.1,18,10.27,27.45,14.6a17.58,17.58,0,0,0,5,1.71c5,.78,10.27.46,15.35.45a42.39,42.39,0,0,0,11-1.75c1.84-.55,2.78-2,4.06-3.37a21,21,0,0,0,3.47-5.39c-.39-.46-.78-.93-1.18-1.39a22.74,22.74,0,0,1-3.39,2.88c-2.92,2-6.14,4.35-9.5,5.43a12.8,12.8,0,0,1-6.74-.73c1.85-.51,3.77-.8,5.59-1.39a28.14,28.14,0,0,0,7.29-3.95c-3.09-3-6.48-5.66-9.74-8.48a11.91,11.91,0,0,0-2.2-1.44c-1,2.69-1.8,5.19-4,7.14a12.13,12.13,0,0,1-11.6,2.51c-7-2.18-11.89-9.77-11.31-17a13.3,13.3,0,0,1,2.66-8.4c-2.8-1.29-5.43-.81-8.48-1.33a101.35,101.35,0,0,0-16.52-.83c3.86,4.58,8,8.94,12.12,13.24,2.63,2.88,5.31,5.68,8.09,8.41,3.66,3.89,9.36,5.94,14.15,8l.53,1c-3.8-.25-7.61-2-11.08-3.5s-5.41-3.89-7.88-6.41c-4-4.1-7.93-8.36-11.88-12.56C498.08,128,494.24,124,490.5,120c-1.68-1.81-3.5-3.23-4.82-5.21C488.18,114,491.08,114.36,493.65,114.55Z"/><path class="cls-8" d="M304.27,113.76a88.68,88.68,0,0,1,9.21-15.11,159.52,159.52,0,0,1,10-12.75c1.64-1.86,3.5-3.24,4.88-5.31-2.5.36-4.73,1.39-7.17,2-3.51.9-7,2-10.51,2.73-4.25,1-8.22,2.48-12.51,3.21-1,.25-2,.22-2.38,1.32A67.15,67.15,0,0,1,291,104c2.39,1.61,4.83,3.14,7.12,4.85C300.26,110.42,302.16,112.22,304.27,113.76Z"/><path class="cls-9" d="M619.76,219.82a63.84,63.84,0,0,0-6.06,4.11c-6.42,4.42-12.74,8.94-19.33,13.1-4.17,2.43-8.33,4.9-12.54,7.25a40.16,40.16,0,0,1-6.81,3.26,37,37,0,0,1,3-3.17c2.83-2.7,5.08-5.85,8.06-8.43,3.27-2.79,6.59-5.49,9.65-8.52,3.74-3.08,7-6.69,10.72-9.78,2.84-2.64,5.85-5.1,8.63-7.82,1.09-1.15,2.4-1.94,2.21-3.73-.14-4.71-1-9.42-1.36-14.13-.43-5.22-1.61-10.21-1.55-15.45-.36-3-1.17-6-1.18-9.08-1.49-10.23-3.26-20.46-4.76-30.69-.66-4.12-1.65-8.17-2.62-12.23a52.64,52.64,0,0,0-5.71-15.87c-.56-.84-1.25-1.94-2.41-1.87-3.58-.14-7.07.87-10.67,1-4.26.88-8.56,1-12.84,1.74-5.78.9-11.63,1.35-17.38,2.38-6.78.92-13.7,1.28-20.42,2.59a44.48,44.48,0,0,1,5.26,3.28A199.08,199.08,0,0,1,561,135.36a126.21,126.21,0,0,1,9.33,11.8c.74,1.15,1.63,2.36,1.53,3.8a5.57,5.57,0,0,1-1.17,2.54c-2,2.74-3.95,5.5-6,8.19-.8,1-1.47,2.59-2.78,2.93-2.18.9-4.46.79-6.57,1.92-.37,2.78-1.49,5.12-2.28,7.8-4.63,15-11,28.28-14,43.69-.76,5.14-2,10.14-2.52,15.33-.13,1.74-.53,3.42-.83,5.13-.36,2-.07,3.82-.87,5.73-4.59-2.38-9.48-3.68-14.33-5.36-.1-3.56,1-6.93,1.61-10.54,1.56-11.08,3.9-22.1,6.22-33,.42-1.9.39-4,2-5.32,6.43-5.51,12.81-11.06,18.75-17.11,1.82-1.91,3.79-3.62,5.69-5.43l.12-1.07c-2,.48-3.22,1.78-4.9,2.85-3.66,2.38-7.79,4.79-10.87,7.91-2,2-4.24,3.69-6.26,5.67s-4.72,3-5.32,6.16c-4.4,16.81-6.89,34.66-9.16,51.89.13.9,1.17,1,1.87,1.33,2.9.88,6,1.14,9,1.76,2.58.54,5.58.2,7.7,1.87a2.7,2.7,0,0,1,.7,3.17c-1.14,1.73-3.36,2.87-5.08,3.93-7.3,4.16-14.64,8.23-22.11,12.05-5.74,2.85-11.11,6.33-16.75,9.37-4.6,2.69-9.33,5.11-14.07,7.54-8.6,4.47-17.68,7.75-26.18,12.47-6.93,3.81-14.31,6.47-21.5,9.71q-7.87,3.35-15.8,6.58c-5,2.34-10.21,3.93-15.41,5.85-2.51,1-5.21,1.3-7.68,2.34-2.88,1.21-6.1,1.63-9.1,2.53-5.1,1.54-10.59,2.27-15.84,3.17a135.14,135.14,0,0,1-21.85.49c-10.95-1.44-22.09-5-32.72-8.05-3.59-.95-7.11-2.74-10.75-3.32a51.52,51.52,0,0,0-4.84,3.65c-.51.5-1.42.84-1.3,1.67,1.7,1.39,3.56,3,5.67,3.66l.13.08a31.93,31.93,0,0,0,5.81,3.48,176.36,176.36,0,0,0,27.66,12.06,49.66,49.66,0,0,1,12.59,4.39c2,1.14,4.13,3,4,5.54a13.85,13.85,0,0,1-2.31,8.31c-2.28,3.59-4.7,7.09-6.92,10.73-3,4.37-6.15,8.65-9.09,13.07-2.55,3.58-5.14,7-7,11,2.81-1.4,5.37-3,7.15-5.67q6.18-9.15,12.68-18.08a103,103,0,0,0,6.87-10c1.72-3,3.49-5.65,3.17-9.31.18-2.71-1.61-3.84-3.12-5.74,13.15-6.17,26.24-12.52,39.59-18.24,6.27-2.93,12.67-5.62,19-8.33,34.27-15.25,68.68-29.84,103.11-44.7,8.85-3.83,18.19-6.62,27.26-10.09,1.69-.64,3.38-1.25,5.09-1.84-1.6,2.58-4.18,4.23-5.92,6.73a123.16,123.16,0,0,0-10.7,13.18,118.77,118.77,0,0,0-10.13,15.92c-7.15,12.93-13.2,27.13-15.74,41.75-.47,3.86-1.45,7.56-1.45,11.47-4.69,2.26-9.47,4.27-14.17,6.49-11,5-21.93,10.32-33.23,14.6-9.8,3.44-19.45,6.84-29.57,9.23-4.41,1.24-8.77,2.62-13.17,3.88-6.3,1.71-12.59,3.44-18.85,5.28-6,1.86-12,3.14-17.9,5.37a182.21,182.21,0,0,0-20.47,8,2.61,2.61,0,0,0-1,1.34,14,14,0,0,0,3.08-.44c3.84-1,7.71-1.94,11.56-3,6.12-1.76,12-4.09,18.19-5.62,5.42-1.29,10.7-3.08,16.09-4.5,9.55-2.42,18.91-5.58,28.22-8.76q28.33-9.6,56.11-20.77c3.89-1.66,7.77-3.38,11.58-5.25,1.72-.82,3.54-1.05,5.28-1.73,1.57-.65,2.76-1.83,4.32-2.53,3.89-1.71,7.79-3.43,11.62-5.27,1.26-.64,2.55-.58,3.87-.92,8.39-3.8,16.62-7.85,24.91-11.86,4.92-2.47,9.9-4.77,14.69-7.49,1.43-.89,2.38-2.57,3.5-3.81,4.88-5.52,8.16-11.86,12.23-18,5.32-9,10.14-18.9,16.43-27.17A82.83,82.83,0,0,1,606.72,264c3.7-4.33,7.77-9,10.27-14.1,1.6-3.12,2.25-6.35,3.2-9.75s1.77-6.63,1.74-10.21C622.09,226.55,620.68,223.12,619.76,219.82Zm-68.09,79.94a15.64,15.64,0,0,1-1.63-8.43c-.11-4.56,1.44-9,3.52-13,2.39-4,5.35-7.45,10.07-8.66,3.38-1,7.37,1,9,4,2.38,4.24,2.49,9,1.49,13.66a25.2,25.2,0,0,1-7.49,13.91,18,18,0,0,1-5.45,3.13C557.37,305.61,553.34,303.24,551.67,299.76Zm-26.82,25.77c-.24,4.57-.86,9.06-.8,13.65-2.74,1.6-5.71,2.61-8.54,4.05a55,55,0,0,1-7.33,3,114.88,114.88,0,0,1,11.51-39.56c5.16-10.86,11.13-21.25,18.75-30.58-1.22,2.75-2.8,5.32-4,8.11a136.91,136.91,0,0,0-5.27,13.6C526.37,306.85,525.76,316.18,524.85,325.53Z"/><path class="cls-10" d="M602.88,277.24c-6.24,8.22-10.83,17.16-16.08,26-3.2,5-6.66,9.87-10.12,14.72a17.47,17.47,0,0,0,3.31-1.54q9.71-5.48,19.26-11.16a2.46,2.46,0,0,0,1.44-2.07c.68-9.09,2.94-17.61,5.47-26.31.69-2,1.45-4,2-6.05C606,272.72,604.64,275,602.88,277.24Z"/><path class="cls-11" d="M337.37,318.73c8.11,1.49,16.18,2.36,24.42,1.39,3.93,0,7.69-.82,11.57-1.24,13.1-1.9,25.65-5.74,38-10.48a116.46,116.46,0,0,1,11.18-4.29,30.32,30.32,0,0,0,7-3.14l.9-.39c3.06-1.38,6.42-2.25,9.34-3.89,5.28-3.17,11.07-5.45,16.46-8.45,14.33-7,28.36-14.63,42.54-21.95,7.8-4.62,16-8.4,23.79-13.11,2-1.27,4.21-2,6-3.55l.76-.29c-3.28-1.09-6.77-1.44-10.08-2.47-1.48-.45-3.59-1.09-5.07-.42-5.38,2.94-10.81,5.75-16,9-5.64,3-11.44,5.73-17.22,8.42-11.94,6-24.08,11.45-36.06,17.35a18.6,18.6,0,0,1-2.6,1.31c-4.07,1.27-8,3.5-11.78,5.42-12.1,5.26-24,11-36.2,16A145,145,0,0,1,380.23,308c-3.86.42-7.73,1.1-11.61,1.35-5.14,0-10.24.25-15.34-.48-4.68.19-8.73-1.63-13.3-2.09-1.88-.46-3.72-1.07-5.57-1.63l-.83-.09.23,1.6a16.85,16.85,0,0,1-3.74,1.08,4.81,4.81,0,0,0-3.76-1.44,5.26,5.26,0,0,1-2,1.53,86,86,0,0,1-8.53,1.9l-1.13-.76c3.31-1.59,6.29-3.88,9.65-5.42,2.51-.38,4.75,1.16,7.4.49-2.54-.75-5-1.82-7.43-2.75-1.67-.6-2.76-1.65-4.51-1.78a119.12,119.12,0,0,1-10.18,8.32c-.92.82-2,1.27-2.19,2.58a106.78,106.78,0,0,0,19.31,6A64.2,64.2,0,0,1,337.37,318.73Zm29.08-4a11,11,0,0,0-3.64-.49l-.9,1.67C358,317,354,317.73,350.08,318.7l-1-.35c.6-.34,1.2-.68,1.79-1,3.54-2.08,7.52-3.42,11.24-5.16a43.23,43.23,0,0,0,7.63-.5c1,0,2.33-.51,2.82.75A32.08,32.08,0,0,1,366.45,314.76ZM340.25,309c1-.57,1.85-.3,2.93-.11,3.08.82,6.25.85,9.36,1.45l0,.59a29.69,29.69,0,0,1-7.24,2.2c-2,.33-3.66,1.26-5.7,1.21a53.69,53.69,0,0,0,6.3-2c-.12-1.62-2.49-1.32-3.67-1.54-1.14,2.2-3.35,2-5.47,2.59-2.2.34-4.76,1.61-6.89.67C333.44,312.6,336.71,310.54,340.25,309Z"/><path class="cls-12" d="M388.82,367.77c5.44-3,11-5.32,16.09-8.86,3.64-2.15,5.72-5.5,9-8,2.83-2.15,6-3.88,9-5.87,4.74-3.25,9.69-6.17,14.45-9.38,19.08-12.26,37.21-25.82,56.24-38.14,3.16-2.33,6.52-4.35,9.66-6.67-9.59,5-18.87,10.65-28.27,16-17.68,10.46-35.52,20.15-52.74,31.74-12.31,7.62-24.91,14.95-37.3,22.47-15.52,10.06-31.26,19.74-47.36,28.83-2.2,1.28-4.23,2.83-6.42,4.12a15.05,15.05,0,0,0,2.4-.41c10.86-4.41,21.59-9.28,32.09-14.5C373.43,375.42,381.12,371.6,388.82,367.77Z"/><path class="cls-13" d="M283.36,296.82a9.59,9.59,0,0,0-3.63.6c-.66,3.31-1.91,6.88-1.54,10.27,6.32.09,12.53-.35,18.81.31,2.49-.09,4.85.78,7.3.76,4.72-3.54,8.5-7.08,13.13-10.51-.29-.55-.28-1.35-1-1.51-8.24-.26-16.55-.15-24.8.11C288.89,296.71,286.13,296.86,283.36,296.82Z"/><path class="cls-14" d="M299.24,312.77a91.62,91.62,0,0,0-10.19-.92c-3.91-.12-7.87-.62-11.78-.42-1,1.67-.87,3.43-1,5.32,4.64-.76,9.82-1.7,14.48-.82,1.28.2,2.59,1.4,3.86,1.14A31.87,31.87,0,0,0,299.24,312.77Z"/><path class="cls-15" d="M285,49.05c1.33.66,3.13.33,4.6.46,4.56.39,9.08,1,13.62,1.56,2.26.07,4.35.86,6.62.76l1.15.41c7.21,0,14.54.17,21.78,0,5.11-.65,10.23-.09,15.31-.91,4.56-.19,9.15-.56,13.66-1.18,11-.57,22-2.31,33-3.62,5.15-.75,10.28-1.81,15.42-2.56,4.53-.75,9.1-1,13.61-1.94A54.31,54.31,0,0,0,413,39.71c-6.62-.22-13.28,0-19.9.13a28.22,28.22,0,0,0-3.43.32c-3.2.49-6.43.13-9.65.57-2.46.32-4.91.08-7.36.52-2.83.51-5.67.21-8.53.57s-5.63.08-8.44.67c-2.66.38-5.38.14-8.06.51-2.87.31-5.7,0-8.51.53-2.64.49-5.32.21-8,.59-3.24.38-6.43.05-9.64.54s-6.45.17-9.68.58c-5.09.4-10.24.19-15.34.44-3.22.54-6.45.2-9.67.61a94.23,94.23,0,0,0-14.93,2.51C276.24,49.29,280.64,48.8,285,49.05Z"/><path class="cls-15" d="M285,49.05c1.33.66,3.13.33,4.6.46,4.56.39,9.08,1,13.62,1.56,2.26.07,4.35.86,6.62.76l1.15.41c7.21,0,14.54.17,21.78,0,5.11-.65,10.23-.09,15.31-.91,4.56-.19,9.15-.56,13.66-1.18,11-.57,22-2.31,33-3.62,5.15-.75,10.28-1.81,15.42-2.56,4.53-.75,9.1-1,13.61-1.94A54.31,54.31,0,0,0,413,39.71c-6.62-.22-13.28,0-19.9.13a28.22,28.22,0,0,0-3.43.32c-3.2.49-6.43.13-9.65.57-2.46.32-4.91.08-7.36.52-2.83.51-5.67.21-8.53.57s-5.63.08-8.44.67c-2.66.38-5.38.14-8.06.51-2.87.31-5.7,0-8.51.53-2.64.49-5.32.21-8,.59-3.24.38-6.43.05-9.64.54s-6.45.17-9.68.58c-5.09.4-10.24.19-15.34.44-3.22.54-6.45.2-9.67.61a94.23,94.23,0,0,0-14.93,2.51C276.24,49.29,280.64,48.8,285,49.05Z"/><path class="cls-16" d="M469.78,49c8.15,0,17-1,25,.73,3.38.53,8.08,1.17,10,4.45,1.49,2.24-.2,4.73-1.11,6.82,3.4.12,6.57-.86,9.92-1.17,2.66-.26,5.29-.75,8-.93,4.41-.48,8.74-.07,13.14-.36-2.57-1.27-5.24-1.8-7.94-2.66C519.06,53.42,511.58,50.44,504,48c-7.65-2-14.49-5.77-22.71-6.08-3-.49-5.81,0-8.76.34-7.31,1.28-14.58,1.88-21.77,3.92-2.93.89-5.66,1.28-8.22,2.75a21.11,21.11,0,0,0,4.55.61C454.65,49.5,462.19,49.71,469.78,49Z"/><path class="cls-17" d="M381.13,54.53c-8.55,1-17.16,1.84-25.69,3.08a37.9,37.9,0,0,0-6.69,1.15c3.2,1,6.45,1.33,9.72,2.09,4.51.9,8.93,2.16,13.44,3,10.42,2.79,20.91,5.37,31.3,8.26,1.16.27,2.15.69,3.3.14,8-3.17,15.7-6.87,23.79-9.72,2.7-1.15,5.63-1.77,8.2-3.18-3.59-1-7.16-2.13-9.93-4.75-1.53-1.44-2.2-3.22-3.07-5.08-5.12.51-10.19,1.3-15.33,1.72C400.51,52.53,390.78,53.21,381.13,54.53Z"/><path class="cls-18" d="M461.72,63.29c2.65-.61,5.33-1.08,8-1.72-6.79-.92-13.56-.59-20.38-.84a11.84,11.84,0,0,0-4.42.62c-6.5,2.12-13.1,4.1-19.47,6.59q-5.67,2.16-11.32,4.35a25,25,0,0,0,6.8-.59C434.65,69.48,448.08,66.06,461.72,63.29Z"/><path class="cls-19" d="M505.57,73.19c-8.05,2-16.22,3.2-24.17,5.65-5.22,1.27-10.4,2.63-15.52,4.28.32,1.74,2,2.62,3.26,3.68a16.32,16.32,0,0,0,5.46,2.62c1.45.46,2.8,1.25,4.27,1.6A12.91,12.91,0,0,0,484,90.1c7.17-2.24,14.39-4.23,21.65-6.11,6.16-2,12.5-3.14,18.65-5.12,5.81-1.4,11.53-3.13,17.34-4.55,6.29-1.87,12.74-3.12,19.05-5,2.75-.44,4.62-2.72,6.67-4.43-2.08-1.36-4.82-1.82-7.24-2.17-6.28.85-12.49,2.29-18.75,3.33-8.09,1.33-16.08,3.17-24.15,4.63C513.37,71.7,509.5,72.45,505.57,73.19Z"/><path class="cls-20" d="M533.3,96a49.7,49.7,0,0,1-4.95,2.34c5.1.47,10.18-1,15.32-1.15,14.15-1.74,28.25-2.87,42.45-4,0-1.88-1.93-3.58-3-5a162.65,162.65,0,0,1-9.54-14.37c-2.19,1-4,2.64-6.1,3.76-3.42,1.87-6.48,4.25-10,6C549.45,87.71,541.25,91.61,533.3,96Z"/><path class="cls-21" d="M485.36,113.17c3.34-.86,7.17-.45,10.56-.13,3,.16,6.07.2,9.1.23,2.85,0,5.63.63,8.49.52-2.54-1.27-5.25-1.86-7.9-2.81-8.86-3.07-17.8-5.81-26.82-8.36-8.89-2.77-17.94-4.7-26.92-7.15-24.29-6.1-48.2-13.69-72.56-19.4l-.48-.09a4.77,4.77,0,0,0-2,.49c8.72,3.47,17.73,6.25,26.51,9.61,7.7,3.18,15.48,6.15,23.21,9.26,4.3,1.58,8.37,3.63,12.76,5,6.48,2.55,13,5,19.34,7.9,6.73,3,13.6,5.73,20.48,8.38,2.38.93,4.54,2.22,7,2.9-1-1.65-3.05-2.76-2.58-4.84C483.67,113.72,484.62,113.41,485.36,113.17Z"/><path class="cls-22" d="M548.09,76.69c-10.24,2.12-20.23,5.44-30.45,7.66-9.15,2.26-18.26,4.67-27.4,7a40.27,40.27,0,0,0-5.49,1.45.76.76,0,0,0,.46.52c1.79.86,3.71,1.47,5.58,2.15,4.56-1.78,9.09-3.63,13.71-5.26,4.37-1.55,8.62-3.39,13.07-4.71,7.34-3,15-4.63,22.69-6.41C542.92,78.85,545.61,77.66,548.09,76.69Z"/><path class="cls-23" d="M557,113.81c-5.07.76-10.45.4-15.47,1.4,6.73,4.63,13.55,10,18.68,16.36,2.48,2.67,4.57,5.69,7,8.39a20.34,20.34,0,0,0,6.05-.63c6-1.29,12.12-2.24,18.1-3.71,5.09-.89,10.38-1.59,15.29-3.23a61.05,61.05,0,0,0-2.41-8.19,101.1,101.1,0,0,0-5.86-14.54c-3.7,0-7.2,1.08-10.91,1.45-7.09.63-14.35,2.07-21.61,2.15C562.88,113.54,560,113.69,557,113.81Z"/><path class="cls-24" d="M513.42,139.13c2,2.12,3.83,4.8,6.36,6.26a38.07,38.07,0,0,0-1.38-4.91,20.09,20.09,0,0,1-.42-6.56c-2.71-1.55-5.55-2.71-8.36-4s-5.55-2.65-8.41-3.77C504.88,130.77,509.57,134.62,513.42,139.13Z"/><path class="cls-25" d="M576.14,142.66c7.74.19,15.49,0,23.22.09,2.82,0,5.56.22,8.36,0a32.84,32.84,0,0,0-.68-7,26,26,0,0,0-4.19,1C594,139,585,140.41,576.14,142.66Z"/><path class="cls-26" d="M555.08,152.61c-2.87-1.13-5.7-2.29-8.51-3.58-3.09,1.84-6.05,3.53-9.66,4.17a20.93,20.93,0,0,0,11.23,2,27.55,27.55,0,0,0,6.72-2.13Z"/><path class="cls-27" d="M564,196.07c-4.47,2-8.75,4.35-13.1,6.58A88.69,88.69,0,0,0,549,214.47a12.84,12.84,0,0,0,2.86-1.33c11.45-6.8,23.14-13.22,34.67-19.87q12.39-7,25-13.66a12.35,12.35,0,0,0,1.78-1.07,20.64,20.64,0,0,0-.11-5.55,48.35,48.35,0,0,0-6.23,2.58C592.59,182.27,578.11,188.87,564,196.07Z"/><path class="cls-28" d="M564.19,244.71c3.61-1.88,8.1-3.13,11.23-5.78,4.72-4.19,9.88-7.89,14.63-12.05,7.35-5.71,14.84-11.19,22.19-16.91,1.37-1.19,3.61-2.25,4.44-3.86-.19-2.89-.8-5.75-1-8.64-.19-4.87-1.35-9.6-1.33-14.5-1.91-.08-3.1,1.2-4.77,2-8,4.08-15.85,8.43-23.68,12.81-11.46,6.58-23.11,12.82-34.49,19.53-1.12.74-2.85,1.42-3.59,2.55-1.05,3.78-2.28,7.53-3.24,11.34-.9,4.3-2.34,8.45-3.55,12.68-.87,2.37-1.24,5.21-3.41,6.78-3.83,3-8.19,5.49-12.28,8.14-3.23,2.14-6.75,3.76-9.9,6-4.46,2.59-8.78,5.41-13.18,8.1a34.46,34.46,0,0,0,5.49-2.26c13.23-5.84,26.26-12,39.39-18C552.73,249.8,558.6,247.55,564.19,244.71Z"/><path class="cls-29" d="M621.22,226.72c-2.69.51-5,2.81-7.36,4.09-4.83,2.69-9.4,5.79-14.23,8.5-4.52,2.93-9.32,5.34-13.82,8.31q-8.62,5-17.11,10.15a51.69,51.69,0,0,0-4.87,3.13,29,29,0,0,0-6.35,7.64c2.61-1.58,5.25-3.53,8.13-4.53a8,8,0,0,1,6.51,1.09c4.4,2.7,5.6,7.76,6,12.59.23,7.61-1.38,15.67-5.31,22.27-1.66,2.88-4,5-6.36,7.29-3.91,4.07-10.84,5-15.82,2.55-3.75-2.33-5.72-6.29-6.55-10.51-.64-4,.3-7.86,1.1-11.8-2.93,5.37-6.25,10.93-8.06,16.79a76.62,76.62,0,0,0-3.81,16.6,59,59,0,0,0-.64,11.95,6.32,6.32,0,0,0,.59,2.21c11.53-6.12,22.69-13,33.65-20a42.33,42.33,0,0,0,5.62-5.58c1.82-2,2.55-4.56,4.16-6.72,1.4-1.87,2.56-3.87,3.83-5.82,3.27-4.87,5.39-10.34,8.7-15.22a104,104,0,0,1,11.21-14.3c4.23-5.23,8.73-10.3,12.63-15.78a75.11,75.11,0,0,0,6.13-12.06C620.5,235.3,621.84,231.25,621.22,226.72Z"/><path class="cls-30" d="M520.63,248.9a28.17,28.17,0,0,0,7.93.73l.76-.29c-3.28-1.09-6.77-1.44-10.08-2.47-1.48-.45-3.59-1.09-5.07-.42-5.38,2.94-10.81,5.75-16,9-5.64,3-11.44,5.73-17.22,8.42-11.94,6-24.08,11.45-36.06,17.35a18.6,18.6,0,0,1-2.6,1.31c-4.07,1.27-8,3.5-11.78,5.42-12.1,5.26-24,11-36.2,16A145,145,0,0,1,380.23,308a8.57,8.57,0,0,1-3.05,1.08c-3.14.28-6,1.25-9.13,1.2-4.39-.08-8.71.21-13.07-.41a1.59,1.59,0,0,0-1.93.88c1.89.43,3.82.53,5.72.9-2.52,1.76-5.26,3.16-7.83,4.84l-.05.82c3.54-2.08,7.52-3.42,11.24-5.16,1.89-1.29,3.74-1,5.91-1.06,2.75,0,5.25-.81,8-1.07a75.91,75.91,0,0,0,24.46-6.76c9.47-3.78,18.9-7.74,28.11-12.12a11.49,11.49,0,0,1,1.84-.35c-2.54,4.13-5.73,7.89-8,12.19,2.47.08,4.58-1.74,7.07-2l.9-.39c2.27-4.35,5-8.46,7.43-12.75.79-1.54,2.16-1.93,3.63-2.59,2.23-.93,4.3-2.12,6.61-2.86-1.19,2.52-3.27,4.55-4.83,6.89s-3.7,4.46-4.73,7.05l1.23.37c5.28-3.17,11.07-5.45,16.46-8.45,2.29-3.63,4.94-7,7-10.81.88-1.37,1.47-3.17,3-3.85,2.49-1.31,5.08-2.45,7.57-3.77,6.46-3.43,13.09-6.5,19.49-10,7.16-3.38,14.1-7,21-10.83C516.3,247.72,518.57,248.62,520.63,248.9Z"/><path class="cls-31" d="M307.8,298.28a29.92,29.92,0,0,1,9.63,0c-.29-.55-.28-1.35-1-1.51-8.24-.26-16.55-.15-24.8.11-3.33,1.61-7.76.53-11.42,1-.58,2.46-.82,5-1.29,7.42,2.11.82,3.95.16,6.12.14,4.36-.06,8.72-.06,13.09-.16,1.17.08,2.19-1.05,3-1.75C303.18,301.72,305.27,299.19,307.8,298.28Z"/><path class="cls-32" d="M320.36,303.34c-3.16,1.73-5.9,3.93-8.89,5.93l-.09,1.32a30.44,30.44,0,0,1,3.23-1.62c3.31-1.59,6.29-3.88,9.65-5.42,2.51-.38,4.75,1.16,7.4.49-2.54-.75-5-1.82-7.43-2.75-1.67-.6-2.76-1.65-4.51-1.78.73.65,1.49,1.28,2.19,2C322.11,302.54,321.05,302.84,320.36,303.34Z"/><path class="cls-33" d="M340.25,309c1-.57,1.85-.3,2.93-.11a16.4,16.4,0,0,1-3.2-2.14c-1.88-.46-3.72-1.07-5.57-1.63l-.83-.09.23,1.6c1.18.63,2.39,1.17,3.61,1.73-2.37,2.29-5.29,3.55-7.89,5.51l.37.17C333.44,312.6,336.71,310.54,340.25,309Z"/><path class="cls-34" d="M286.21,312.25c-2.94.07-5.85-.28-8.78-.15V314c4.23-.41,8.46-.26,12.69-.35.81,0,.81-.55,1.18-1.1A27.11,27.11,0,0,0,286.21,312.25Z"/><path class="cls-35" d="M383.93,321.33c-5.1,1.54-10.59,2.27-15.84,3.17a135.14,135.14,0,0,1-21.85.49,6.82,6.82,0,0,0,3.05.54,67.15,67.15,0,0,1,9.62.14,88.63,88.63,0,0,1-13.14-.18c-8.39-.82-16.82-3.45-24.93-5.73-4.28-1.15-8.55-2.42-12.74-3.88-.89-.24-1.63-.72-2.46,0a32.92,32.92,0,0,0-5.58,4.83c.76.62,1.52,1.25,2.24,1.92l.13.08a12.52,12.52,0,0,1,4,1.77,172.59,172.59,0,0,0,29.76,13.11c1.39.5,2.15-.12,3.2-.9,3.47-2.59,6.85-5.35,10.36-7.89a23.77,23.77,0,0,1,4.63-.12c7.4.09,14.95-1.53,22.16-3.08a110.23,110.23,0,0,0,16.71-5.92l-.25-.85C390.15,320,386.93,320.43,383.93,321.33Z"/><path class="cls-36" d="M284.06,334.22l.29.06"/><path class="cls-1" d="M523.65,139.93c-.79-3-.26-6.44.37-9.44,2.26.78,4.24,2.2,6.46,3.09l-.05-.63c-1.86-1.38-4-2.58-5.63-4.28.11-.72.5-1,1.17-.8,1.85.42,3.57,1.65,5.24,2.49a12,12,0,0,1,2.95-2.74c-.81-1.75-1.62-3.5-2.5-5.21a10,10,0,0,0-7.48,5,15.37,15.37,0,0,0-1,12.63Z"/><path class="cls-1" d="M540.59,129.59a9,9,0,0,1,1.91,6.48l3,1.58A17.09,17.09,0,0,0,542,126.84a25.64,25.64,0,0,0-5.27-3.61l-.79-.47-1.74-.47c.91,1.64,1.79,3.29,2.53,5A7.92,7.92,0,0,1,540.59,129.59Z"/><path class="cls-1" d="M324.28,128.25c7.37-1.22,14.78-.6,22.17-1.61,4.05-.57,7.7-.26,11.51-2-9.64,1.17-18.94.8-28.56,1-6.25-.05-12.82.45-18.77,2.46-4.89,1.94-9.75,5.24-12.64,9.72,3.54-3.24,7.77-4.91,12.1-6.76C314.35,129.05,319.64,128.91,324.28,128.25Z"/><path class="cls-1" d="M386.79,129.64c9.74,1,19.44,2.12,29.11,3.59,5,.71,10.9,1.32,15.23,4.08a39.29,39.29,0,0,1,7.66,6,33.35,33.35,0,0,0,10.75,8c5.81,2.14,12.07,3.6,18,5.43,7.52,2.27,15.17,3.85,22.84,5.47a79.15,79.15,0,0,0,9.69,1.2c-2.44-1.1-5.07-1.73-7.58-2.66a138,138,0,0,1-14.65-5.85c-4.93-2.28-9.39-5.33-14.22-8-7.05-4-14-9.84-22.22-11.21-7.49-1.89-15.1-3.13-22.74-4.32-14-1.84-27-5.22-41.48-5-4.23.26-9.18.89-12.7,3.43,3.67-.13,7.32-.58,11-.66A89.7,89.7,0,0,1,386.79,129.64Z"/><path class="cls-1" d="M415.69,138a93.6,93.6,0,0,0-11.56-1.69c-3.61-.28-6.92-.8-10.51-.5,4.33.91,10.05.81,13.4,4,2,1.72,3.81,3.31,6.39,4a120.24,120.24,0,0,0,16.64,3.77,65,65,0,0,0-6.41-6.76C421.43,138.84,418.47,138.61,415.69,138Z"/><path class="cls-1" d="M328.3,138c5,1.07,9.81.4,14.72,1.65a69.32,69.32,0,0,1,10.47,3.72c2.17,1,4.29,1.63,6.19,3.12,3,1.35,5.81,2.94,8.78,4.28a48,48,0,0,0,12.3,2.76c-2.74-1.26-5.52-2.23-8.19-3.68-4.06-2.18-7.84-4.8-12-6.73A52.4,52.4,0,0,0,328.3,138Z"/><path class="cls-1" d="M541.11,139.18c.36,1.39,2.42,2,3.52,2.76l.36-1.18a21.21,21.21,0,0,0-3.12-2.21Z"/><path class="cls-1" d="M339.06,157.62c3-.32,5.84-2.18,8-4.13-4.84-1.56-9.42-3.74-14.18-5.49a72.73,72.73,0,0,1-12-5.06c-1.33-.67-.92-1.73-1.17-3-4.48,0-9,1.41-13.24,2.66,1.68,1.12,3.55,1.63,5.36,2.56,7.29,3.66,14.49,8,22.15,10.83A22.24,22.24,0,0,0,339.06,157.62Z"/><path class="cls-1" d="M383.1,164.38a72.16,72.16,0,0,1,11.09-.72c3.26,0,6.41.37,9.66.13-5.28-.85-10.58-1.48-15.91-2a166.51,166.51,0,0,0-19.32-1.14,58.31,58.31,0,0,0-31.94,11.91c.65,1,1.34,2,2.07,2.93.2-1.28,0-2.44,1-3.42a10.79,10.79,0,0,1,6.72-2.85c3,.17,6,1.65,8.61,2.5,3.13.75,6.77,0,9.85-.74C371.22,169.42,376.66,165.49,383.1,164.38Z"/><path class="cls-1" d="M463.77,171.17c-3-1.56-6.09-3-9.24-4.33-4.14-.62-8-2.72-12.14-3.35,4.75,3,9.43,6.24,14.36,9a40.81,40.81,0,0,0,13.61,4.2c4.05.74,8.12.84,12.07,1.88a16.37,16.37,0,0,0,4.41.45c-1.12-1.28-2.4-1.53-4-1.92C476.38,175,469.94,174.33,463.77,171.17Z"/><path class="cls-1" d="M386.77,180.55c2.16-.59,4.36-.18,6.54-.78,1.5-.42,3.59.28,4.84-.65,8.56-.12,17.14-.19,25.69,0,3.76.76,7.49.42,11.28.61,1.52,1,3.9.28,5.64.63l.59.23c4.08,1,8.37,1.23,12.51,2.08,3.43.58,6.82,1.44,10.24,2.05,3.61-.15,7.19.32,10.8.13,6.19-.08,12.92-1.94,18.93-3.48-2.26.26-4.46.92-6.72,1.25-8.31,1.21-16.64,1.31-24.8-.93-9.71-2.81-19.38-3.16-29.38-4-4-.35-8-.32-12-.61-5.57-.24-11,0-16.51.25-.82.12-1.69-.14-2.2.65-1,0-2.07.06-3.1.06-3.52.13-7.08,1.18-10.61,1.22-3.57.73-7.24,1-10.81,1.84s-6.83,1.81-10.23,2.85a29.58,29.58,0,0,0-7,2.87c2.06-.29,3.85-1.18,5.86-1.67,5.34-1.28,10.27-3.3,15.78-3.91C383.66,180.69,385.22,180.84,386.77,180.55Z"/><path class="cls-1" d="M323.89,272.2a5.68,5.68,0,0,0,2.24-.41q-1,0-2,0L324,272Z"/><path class="cls-1" d="M569.59,277.31a1.58,1.58,0,0,0-2.4-.53c-2.21,1.26-3.52,4.19-4.36,6.48-.89,2.83-1.57,6.44-.5,9.29.39,1.13,2.13,2.56,3.34,2,2.3-1.72,3.58-5,4.33-7.72C570.74,284,571.2,280,569.59,277.31Z"/><path class="cls-1" d="M294.28,351.12c4.37-3.32,8.54-6.9,12.94-10.17,4.56,3.31,8.94,6.87,13.54,10.12,4.21-2.55,8.82-4.86,12.69-7.92a174.47,174.47,0,0,1-27.36-12,116,116,0,0,1-12.54-7.33,6.23,6.23,0,0,0-2.11-1.15c-1.8,1.26-3.4,2.78-5.13,4.12,6.65,3.32,12.72,7.88,18.53,12.49,0,1-1.82,1.85-2.49,2.58-5.62,4.62-11,9.2-15.54,15-2.47,0-5.74.51-8-.69-3.44-2.3-4.91-7.48-5.45-11.38-.13,2-.63,4.24-.05,6.13.74,2.49,1.44,4.83,3.15,6.86,2.82.59,6,2.59,8.9,2.1C288.54,357.28,291,353.52,294.28,351.12Z"/><path class="cls-1" d="M290.45,334.05c-.78-1.38-2.16,0-.79.78Z"/><path class="cls-1" d="M285.08,338.88c.58-.41.71-.87.42-1.38C284.47,336.9,284.13,338.54,285.08,338.88Z"/><path class="cls-1" d="M288,337.4c-.55.2-.68.54-.4,1C288.37,338.93,289,337.53,288,337.4Z"/><path class="cls-1" d="M286.68,340.83a1,1,0,0,0,1.69-.15C288.22,339.79,287,340.31,286.68,340.83Z"/><path class="cls-1" d="M286.7,344.55a2.41,2.41,0,0,0,1.22-1.05C287,342.47,285.54,343.49,286.7,344.55Z"/><path class="cls-1" d="M537.51,352.87q-10.18,3.92-20.27,8c-6.18,2.55-12.56,4.44-18.78,6.86-4.69,1.83-9.41,3.59-14.21,5.14-7.76,2.49-15.33,5.52-23.1,8-7,2.4-14.17,4.48-21.2,6.88-5.78,2-11.58,4-17.47,5.66-4.91,1.35-9.64,3.17-14.62,4.3-11,2.37-21.47,6.68-32.28,9.94l.45.35c3.74-.95,7.53-1.68,11.27-2.64,11.78-2.95,23.66-5.52,35.4-8.65,11.76-3.39,23.38-6.65,34.86-10.74,14.82-5.05,29.57-10.31,44.1-16.18,16.62-6.47,32.91-14.74,49.09-22.45a16.09,16.09,0,0,0-4.65,1.8C543.27,350.48,540.42,351.75,537.51,352.87Z"/><path class="cls-1" d="M308.85,369.08a95.48,95.48,0,0,0,11.41-8.47,3.1,3.1,0,0,0,1-2.44c-4.47,2.53-8.41,6.09-12.68,8.94-4.66,3.12-9.28,6.36-14.1,9.23a6.55,6.55,0,0,1-2.55.83,18.94,18.94,0,0,1-1.82-7.17,10.81,10.81,0,0,0,.72,7.63c1.17,1.54,3.09.94,4.54.18C300,375.22,304.29,371.85,308.85,369.08Z"/><path class="cls-1" d="M296.5,382.24a14.45,14.45,0,0,0-1.82,6.84c0,4.19,1.61,8.61,2.63,12.67l1.93.28a66.18,66.18,0,0,1-1.81-7C296.64,390.73,295.48,386.61,296.5,382.24Z"/><path class="cls-1" d="M325.42,420.34a97.16,97.16,0,0,1-25.86,3.7,25.78,25.78,0,0,0,5.71,1.66c2.36-.81,4.6-.75,7.07-1.17,7.47-1.19,14.48-1.77,21.72-4a18.8,18.8,0,0,0,1.87-.89C332.16,418.13,329.13,419.57,325.42,420.34Z"/></svg>