<svg width="550" height="550" viewBox="0 0 550 550" fill="none" xmlns="http://www.w3.org/2000/svg">
<path d="M185.42 209.673L247.226 147.866C251.92 143.172 257.397 140.825 263.656 140.825C269.915 140.825 275.391 143.172 280.085 147.866C284.779 152.56 287.127 158.162 287.127 164.671C287.127 171.202 284.779 176.814 280.085 181.508L201.849 259.744C197.155 264.438 191.679 266.785 185.42 266.785C179.161 266.785 173.684 264.438 168.99 259.744L126.743 217.496C122.048 212.802 119.701 207.19 119.701 200.66C119.701 194.151 122.048 188.549 126.743 183.855C131.437 179.161 136.913 176.814 143.172 176.814C149.431 176.814 154.908 179.161 159.602 183.855L185.42 209.673ZM541.394 541.394C535.657 547.131 528.355 550 519.488 550C510.621 550 503.319 547.131 497.582 541.394L322.333 366.145C306.686 378.663 288.691 388.573 268.35 395.875C248.009 403.177 226.363 406.828 203.414 406.828C146.562 406.828 98.4523 387.144 59.0839 347.775C19.6946 308.386 0 260.266 0 203.414C0 146.562 19.6946 98.4419 59.0839 59.0526C98.4523 19.6842 146.562 0 203.414 0C260.266 0 308.386 19.6842 347.775 59.0526C387.144 98.4419 406.828 146.562 406.828 203.414C406.828 226.363 403.177 248.009 395.875 268.35C388.573 288.691 378.663 306.686 366.145 322.333L541.394 497.582C544.523 500.711 546.745 504.101 548.06 507.752C549.353 511.403 550 515.315 550 519.488C550 523.66 549.353 527.572 548.06 531.223C546.745 534.874 544.523 538.265 541.394 541.394ZM203.414 344.239C242.532 344.239 275.788 330.553 303.181 303.181C330.553 275.788 344.239 242.532 344.239 203.414C344.239 164.296 330.553 131.04 303.181 103.647C275.788 76.275 242.532 62.5889 203.414 62.5889C164.296 62.5889 131.04 76.275 103.647 103.647C76.275 131.04 62.5889 164.296 62.5889 203.414C62.5889 242.532 76.275 275.788 103.647 303.181C131.04 330.553 164.296 344.239 203.414 344.239Z" fill="url(#paint0_linear_785_232)"/>
<defs>
<linearGradient id="paint0_linear_785_232" x1="101.103" y1="3.22863e-05" x2="719.853" y2="444.853" gradientUnits="userSpaceOnUse">
<stop stop-color="#BF2F2F"/>
<stop offset="0.0001" stop-color="#BF2F2F"/>
<stop offset="1" stop-color="#DB00FF"/>
</linearGradient>
</defs>
</svg>
