<svg width="789" height="804" viewBox="0 0 789 804" fill="none" xmlns="http://www.w3.org/2000/svg">
<path d="M757.812 212.188C709.576 212.188 663.316 193.026 629.207 158.918C595.099 124.809 575.938 78.5488 575.938 30.3125C575.938 22.2731 572.744 14.563 567.059 8.87832C561.375 3.19363 553.664 0 545.625 0H394.062C386.023 0 378.313 3.19363 372.628 8.87832C366.944 14.563 363.75 22.2731 363.75 30.3125V515.313C363.721 528.862 360.059 542.156 353.146 553.81C346.234 565.463 336.323 575.05 324.446 581.572C312.57 588.094 299.162 591.313 285.618 590.893C272.075 590.472 258.893 586.429 247.443 579.183C235.994 571.937 226.697 561.754 220.52 549.694C214.343 537.634 211.513 524.139 212.323 510.614C213.134 497.088 217.556 484.028 225.13 472.792C232.703 461.556 243.15 452.557 255.383 446.73C260.598 444.333 265.014 440.486 268.104 435.649C271.194 430.813 272.829 425.189 272.812 419.449V261.824C272.888 257.331 271.937 252.879 270.033 248.808C268.129 244.738 265.321 241.155 261.824 238.332C258.432 235.537 254.472 233.513 250.219 232.401C245.966 231.288 241.522 231.114 237.195 231.891C183.269 241.55 133.217 266.392 92.9138 303.5C52.6108 340.608 23.7293 388.443 9.65915 441.39C-4.41096 494.337 -3.08579 550.199 13.4791 602.419C30.0441 654.64 61.1613 701.051 103.179 736.207C145.196 771.362 196.37 793.803 250.693 800.894C305.017 807.986 360.237 799.434 409.87 776.243C459.504 753.051 501.493 716.183 530.908 669.965C560.323 623.747 575.944 570.097 575.938 515.313V380.043C632.079 409.328 694.492 424.541 757.812 424.375C765.852 424.375 773.562 421.181 779.247 415.497C784.931 409.812 788.125 402.102 788.125 394.063V242.5C788.125 234.461 784.931 226.751 779.247 221.066C773.562 215.381 765.852 212.188 757.812 212.188ZM727.5 362.234C668.33 356.983 611.661 335.912 563.434 301.23C558.871 298.081 553.541 296.226 548.009 295.863C542.477 295.499 536.949 296.641 532.014 299.167C527.079 301.693 522.92 305.508 519.98 310.208C517.039 314.908 515.426 320.317 515.312 325.859V515.313C515.291 556.987 503.814 597.853 482.137 633.446C460.46 669.039 429.417 697.989 392.4 717.132C355.382 736.276 313.815 744.876 272.24 741.992C230.666 739.109 190.684 724.854 156.663 700.784C122.643 676.715 95.8924 643.757 79.336 605.512C62.7796 567.268 57.054 525.208 62.7849 483.93C68.5157 442.652 85.4825 403.743 111.831 371.455C138.18 339.167 172.897 314.743 212.188 300.852V402.02C192.588 415.115 176.717 433.065 166.121 454.121C155.525 475.177 150.567 498.619 151.728 522.161C152.89 545.704 160.133 568.544 172.75 588.454C185.367 608.364 202.929 624.665 223.722 635.767C244.515 646.869 267.83 652.394 291.394 651.802C314.958 651.21 337.967 644.522 358.176 632.39C378.386 620.258 395.106 603.096 406.708 582.577C418.31 562.059 424.397 538.884 424.375 515.313V60.625H517.207C523.999 114.026 548.339 163.657 586.404 201.721C624.468 239.786 674.099 264.126 727.5 270.918V362.234Z" fill="url(#paint0_linear_516_29)"/>
<defs>
<linearGradient id="paint0_linear_516_29" x1="144.876" y1="4.71566e-05" x2="1042.98" y2="633.486" gradientUnits="userSpaceOnUse">
<stop stop-color="#BF2F2F"/>
<stop offset="0.0001" stop-color="#BF2F2F"/>
<stop offset="1" stop-color="#DB00FF"/>
</linearGradient>
</defs>
</svg>
