<svg width="550" height="551" viewBox="0 0 550 551" fill="none" xmlns="http://www.w3.org/2000/svg">
<path d="M435.066 276.116C399.53 276.116 370.615 305.031 370.615 340.566C370.615 376.101 399.53 405.017 435.066 405.017H526.369L527.449 404.958L528.51 405.017C540.375 405.017 550 395.391 550 383.527V214.867C549.997 201.275 546.768 187.878 540.576 175.779C534.384 163.679 525.408 153.223 514.386 145.27L441.312 25.3657C438.326 20.4744 433.514 16.9779 427.955 15.6421C422.395 14.3064 416.522 15.2689 411.65 18.2744L357.748 51.7077L333.43 10.5741C330.503 5.62391 325.729 2.06843 320.151 0.654093C314.572 -0.760243 308.679 0.143361 303.768 3.12918L96.8035 128.946H64.4505C52.7822 128.946 43.2551 119.596 42.9801 108.006C43.2748 96.3968 52.7822 87.0661 64.4505 87.0661H104.189C116.054 87.0661 125.679 77.4408 125.679 65.5761C125.679 53.7113 116.054 44.086 104.189 44.086H64.4505C34.0619 44.0664 8.50566 65.2225 1.74828 93.5878C0.593314 96.2677 -0.0016236 99.1555 3.32775e-06 102.074V107.436V108.517V464.105C0.0259986 486.889 9.08877 508.734 25.2001 524.845C41.3115 540.956 63.1557 550.019 85.9406 550.045H464.079C482.118 550.064 499.705 544.4 514.342 533.857C528.979 523.313 539.923 508.427 545.619 491.311C549.371 480.055 543.302 467.876 532.046 464.124C520.79 460.372 508.631 466.442 504.859 477.698C499.005 495.259 482.623 507.065 464.079 507.065H85.9406C74.5515 507.049 63.6334 502.518 55.5802 494.465C47.5269 486.412 42.9957 475.494 42.9801 464.105V168.214C49.6982 170.591 56.927 171.907 64.4702 171.907H464.099C475.491 171.917 486.414 176.446 494.472 184.5C502.529 192.554 507.063 203.475 507.079 214.867V276.096H435.105L435.066 276.116ZM507.04 362.056H435.066C423.22 362.056 413.575 352.411 413.575 340.566C413.575 328.721 423.22 319.076 435.066 319.076H507.04V362.056V362.056ZM179.542 128.946L307.5 51.1773L330.385 89.8948C330.823 90.9706 331.349 92.0087 331.956 92.9985C332.424 93.7357 332.936 94.4441 333.489 95.12L353.466 128.927H179.542V128.946ZM403.38 128.946L379.612 88.7358L415.893 66.2439L454.12 128.966H403.361L403.38 128.946Z" fill="url(#paint0_linear_785_238)"/>
<defs>
<linearGradient id="paint0_linear_785_238" x1="101.103" y1="3.22889e-05" x2="719.888" y2="444.841" gradientUnits="userSpaceOnUse">
<stop stop-color="#BF2F2F"/>
<stop offset="0.0001" stop-color="#BF2F2F"/>
<stop offset="1" stop-color="#DB00FF"/>
</linearGradient>
</defs>
</svg>
