<svg xmlns="http://www.w3.org/2000/svg" xmlns:xlink="http://www.w3.org/1999/xlink" viewBox="0 0 1142 183"><defs><style>.cls-1{fill:url(#Dégradé_sans_nom_41);}</style><linearGradient id="Dégradé_sans_nom_41" x1="616.4" y1="14.74" x2="548.44" y2="132.99" gradientUnits="userSpaceOnUse"><stop offset="0" stop-color="#db00ff"/><stop offset="0.12" stop-color="#da01fa"/><stop offset="0.26" stop-color="#d804ec"/><stop offset="0.41" stop-color="#d50ad4"/><stop offset="0.56" stop-color="#d111b2"/><stop offset="0.73" stop-color="#cb1b87"/><stop offset="0.9" stop-color="#c42753"/><stop offset="1" stop-color="#bf2f2f"/></linearGradient></defs><g id="Calque_5" data-name="Calque 5"><path d="M84.68,183.38H62.36V20.29H1.15V.16H145.89V20.29H84.68Z"/><path d="M197,107.52v75.86H174.65V.16h47.46a199.78,199.78,0,0,1,20.45.89A97,97,0,0,1,258,3.86q19.14,5.21,29.27,17.73t10.12,31.29a52.5,52.5,0,0,1-3.56,19.86,45.4,45.4,0,0,1-10,15.19,52.2,52.2,0,0,1-15.4,10.55,80.9,80.9,0,0,1-19.93,6v.55l54.23,78.33H280.36l-56.42-75.86Zm0-87.23v67.1h22q10.28,0,17.53-.69a63.9,63.9,0,0,0,13-2.46q11.64-3.57,17.94-11.37t6.3-20.4q-.14-11.78-6-19T251.47,23.17A60.83,60.83,0,0,0,239.69,21q-6.84-.69-17.39-.69Z"/><path d="M322.13,183.38,396.75.16h19.31l74.63,183.22H466.45l-21.88-55.19H368l-21.88,55.19ZM406.2,28.64q-12.26,34.22-23.42,62.17l-6.84,17.25h60.72l-6.94-17.23q-11.28-28.47-23-62.19Z"/><path d="M757.92,102.72q16.83,24.24,33.27,49.84H792q-1.78-26.7-1.78-54.5V.57h22.46V183.78H790.37L718.48,81.63q-18.63-26.7-33.28-49.84h-.82q1.79,25.05,1.78,58.47v93.52H663.84V.57H686Z"/><path d="M881.43,163.65h93.93v20.13H859.11V.57H970.3V20.7H881.43V79.85h79V100h-79Z"/><path d="M1036,107.92v75.86H1013.7V.57h47.47a199.43,199.43,0,0,1,20.44.89A95.86,95.86,0,0,1,1097,4.27q19.15,5.21,29.27,17.73t10.13,31.29a52.22,52.22,0,0,1-3.57,19.85,45.26,45.26,0,0,1-10,15.2,52.44,52.44,0,0,1-15.41,10.55,81.68,81.68,0,0,1-19.92,6v.55l54.23,78.32h-22.32L1063,107.92Zm0-87.22V87.79h22q10.28,0,17.53-.68a64.7,64.7,0,0,0,13-2.47q11.63-3.56,17.93-11.36t6.3-20.4q-.13-11.77-6-19t-16.3-10.34a62.27,62.27,0,0,0-11.77-2.19q-6.86-.68-17.39-.68Z"/><path class="cls-1" d="M542.58,183a19.77,19.77,0,0,1-6.52-1.08,12.46,12.46,0,0,1-7.48-6.85,13.61,13.61,0,0,1,.22-11c2.8-6.4,5.64-12.79,8.47-19.19l9.3-21-14,0c-3.52,0-7,0-10.56,0-7.38,0-13-3.16-15.82-9.3-2-4.34-3.13-11,3.13-18.25q14-16.1,27.92-32.24l49.3-57a20.22,20.22,0,0,1,22-6A12.41,12.41,0,0,1,616,8a13.51,13.51,0,0,1-.28,11c-2.2,4.88-4.47,9.74-6.73,14.6L597.12,59.15h1.55c8,0,16,0,24,0h.2c9.24,0,13.55,5.07,15.53,9.35s3.09,11-3.16,18.22q-18.94,21.85-37.87,43.76l-20,23.11q-9.67,11.19-19.35,22.41A20.48,20.48,0,0,1,542.58,183Zm-1.23-71.63H553.8c1.77,0,5.09,0,7.11,3.13s.69,6.13-.09,7.92L548.6,150q-4.25,9.57-8.45,19.14a1.69,1.69,0,0,0-.2.91,8.18,8.18,0,0,0,8.73-2.31q9.66-11.24,19.37-22.44l20-23.1q18.93-21.9,37.88-43.77c2.23-2.59,1.69-3.74,1.26-4.68s-1.18-1.93-4.39-2.13c-8,.07-16.09.05-24.15,0H590c-1.86,0-5.3,0-7.32-3.23s-.61-6.29.24-8.13l14.87-32c2.24-4.81,4.48-9.63,6.66-14.47a1.55,1.55,0,0,0,.19-.83,8.19,8.19,0,0,0-8.74,2.34l-49.3,57.05q-14,16.14-27.94,32.27c-2.22,2.55-1.68,3.71-1.24,4.64.55,1.21,1.34,2.3,4.34,2.13,3.62-.07,7.25-.07,10.88,0Z"/></g></svg>